<?xml version="1.0" standalone="no"?>
<!DOCTYPE svg PUBLIC "-//W3C//DTD SVG 1.1//EN" "http://www.w3.org/Graphics/SVG/1.1/DTD/svg11.dtd" >
<svg xmlns="http://www.w3.org/2000/svg">
<metadata></metadata>
<defs>
<font id="/fonts/calligraffittiregular" horiz-adv-x="1402" >
<font-face units-per-em="2048" ascent="1638" descent="-410" />
<missing-glyph horiz-adv-x="594" />
<glyph horiz-adv-x="0" />
<glyph horiz-adv-x="682" />
<glyph unicode=" "  horiz-adv-x="594" />
<glyph unicode="&#x09;" horiz-adv-x="594" />
<glyph unicode="&#xa0;" horiz-adv-x="594" />
<glyph unicode="!" horiz-adv-x="472" d="M226 16q0 34 6 56t48 22q20 0 38 -14t18 -36q0 -10 -12 -26v-4q0 -4 1 -8t1 -8q-14 -10 -19 -21t-27 -11q-20 0 -37 15t-17 35zM266 418q0 108 19 212t39 210q20 116 44 229t46 227q8 40 15 77t13 75q4 16 5 33t5 33q6 20 28 20q8 0 20 -8t12 -18q0 -40 -3 -78t-7 -78 q-14 -134 -35 -266t-43 -264q-16 -100 -28 -198t-26 -198l-5 -40t-6 -49t-7 -47t-8 -36q-4 -10 -14 -15t-20 -5q-22 0 -28 18q-10 38 -13 82t-3 84zM292 -4q0 -2 1 -3t1 -3v8z" />
<glyph unicode="&#x22;" horiz-adv-x="422" d="M368 1222q10 52 33 115t51 107q10 16 32 34t40 18q16 0 29 -11t13 -29q0 -38 -22 -72q-8 -12 -17 -25t-17 -27q-42 -74 -92 -140q-2 0 -5 -1t-5 -1q-4 0 -20 14t-20 18zM532 1222q10 52 33 115t49 107q10 16 32 34t40 18t31 -11t13 -29q0 -38 -22 -72q-8 -12 -17 -25 t-17 -27q-42 -74 -92 -140q-2 0 -5 -1t-5 -1q-6 0 -21 14t-19 18z" />
<glyph unicode="#" horiz-adv-x="1692" d="M82 456q0 20 20 26q28 8 58 10t58 6q70 10 141 17t143 11q58 126 122 247t130 243q-70 -2 -141 -4t-141 -6q-34 -2 -67 -4t-67 -2q-12 0 -19 12t-7 22q0 20 22 26q30 8 67 11t69 7q84 10 167 18t167 14q40 72 83 143t91 141q12 20 26 41t30 39q6 8 20 8q12 0 24 -7 t12 -21q0 -16 -20 -64t-47 -102t-53 -103t-36 -69q130 6 258 7t258 -1q40 70 80 137t86 133q12 18 25 38t27 38q8 8 20 8t25 -7t13 -21q0 -16 -20 -62t-46 -100t-51 -102t-35 -66q20 0 64 -3t91 -7t88 -8t57 -10q22 -6 22 -32q0 -22 -20 -28q-24 -8 -73 -13t-104 -6t-106 -1 h-81q-132 -232 -258 -468q86 -2 170 -7t168 -15q12 -2 26 -3t26 -5q22 -6 22 -32q0 -22 -22 -28q-20 -6 -58 -11t-80 -7t-81 -3t-63 -1q-40 0 -82 1t-82 3q-38 -74 -75 -147t-73 -149q-16 -34 -32 -71t-36 -71q-10 -12 -24 -12q-10 0 -22 7t-12 19q0 6 12 37t29 74t39 94 t41 96t34 80t21 47q-78 4 -155 4h-155h-114t-114 -2q-38 -74 -75 -147t-73 -149q-16 -34 -32 -71t-36 -71q-10 -12 -24 -12q-10 0 -22 7t-12 19q0 6 11 37t28 73t38 92t40 94t34 79t21 47q-58 -4 -117 -5t-117 -5q-30 -2 -59 -4t-59 -2q-12 0 -19 12t-7 22zM612 534 q134 8 268 9t268 1q58 120 119 236t123 234q-196 6 -388 6h-122q-70 -120 -137 -241t-131 -245z" />
<glyph unicode="$" horiz-adv-x="1066" d="M164 518q0 32 7 70t21 75t33 71t41 58q8 12 20 12q32 0 32 -32q0 -6 -4 -14q-34 -52 -56 -107t-22 -121q0 -102 65 -168t159 -92q26 162 65 323t79 321q-42 38 -66 91t-24 109q0 36 14 77t42 67q24 22 66 43t74 31q16 58 28 115t26 115q4 22 9 58t13 52q6 20 26 20 q10 0 19 -8t9 -18q0 -22 -5 -47t-9 -47q-10 -56 -19 -111t-19 -109q24 4 48 5t50 3q12 52 25 105t23 107q4 18 9 51t11 49q8 20 26 20q10 0 19 -8t9 -18q0 -22 -4 -46t-8 -46q-10 -54 -19 -107t-19 -107h64q54 0 106 5t104 23q2 0 4 1t4 1q14 0 23 -11t9 -23q0 -14 -16 -26 q-28 -18 -68 -30t-85 -20t-88 -13t-77 -7q-22 -102 -45 -202t-47 -202q34 -28 68 -59t62 -67t45 -77t17 -87q0 -62 -30 -122t-78 -110t-106 -88t-114 -56q-10 -46 -16 -92t-14 -92q-4 -22 -5 -47t-7 -47t-28 -22t-28 24q-4 22 -4 49v49q0 40 2 80t6 80q-34 -6 -80 -2 q-6 -44 -13 -87t-13 -89q-4 -18 -5 -40t-5 -42q-10 -22 -30 -22q-22 0 -28 24q-4 22 -4 49v49q0 44 3 87t7 85q-58 16 -110 46t-91 73t-61 97t-22 118zM552 258h4q40 0 72 8q22 136 53 270t65 266q-18 14 -35 26t-35 26q-34 -150 -66 -298t-58 -298zM624 1108q0 -28 14 -62 l40 158q-54 -34 -54 -96zM704 970q18 -14 35 -28t33 -28q22 84 44 169t44 171q-24 -4 -48 -7t-48 -9q-16 -68 -30 -134t-30 -134zM728 300q34 16 71 44t67 64t49 76t19 80q0 62 -36 102t-78 78q-26 -112 -49 -222t-43 -222z" />
<glyph unicode="%" horiz-adv-x="1316" d="M266 -22q0 4 4 12q44 64 89 125t89 123q92 132 180 264t172 268q70 114 134 232t132 234q30 54 63 112t73 106q6 12 20 12t25 -10t11 -24q0 -2 -4 -13t-8 -24t-9 -25t-5 -14q-66 -170 -157 -327t-189 -313q-188 -296 -412 -574q-40 -46 -78 -94t-78 -94q-8 -8 -18 -8 q-12 0 -23 9t-11 23zM268 1152q0 54 17 106t49 95t75 77t95 52h2q14 10 35 14t33 4q42 0 79 -19t66 -50t45 -71t16 -80q0 -60 -20 -118t-56 -105t-88 -76t-116 -29q-42 0 -84 14t-75 39t-53 62t-20 85zM356 1182l2 -22q2 -56 41 -82t89 -26q44 0 78 18t57 48t35 67t12 77 q0 70 -38 116t-110 46q-22 -12 -46 -28q-50 -38 -86 -94t-34 -120zM824 106q0 116 65 202t171 130q18 8 34 12t36 4q42 0 79 -19t66 -50t45 -70t16 -79q0 -60 -20 -118t-56 -105t-88 -76t-116 -29q-42 0 -84 13t-75 39t-53 63t-20 83zM914 114q2 -54 41 -80t91 -26 q42 0 76 18t57 47t35 67t12 78q0 70 -38 116t-110 46q-34 -18 -64 -43t-53 -57t-36 -69t-11 -75v-22z" />
<glyph unicode="&#x26;" horiz-adv-x="1214" d="M102 394q0 104 53 188t133 150t173 119t173 99q-4 34 -10 67t-6 67q0 68 17 135t50 127t82 109t113 77q18 8 37 13t39 5q68 0 117 -44t49 -114q0 -48 -15 -96t-40 -93t-56 -85t-63 -72q-44 -44 -93 -78t-101 -66q32 -172 88 -337t144 -317q74 76 120 171t46 203 q0 28 -4 54t-10 54v8q0 12 8 21t20 9q24 0 30 -24q10 -28 14 -65t4 -67q0 -124 -52 -234t-138 -196q40 -60 81 -114t87 -108q10 -10 10 -24q0 -12 -8 -21t-20 -9q-16 0 -47 29t-64 66t-62 73t-39 50q-90 -70 -197 -112t-221 -42q-36 0 -78 6t-83 18t-78 30t-67 42 q-34 26 -59 65t-42 84t-26 91t-9 88zM196 388q0 -32 6 -68t19 -71t32 -66t43 -51q50 -40 119 -60t133 -20q102 0 197 37t173 99q-100 150 -165 316t-101 342q-64 -36 -143 -80t-148 -100t-117 -125t-48 -153zM728 1090q0 -42 6 -80q38 22 74 48t66 58q24 24 49 57t46 69 t34 74t13 72t-18 44t-48 10q-14 0 -22 -6q-98 -56 -149 -144t-51 -202z" />
<glyph unicode="'" horiz-adv-x="258" d="M368 1222q10 50 33 114t51 108q10 16 32 34t40 18q16 0 29 -11t13 -29q0 -38 -22 -72q-8 -12 -17 -25t-17 -27q-42 -74 -92 -140q-2 0 -5 -1t-5 -1q-4 0 -20 14t-20 18z" />
<glyph unicode="(" horiz-adv-x="568" d="M246 490q0 156 49 310t137 286t213 233t277 149h4q14 0 23 -11t9 -25q0 -10 -10 -20q-34 -28 -71 -51t-73 -51q-118 -90 -216 -198t-162 -244q-46 -100 -68 -206t-22 -214q0 -124 28 -235t84 -219q2 -4 2 -12q0 -12 -11 -21t-23 -9t-20 12q-38 50 -66 116t-47 136 t-28 141t-9 133z" />
<glyph unicode=")" horiz-adv-x="580" d="M-102 -24q0 12 8 18q34 32 67 62t65 64q132 134 243 286t185 326q32 72 49 148t17 154q0 90 -26 176t-82 158q-10 16 -23 29l-27 27l-4 8t-2 8q0 12 10 24t24 12q4 0 12 -4q114 -66 171 -182t57 -244q0 -106 -30 -212t-81 -208t-119 -199t-146 -184t-160 -161t-162 -134 q-10 -6 -14 -6q-14 0 -23 11t-9 23z" />
<glyph unicode="*" horiz-adv-x="516" d="M246 1298q0 20 23 27t39 7q20 0 45 -11t50 -27t47 -34t36 -32v37t-2 37q0 18 -3 36t-3 38q0 12 2 26t8 27t15 22t25 9q0 -2 2 -2h4q28 -12 42 -45t14 -61q0 -32 -3 -64t-11 -62l50 36q10 8 23 21t28 25t31 20t30 8q4 0 23 -11t21 -15v-12q0 -48 -32 -73t-66 -47 q-22 -14 -45 -25t-47 -21q18 -14 35 -28t35 -28q10 -10 27 -21t33 -24t28 -28t12 -31q0 -10 -6 -19t-10 -17q-18 -6 -34 -6q-26 0 -54 17t-54 42t-48 52t-36 49q-10 -20 -22 -37t-24 -37q-10 -16 -20 -35t-22 -35t-27 -28t-37 -12t-28 21t-6 37q0 22 13 48t32 51t40 47 t37 36q-22 12 -46 25t-46 25q-12 8 -26 13t-28 13q-32 14 -56 44q-8 16 -8 32z" />
<glyph unicode="+" horiz-adv-x="984" d="M204 786q0 8 5 17t15 13q14 6 41 10t56 5t57 2t46 1q48 0 96 -1t96 -3q2 70 4 138t6 138q2 22 2 58t4 56q4 10 12 15t18 5t18 -5t12 -15q6 -22 7 -56t3 -58q4 -70 7 -138t7 -138q70 -2 139 -4t139 -6q22 -2 57 -2t55 -4q10 -4 16 -12t6 -18t-5 -19t-15 -11q-22 -6 -57 -7 t-57 -3q-70 -4 -138 -8t-138 -6q0 -42 2 -84t2 -84q0 -22 -1 -53t-5 -63t-10 -62t-16 -50q-4 -8 -13 -12t-17 -4t-17 4t-13 14q-6 16 -10 43t-6 56t-3 56t-1 45q0 48 2 96l4 96q-42 -2 -84 -3t-82 -1q-22 0 -54 1t-64 5t-62 10t-48 16q-18 8 -18 30z" />
<glyph unicode="," horiz-adv-x="234" d="M-102 -192q10 50 30 95t30 91l-20 20t-10 26q0 34 6 56t48 22q16 0 27 -7t21 -17q20 -20 30 -35t10 -45t-13 -62t-32 -63t-40 -59t-39 -50q0 -2 -4 -2q-2 0 -4 -2q-6 0 -21 14t-19 18z" />
<glyph unicode="-" horiz-adv-x="1006" d="M204 786q0 8 5 17t15 13q16 6 42 10t55 5t57 2t46 1q52 0 102 -2t102 -2q86 0 170 -3t170 -7h33t38 -1t37 -2t30 -3q22 -8 22 -30q0 -10 -5 -19t-15 -11q-24 -6 -68 -8t-72 -4q-84 -6 -169 -9t-171 -5q-46 0 -90 -2t-88 -2q-22 0 -53 1t-64 5t-62 10t-49 16q-8 4 -13 13 t-5 17z" />
<glyph unicode="." horiz-adv-x="234" d="M-40 16q0 34 6 56t48 22q18 0 37 -14t19 -36q0 -10 -12 -26l-2 -4q4 -8 4 -16q-14 -10 -19 -21t-27 -11q-20 0 -37 15t-17 35z" />
<glyph unicode="/" horiz-adv-x="574" d="M-122 44q0 10 4 14q46 62 94 123t94 125q100 132 194 263t186 269q76 114 146 232t142 234q34 56 71 112t77 106q10 10 20 10q16 0 25 -10t11 -24q-74 -196 -182 -371t-226 -347q-102 -150 -212 -292t-228 -280q-40 -48 -81 -95t-85 -93q-6 -8 -18 -8t-22 10t-10 22z" />
<glyph unicode="0" horiz-adv-x="1016" d="M184 574q0 140 34 285t101 274t167 235t230 172q26 12 52 17t54 5q90 0 144 -49t83 -121t39 -155t10 -151q0 -82 -9 -161t-25 -159q-2 -12 -4 -26t-6 -26q0 -4 -1 -5t-1 -3v-6q0 -46 -11 -102t-29 -113t-39 -110t-41 -95q-24 -52 -55 -104t-70 -97t-88 -78t-109 -45 q-10 -2 -22 -3t-22 -1q-106 0 -179 66t-118 162t-65 203t-20 191zM286 586q0 -162 58 -312q12 -32 33 -69t50 -69t63 -53t74 -21q48 0 90 27t77 67t63 86t48 82q34 60 60 124t48 128q10 34 19 68t23 66q0 2 1 3t1 3v4l2 4q6 80 18 160t12 160q0 48 -6 121t-26 142t-59 119 t-105 50q-42 0 -78 -18q-112 -56 -199 -154t-146 -217t-90 -250t-31 -251z" />
<glyph unicode="1" horiz-adv-x="628" d="M20 16q0 10 7 19t11 15q48 10 111 20t109 24q40 188 86 373t98 371q36 128 70 256t82 254q-38 -22 -90 -39t-96 -17q-4 0 -15 16t-11 22q0 10 12 18q42 22 82 45t80 51q16 10 27 22t23 26q12 12 39 32t45 20q4 0 22 -13t18 -17q0 -16 -6 -34t-14 -32q-26 -164 -75 -322 t-95 -316q-52 -176 -105 -348t-105 -348q10 2 32 2t45 -7t23 -37q0 -6 -2 -8q-22 -28 -54 -44t-70 -25t-77 -11t-71 -2q-28 0 -59 1t-59 9q-18 4 -18 24z" />
<glyph unicode="2" horiz-adv-x="1188" d="M-40 12l12 16v-8l8 10h-8l324 354q98 106 208 195t218 183q108 90 196 187t154 223q14 26 22 51t8 55q0 40 -14 76t-39 64t-60 44t-75 16q-16 0 -27 -2t-25 -4q-18 -4 -35 -5t-33 -5q-92 -18 -174 -68t-140 -122q-14 -18 -25 -35t-23 -35q-12 -16 -26 -16q-12 0 -21 9 t-9 21q0 10 2 14q38 70 95 129t126 101t147 66t158 24q126 0 204 -70t78 -200q0 -74 -34 -146q-48 -102 -114 -186t-142 -159t-160 -144t-166 -139q-84 -72 -154 -146t-146 -154h14q40 2 81 -7t81 -25q56 -22 129 -54t150 -61t150 -49t133 -20q84 0 146 29t122 87 q12 12 24 12t21 -9t9 -21t-6 -20q-56 -88 -153 -130t-197 -42q-62 0 -136 19t-151 46t-149 57t-132 52q-28 10 -58 19t-62 9q-66 0 -129 -43t-103 -95l-2 28q-10 -2 -19 -4t-19 -2q-16 0 -25 6t-21 16h2z" />
<glyph unicode="3" horiz-adv-x="1176" d="M-102 400q0 14 10 21t22 7q14 0 24 -12q16 -28 31 -55t31 -53q32 -52 72 -103t86 -93t100 -74t116 -46q46 -10 86 -10q116 0 222 56t188 146t131 202t49 226q0 20 -2 39t-4 41q-2 18 -4 35t-10 33q-14 38 -42 65t-63 42t-74 22t-77 7q-34 0 -63 -6t-57 -6q-10 0 -20 12 t-10 22q0 18 16 24q16 10 30 15t30 13q60 28 115 63t101 81q20 20 45 44t45 51t34 57t14 60q0 76 -44 102t-112 26q-34 0 -69 -5t-69 -13q-80 -18 -151 -58t-129 -94q-14 -12 -25 -24t-23 -24q-12 -8 -16 -8q-12 0 -24 10t-12 22q0 8 6 14q44 60 102 111t126 87t143 56 t151 20q14 0 27 -1t27 -1q46 0 82 -19t61 -50t38 -71t13 -82q0 -52 -22 -103t-57 -98t-78 -85t-85 -64q66 -12 113 -45t77 -81t43 -106t13 -120q0 -132 -56 -263t-150 -235t-218 -169t-260 -65q-112 0 -203 44t-164 114t-128 160t-97 182q-2 2 -2 10z" />
<glyph unicode="4" horiz-adv-x="1158" d="M184 592q0 4 2 4q22 58 55 116t71 114t78 110t76 106q62 90 118 182t108 188q22 40 41 79t41 79q6 12 20 12q10 0 23 -10t13 -20l-2 -8q-4 -10 -7 -20t-7 -19t-4 -11q-50 -136 -115 -262t-145 -246q-46 -68 -88 -136t-90 -132q56 12 112 12q62 0 121 -11t117 -27 q26 -8 51 -13t51 -7q24 82 56 171t72 175t89 165t107 143q6 8 18 8t24 -9t12 -23v-6q-18 -46 -39 -90t-43 -90q-50 -108 -100 -217t-88 -223q70 12 135 45t117 83q12 10 23 23t23 25q6 8 16 8q16 0 25 -12t11 -26q-70 -98 -163 -167t-219 -79q-36 -120 -75 -236t-79 -236 q-20 -56 -38 -112t-40 -112q-8 -14 -24 -14q-10 0 -22 9t-12 19l4 14q2 12 6 28t8 30t6 18q38 150 79 297t85 297q-82 6 -155 24t-157 18q-42 0 -73 -4t-60 -11t-58 -19t-65 -28h-6q-12 0 -26 11t-14 23z" />
<glyph unicode="5" horiz-adv-x="1092" d="M286 876q0 12 15 53t35 88t39 90t27 59q34 68 67 135t67 137q10 18 23 50t25 48q4 6 22 16t28 14q8 0 15 -2t13 -4q58 -12 116 -20t118 -8q40 0 80 5t80 11q12 2 37 7t52 11t50 10t31 4q10 0 20 -13t10 -21q0 -18 -18 -24q-40 -16 -86 -28t-88 -22q-112 -28 -216 -28 q-50 0 -99 5t-99 13q0 -10 -13 -44t-33 -81t-46 -101t-50 -102t-43 -85t-27 -51q76 34 157 45t163 11q72 0 136 -31t111 -83t74 -119t27 -137q0 -76 -22 -144t-59 -130t-85 -118t-100 -106q-102 -98 -217 -181t-239 -149q-2 -2 -10 -2q-14 0 -22 11t-8 23q0 10 10 20 q32 24 65 45t67 45q78 58 151 120t139 132q40 42 81 91t74 103t53 112t20 118q0 72 -25 123t-69 84t-101 49t-123 16q-94 0 -180 -26t-168 -72q-8 -4 -14 -4q-10 0 -24 11t-14 21z" />
<glyph unicode="6" horiz-adv-x="1144" d="M266 578q0 52 3 114t15 112q30 128 102 244t166 217t204 186t218 151q8 4 12 4q14 0 22 -11t8 -23t-8 -20l-76 -56t-74 -58q-74 -60 -144 -128t-130 -144t-108 -160t-78 -176q86 74 173 105t197 47q16 2 29 4t29 2q56 0 112 -22t102 -59t75 -88t29 -111q0 -24 -5 -44 t-13 -42q-10 -36 -21 -72t-27 -70q-78 -176 -216 -309t-304 -223q-4 -4 -8 -4q-12 -8 -20 -8q-10 0 -16 6q-68 58 -115 132t-77 158t-43 172t-13 174zM372 616q0 -158 41 -314t127 -290l138 132q96 90 181 189t137 219q10 24 17 48t15 48q6 16 10 30t4 30q0 42 -22 77 t-56 59t-74 38t-78 14q-120 0 -234 -44t-200 -128q-6 -54 -6 -108z" />
<glyph unicode="7" horiz-adv-x="998" d="M226 1452q0 10 5 18t15 12q38 8 86 9t88 3q106 6 211 8t211 6q84 4 164 13t162 21q36 4 82 11t82 7q10 0 22 -16t12 -26t-4 -14q-38 -50 -77 -97t-79 -93q-96 -116 -192 -230t-186 -234q-110 -150 -194 -313t-142 -339q-12 -40 -24 -77t-22 -77q-6 -24 -11 -48t-11 -46 q-6 -18 -26 -18q-10 0 -22 8t-12 18q0 12 4 34t8 46t9 46t9 36q48 214 136 412t214 376q102 142 210 277t236 253q-102 -26 -209 -29t-211 -3q-88 0 -174 3t-174 7q-32 2 -62 2t-62 2h-25t-25 2q-10 2 -16 11t-6 19z" />
<glyph unicode="8" horiz-adv-x="1120" d="M144 320q0 110 36 214t99 193t147 161t180 122q-56 26 -88 70t-32 108q0 52 26 92q56 84 137 137t175 83q2 0 13 3l22 6t21 6t12 3q12 0 21 -11t9 -21q0 -20 -16 -26q-18 -8 -37 -13t-37 -15q-70 -28 -138 -78t-104 -118q-14 -24 -14 -48t11 -42t29 -30t40 -18t42 -6 q104 0 191 60t133 150q10 22 22 54t12 58q0 18 -14 31t-34 22t-41 15t-33 12q-18 6 -18 26q0 10 8 22t18 12q40 0 79 -7t70 -25t50 -49t19 -79q0 -20 -4 -38t-10 -36q-6 -16 -12 -33t-14 -33q-18 -40 -47 -76t-65 -66t-76 -54t-78 -38q108 -98 176 -229t68 -279 q0 -106 -38 -200t-105 -169t-156 -126t-191 -71q-34 -8 -69 -12t-71 -4q-20 0 -40 2t-40 6q-60 12 -106 53t-77 95t-46 116t-15 118zM238 332q0 -56 12 -103t40 -95q34 -56 77 -79t107 -23q100 0 193 37t165 102t115 154t43 193q0 136 -63 258t-151 222l-60 -6 q-96 -42 -182 -110t-152 -153t-105 -186t-39 -211z" />
<glyph unicode="9" horiz-adv-x="1102" d="M266 834q0 24 5 44t11 42q10 36 22 72t28 70q76 174 215 308t305 224q2 2 4 2t4 2q12 8 20 8q10 0 14 -6q68 -58 116 -132t78 -158t43 -173t13 -175q0 -52 -4 -113t-14 -111q-30 -130 -102 -246t-166 -216t-205 -185t-219 -151q-2 -4 -12 -4q-12 0 -21 11t-9 23 q0 10 10 20l76 56t74 58q74 60 144 128t130 144t108 159t78 177q-88 -74 -174 -105t-196 -47q-16 -2 -29 -4t-29 -2q-56 0 -113 22t-102 59t-74 88t-29 111zM368 834q0 -42 22 -77t56 -59t74 -38t78 -14q120 0 234 44t200 128q4 28 4 54v54q0 158 -40 314t-126 290 q-34 -34 -70 -66t-70 -66q-94 -90 -179 -189t-137 -219q-10 -24 -17 -48t-17 -48q-4 -16 -8 -30t-4 -30z" />
<glyph unicode=":" horiz-adv-x="214" d="M122 120q0 34 7 55t47 21q20 0 39 -13t19 -35q0 -10 -4 -16l-8 -12l-2 -4q4 -8 4 -16q-14 -10 -19 -21t-27 -11q-20 0 -38 16t-18 36zM122 528q0 34 7 56t47 22q20 0 39 -14t19 -36q0 -10 -4 -16l-8 -12l-2 -2q4 -12 4 -16q-14 -12 -19 -23t-27 -11q-20 0 -38 16t-18 36z M190 98q0 -2 1 -3t1 -3v8zM190 506l2 -4v6q-2 0 -2 -2z" />
<glyph unicode=";" horiz-adv-x="254" d="M102 -88q10 50 31 94t31 92q-12 8 -21 18t-9 26q0 34 6 56t48 22q16 0 26 -7t20 -17q20 -18 31 -34t11 -44q0 -30 -13 -62t-32 -63t-41 -60t-38 -51q-2 0 -5 -2t-5 -2q-4 0 -20 14t-20 20zM136 528q0 34 6 56t48 22q20 0 38 -14t18 -36q0 -10 -4 -16l-8 -12v-2q0 -4 1 -8 t1 -8q-14 -12 -19 -23t-27 -11q-20 0 -37 16t-17 36zM202 506l2 -4v6q-2 0 -2 -2z" />
<glyph unicode="&#x3c;" horiz-adv-x="634" d="M204 618q0 42 16 76t44 66q22 24 46 47t46 45q12 12 43 40t67 56t69 53t47 31l8 2q12 0 23 -11t11 -23q0 -10 -8 -16q-16 -16 -32 -30t-32 -30l-67 -67t-65 -67q-12 -12 -32 -34t-39 -46t-33 -48t-14 -42q0 -14 25 -41t61 -59t80 -67t80 -67t61 -57t25 -37q0 -14 -10 -26 t-24 -12h-4q-116 46 -217 128t-169 188q-6 24 -6 48z" />
<glyph unicode="=" horiz-adv-x="1190" d="M266 558q0 22 20 30q24 6 68 8t72 4q84 6 169 10t171 4l92 4t92 2q22 0 52 -1t62 -5t61 -10t49 -14q8 -4 12 -13t4 -17q0 -22 -18 -30q-18 -6 -45 -10t-57 -6t-59 -3t-47 -1q-50 0 -99 2t-99 2q-86 0 -170 2t-170 6h-31t-39 1t-38 2t-30 3q-10 2 -16 11t-6 19zM266 834 q0 10 5 19t13 13q16 6 43 10t56 5t57 2t46 1q52 0 102 -2t102 -2q86 -2 170 -4t170 -6q28 -2 71 -2t67 -6q10 -2 16 -11t6 -19q0 -8 -6 -17t-14 -11q-24 -6 -68 -8t-72 -4q-86 -6 -170 -9t-170 -5q-46 0 -90 -2t-90 -2q-22 0 -53 1t-63 5t-62 9t-50 15q-16 10 -16 30z" />
<glyph unicode="&#x3e;" horiz-adv-x="620" d="M204 300q0 10 25 34t58 51t64 50t41 31q38 28 82 67t68 79q2 2 2 8q0 16 -14 40t-34 48t-40 46t-32 34q-34 34 -67 66t-67 62q-16 16 -34 30t-34 30q-8 8 -8 16q0 12 12 23t24 11h2q2 0 2 -1t2 -1q14 -8 48 -31t70 -51t68 -54t44 -38q22 -22 47 -45t47 -47q28 -30 44 -65 t16 -77q0 -12 -1 -23t-3 -23q-70 -108 -171 -187t-223 -119l-4 -2q-12 0 -23 13t-11 25z" />
<glyph unicode="?" horiz-adv-x="872" d="M286 1036q0 98 44 185t115 153t162 104t187 38q70 0 130 -23t103 -64t67 -100t24 -131q0 -88 -45 -156t-112 -121t-144 -96t-141 -81q-28 -16 -58 -36t-54 -42q-40 -40 -78 -98t-38 -118q0 -40 32 -75t66 -47q0 4 -1 6t-1 6q0 14 10 23t24 9q18 0 27 -21t9 -37 q0 -30 -19 -46t-47 -16q-36 0 -70 17t-62 44t-46 62t-22 69v22q0 76 42 152t98 128q52 48 117 85t131 72t128 75t108 96t46 128q0 108 -65 165t-169 57q-80 0 -158 -32t-139 -88t-98 -129t-37 -157q0 -18 4 -37t4 -37q0 -14 -10 -22t-22 -8t-18 5t-10 15q-4 8 -6 22t-4 29 t-3 29t-1 22zM404 16q0 34 6 56t48 22q18 0 37 -14t19 -36q0 -10 -12 -26l-2 -4q4 -8 4 -16q-14 -10 -19 -21t-27 -11q-20 0 -37 15t-17 35zM470 -4q0 -2 1 -3t1 -3v8z" />
<glyph unicode="@" horiz-adv-x="1368" d="M184 526q0 100 25 198t69 190t103 174t129 152q56 56 120 108t134 92t147 64t159 24q102 0 178 -42t125 -111t73 -157t24 -180q0 -104 -29 -210t-81 -203t-124 -181t-156 -144q-18 -12 -45 -27t-49 -15t-36 12t-21 30t-9 38t-2 38v18t2 18q-60 -62 -138 -102t-168 -40 q-8 0 -21 5t-21 9q-40 22 -59 64t-19 86q0 60 16 119t43 114t61 107t72 98q96 118 228 213t276 145h6q14 0 22 -10t8 -24t-14 -24q-30 -16 -61 -29t-59 -31q-198 -114 -336 -296q-28 -36 -57 -81t-52 -93t-38 -98t-15 -98q0 -6 1 -19t5 -25t11 -22t17 -10q50 0 99 27t92 68 t77 89t56 88q42 76 75 155t67 157q16 34 31 74t33 70q8 14 26 14q12 0 23 -8t11 -22v-4q-22 -96 -50 -185t-60 -181q-8 -22 -13 -47t-11 -47q-10 -40 -21 -77t-23 -75q-16 -48 -18 -96l4 -4q8 0 22 9t29 21t28 24t19 18q58 56 105 125t81 145t52 157t18 163q0 70 -17 141 t-53 129t-94 95t-138 37q-72 0 -140 -23t-131 -59t-120 -83t-105 -95q-62 -62 -114 -137t-90 -157t-59 -170t-21 -176q0 -70 16 -147t54 -137q36 -58 91 -99t119 -68t133 -39t133 -12q120 0 229 32t211 92q8 6 20 6t21 -9t9 -21q0 -14 -12 -26q-52 -48 -116 -81t-135 -52 t-144 -28t-141 -9q-136 0 -246 42t-190 119t-123 187t-43 246z" />
<glyph unicode="A" horiz-adv-x="1320" d="M-296 10q0 24 20 28q44 10 84 19t82 25q104 40 194 105t169 144t149 167t134 176q24 34 46 66t44 66q-78 -16 -136 -45t-122 -75q-4 -4 -14 -4t-21 11t-11 21t6 16q68 76 167 119t197 59q40 62 84 131t91 138t97 132t104 113q12 8 18 8h4q-2 30 -9 61t-22 56t-39 41 t-60 16q-48 0 -99 -18t-96 -39t-77 -38t-40 -17q-12 0 -21 11t-9 21q0 14 14 24q10 8 24 15t26 15q66 38 141 70t155 32q16 0 34 -5t32 -11q40 -18 67 -52t42 -75t21 -86t6 -85q0 -112 -12 -221t-30 -219q84 10 165 31t159 53q22 8 42 17t42 19h6q12 0 23 -11t11 -25 q0 -8 -6 -14q-42 -46 -96 -79t-116 -54t-126 -32t-124 -13q-34 -196 -70 -396t-36 -400q0 -58 7 -115t30 -102t66 -72t115 -27q12 0 23 2t23 2q14 0 22 -10t8 -24t-15 -23t-34 -13t-39 -6t-30 -2q-86 0 -141 35t-87 92t-45 128t-13 141q0 96 11 196t28 201t37 201t38 194 l-84 4t-84 2h-42t-42 -2q-34 -54 -71 -106t-75 -104q-70 -96 -150 -191t-171 -177t-195 -146t-224 -96q-34 -10 -73 -17t-75 -7q-12 0 -19 10t-7 20zM832 924q16 0 33 1t35 1q30 0 61 -2t61 -2h14q20 104 35 207t19 209q-26 -44 -66 -109t-79 -128t-71 -113t-42 -64z" />
<glyph unicode="B" horiz-adv-x="1530" d="M-20 -30q0 24 22 28q40 10 77 17t77 25q94 42 166 116t128 164t97 189t75 189q30 80 56 161t53 162t58 160t71 155q-56 -34 -114 -60t-112 -60q-84 -52 -166 -121t-118 -163q-8 -20 -12 -38l-8 -36q-6 -18 -26 -18q-8 0 -21 7t-13 15q0 82 34 154t90 134t129 114t151 96 t156 79t142 63q4 2 7 4t7 2q12 0 24 -9t12 -23q0 -2 -10 -28t-24 -57t-26 -59t-14 -36q44 40 101 81t120 75t128 56t127 22q88 0 148 -47t60 -137q0 -72 -34 -134q-76 -136 -193 -237t-255 -169q130 -22 206 -112t76 -222q0 -108 -44 -205t-119 -171t-173 -117t-206 -43 t-206 35t-188 93q-16 10 -32 21t-32 23q-10 6 -10 18q0 4 4 12q-84 -88 -192 -143t-228 -55q-12 0 -19 10t-7 20zM442 158q4 2 12 2q4 0 12 -4q94 -54 191 -94t207 -40q88 0 171 34t147 94t103 139t39 169q0 82 -31 133t-82 81t-116 42t-133 14q-4 -2 -12 -5t-18 -6t-18 -5 t-10 -2q-16 0 -24 11t-8 25q0 18 20 26q6 16 16 17t20 5q20 8 47 26t47 28q58 34 117 71t117 77q36 26 83 66t90 88t73 99t30 97q0 52 -35 70t-81 18q-66 0 -137 -26t-139 -66t-130 -87t-110 -89q-46 -126 -90 -252t-92 -252q-48 -124 -106 -243t-140 -225q-12 -18 -30 -36z " />
<glyph unicode="C" horiz-adv-x="1162" d="M194 275q-9 66 -9 134t9 137q6 48 16 96t22 96q38 148 126 287t211 246t270 172t301 65q36 0 86 -5t82 -17q18 -7 18 -26q0 -13 -11 -26q-9 -10 -23 -10q-18 0 -36 2t-38 2q-148 0 -290 -56t-261 -152t-207 -224t-130 -272q-14 -46 -23 -94t-15 -94q-8 -54 -10 -110v-22 q0 -44 6 -88q8 -54 25 -104t49 -92q12 -16 26 -31t30 -25q30 -18 76 -26t84 -8q108 0 216 46t188 128q22 22 38 43t34 45q10 14 26 14q12 0 21 -8t7 -22q0 -2 -4 -10q-42 -72 -104 -131t-134 -100t-151 -64t-159 -23q-22 0 -48 2t-52 7t-50 12t-42 17q-16 10 -32 26l-30 30 q-90 100 -108 233z" />
<glyph unicode="D" horiz-adv-x="1706" d="M-20 -18q0 24 22 30q40 8 77 15t77 25q92 42 163 116t126 164t95 189t74 189q30 80 54 161t50 162t56 160t70 155q-56 -32 -114 -59t-112 -61q-80 -50 -158 -115t-118 -155q-10 -22 -14 -44t-10 -44q-2 -8 -10 -13t-16 -5q-18 0 -25 10t-7 26q0 80 34 150t91 130t129 112 t149 95t152 78t137 61q4 2 7 4t9 2q12 0 23 -9t11 -23q0 -2 -9 -24t-19 -49t-21 -52t-13 -33q82 88 182 142t222 54h40q52 -8 102 -30t94 -55t80 -74t60 -87q30 -60 44 -126t14 -132q0 -116 -35 -239t-98 -241t-149 -224t-190 -186t-222 -127t-242 -47q-122 0 -230 51 t-196 133q-80 -84 -187 -137t-223 -53q-12 0 -19 10t-7 20zM456 188q76 -66 170 -109t196 -43q106 0 204 37t186 101t162 149t132 181t98 196t60 196q4 28 7 53t3 53q0 76 -23 151t-67 134t-108 95t-148 36q-60 0 -116 -21t-106 -54t-94 -74t-80 -83q-16 -20 -41 -46 t-37 -48q-4 -10 -10 -27t-12 -36t-12 -37l-10 -30q-24 -72 -49 -144t-51 -144q-50 -132 -109 -254t-145 -232z" />
<glyph unicode="E" d="M-10 -58q0 10 6 16q58 64 141 95t167 41q58 134 112 269t104 273q-4 -2 -18 -8t-28 -13t-26 -12t-14 -5q-14 0 -26 13t-12 25v4q0 2 2 2q24 46 71 77t95 47q52 156 90 314t92 312q-76 -22 -145 -61t-121 -99q-16 -16 -26 -34t-24 -34q-6 -10 -20 -10q-10 0 -22 8t-12 22 q0 6 2 8q54 108 139 175t187 104t215 52t221 21q180 8 342 35t328 101q4 2 10 2q14 0 23 -11t9 -23t-6 -18q-64 -64 -157 -103t-181 -55q-86 -16 -172 -22t-172 -9t-172 -8t-170 -23q-10 -162 -51 -318t-93 -308q56 0 111 -8t111 -8q50 0 99 5t97 17q6 2 19 6l26 8t24 8 t13 4q10 0 22 -14t12 -22q0 -12 -10 -18q-76 -48 -172 -70t-184 -22q-34 0 -66 4t-66 4q-42 0 -76 -8q-52 -148 -116 -290t-136 -282q66 0 131 -10t129 -21t129 -21t131 -10q30 0 60 2t60 8q98 20 167 70t139 116q8 8 16 8q12 0 23 -11t11 -21q0 -6 -4 -14 q-90 -126 -218 -190t-282 -64q-62 0 -122 7t-120 16t-120 17t-122 8h-34t-34 -2l-15 -30t-25 -18q-14 0 -25 8t-11 22q0 6 4 10q-34 -6 -62 -13t-53 -16t-51 -20t-58 -23h-6q-14 0 -24 11t-10 25z" />
<glyph unicode="F" horiz-adv-x="1112" d="M164 -26q22 52 47 106t47 106q92 222 174 450q-4 -2 -17 -8t-28 -13t-27 -12t-14 -5q-12 0 -24 13t-12 25l2 6q24 46 70 77t96 47q52 156 89 314t91 312q-76 -22 -145 -61t-121 -101q-16 -16 -26 -33t-24 -33q-6 -10 -18 -10t-23 8t-11 22q0 6 2 8q54 108 139 175 t187 104t215 52t221 21q180 8 342 35t328 101q4 2 10 2q12 0 22 -11t10 -23t-8 -18q-64 -64 -156 -103t-182 -55q-84 -16 -170 -22t-173 -9t-173 -8t-170 -23q-10 -162 -50 -318t-92 -308q56 0 111 -8t111 -8q50 0 99 5t97 17q6 2 19 6l26 8t24 8t13 4q10 0 22 -14t12 -22 q0 -12 -10 -18q-76 -48 -172 -70t-184 -22q-34 0 -67 4t-67 4q-18 0 -37 -2t-37 -6q-48 -132 -104 -262t-120 -256q-26 -48 -53 -103t-55 -101q-10 -10 -22 -10t-23 8t-11 22v6z" />
<glyph unicode="G" horiz-adv-x="1290" d="M-338 -748q0 108 33 218t91 211t137 184t173 135q12 4 16 4q12 0 21 -9t9 -21q0 -16 -16 -26q-22 -16 -42 -30t-42 -30q-88 -74 -151 -171t-101 -205q-20 -58 -32 -119t-12 -125q0 -92 30 -164t84 -121t129 -75t165 -26q46 0 91 8t87 28q90 38 158 121t120 191t90 234 t67 250t51 238t44 200q-30 -36 -65 -73t-76 -66t-86 -48t-95 -19q-12 0 -24 1t-22 3q-82 18 -142 63t-100 107t-59 137t-19 153v17t2 17q10 200 72 384t176 350q22 30 45 61t49 59q40 42 91 74t107 55t114 38t114 25q114 18 224 29t222 37h4q30 0 30 -32q0 -20 -20 -26 q-28 -12 -62 -18t-64 -12q-80 -16 -161 -25t-161 -25q-108 -22 -204 -60t-170 -122q-70 -78 -127 -176t-97 -206t-61 -220t-21 -218q0 -76 22 -153t80 -131q34 -32 76 -53t88 -21q48 0 100 34t103 89t100 123t91 135t76 127t56 98q34 58 72 122t80 126t87 120t91 106 q14 10 24 10q32 0 32 -30q0 -4 -2 -9t-4 -9q-72 -104 -135 -205t-119 -205t-104 -213t-88 -229q-40 -116 -67 -235t-53 -239t-56 -239t-74 -235q-40 -102 -92 -196t-123 -164t-165 -112t-216 -42q-104 0 -194 33t-157 94t-105 147t-38 192z" />
<glyph unicode="H" horiz-adv-x="1848" d="M82 -54q0 24 22 28q40 10 76 18t76 26q90 44 157 121t116 170t83 193t60 190l14 46l-20 -10l-32 -16l-30 -15t-16 -7q-14 0 -25 11t-11 23q0 14 21 37t50 45t57 40t42 24q30 120 62 239t84 233q-54 -34 -111 -63t-111 -65q-38 -26 -77 -56t-73 -64t-62 -74t-44 -84 q-10 -28 -11 -46t-7 -42q-4 -10 -12 -15t-18 -5t-19 6t-11 16v-2q0 8 -1 15t-1 15q0 116 68 213t168 175t214 139t204 105l8 4t8 2q14 0 25 -10t11 -24v-4q-16 -46 -31 -89t-31 -89q-30 -96 -56 -192t-54 -192q66 18 133 24t135 6q66 0 132 -3t132 -3q62 0 123 4t121 18 q32 100 68 197t82 193q16 32 32 66t36 62q8 12 24 12q12 0 23 -8t11 -24q0 -4 -11 -39t-27 -86t-36 -112t-38 -115l-32 -96t-18 -56q0 -2 1 -4t1 -4q0 -12 -10 -18q-30 -94 -62 -199t-58 -213t-42 -215t-16 -205q0 -24 2 -58t12 -65t29 -52t55 -21q34 0 78 21t86 45t73 45 t37 21q12 0 22 -11t10 -23q0 -8 -10 -18q-26 -24 -63 -52t-79 -51t-84 -39t-78 -16q-64 0 -100 32t-55 80t-24 104t-5 102q0 84 13 180t34 193t47 191t50 176q-64 -16 -129 -23t-130 -10t-130 -3t-131 -2q-138 -6 -270 -54q-46 -156 -102 -311t-148 -293q-36 -54 -85 -104 t-108 -87t-124 -59t-133 -22q-12 0 -19 11t-7 21z" />
<glyph unicode="I" horiz-adv-x="1056" d="M-204 -128q0 8 4 16q44 54 104 91t128 60t139 33t137 10q18 0 36 -1t36 -1q76 176 147 354t133 362q52 156 90 313t90 313h-2q-106 0 -205 -27t-195 -69q-24 -10 -49 -22t-49 -22l-6 -2q-12 0 -24 12t-12 24q0 8 6 14q46 54 107 92t130 60t141 32t140 10q92 0 182 -6 t182 -6q50 0 100 3t100 11q14 4 27 6t25 6q10 4 18 7t18 3t21 -12t11 -22q0 -16 -12 -22q-62 -30 -135 -45t-149 -21q-65 -5 -130 -5h-21q-75 1 -143 1q-12 -156 -58 -334t-112 -356t-143 -347t-151 -307q60 -4 119 -6t117 -2q50 0 99 3t97 11q14 4 26 6t26 6q10 2 17 6 t17 4t21 -13t11 -23q0 -16 -12 -22q-64 -30 -139 -45t-153 -20q-65 -4 -129 -4h-26q-77 1 -147 1q-6 -6 -14 -6t-16 6h-32q-106 -2 -205 -29t-195 -67q-24 -10 -48 -23t-50 -23h-6q-12 0 -23 11t-11 23z" />
<glyph unicode="J" horiz-adv-x="774" d="M-840 -474q0 112 41 224t110 213t158 182t187 129q12 4 16 4q12 0 20 -9t8 -21q0 -18 -16 -28q-22 -12 -42 -24t-40 -26q-100 -70 -174 -166t-124 -206q-28 -62 -44 -127t-16 -131q0 -74 25 -138t83 -110q64 -48 144 -70t156 -22q116 0 205 37t155 102t115 152t85 187 q44 118 75 240t58 245t57 245t72 242q64 180 149 351t199 323q-36 -18 -73 -36t-71 -40q-86 -52 -168 -122t-118 -166q-8 -18 -11 -35t-7 -35q-2 -8 -10 -13t-16 -5t-21 7t-13 17q0 74 27 138t70 119t99 100t114 81q94 58 193 112t203 92h6q10 0 23 -12t13 -24 q0 -14 -18 -29t-28 -25q-20 -22 -38 -47t-36 -51q-120 -170 -207 -357t-157 -381q-42 -118 -73 -240t-60 -245t-61 -245t-76 -240q-42 -114 -100 -213t-136 -171t-181 -113t-235 -41q-96 0 -189 29t-169 89q-74 58 -106 136t-32 168z" />
<glyph unicode="K" horiz-adv-x="1496" d="M20 -28q0 24 22 28q42 10 78 17t76 23q92 42 160 116t119 165t89 190t68 187q26 80 48 162t46 163t51 161t65 156q-56 -34 -113 -61t-113 -61q-80 -52 -157 -119t-111 -161q-8 -20 -10 -38t-8 -40q-2 -8 -10 -13t-18 -5q-22 0 -27 13t-5 29q0 78 33 147t88 129t125 111 t145 94t149 77t134 62q4 2 7 3t7 1q14 0 25 -9t11 -23v-6q-16 -40 -31 -79t-29 -79q-30 -84 -56 -169t-52 -171q104 62 214 112t214 114q74 44 132 100t114 120q22 24 42 52t42 50q6 8 18 8q8 0 23 -11t15 -21q0 -6 -10 -32t-12 -34q-44 -108 -129 -186t-183 -134 q-118 -66 -243 -114t-245 -106q66 -52 108 -121t70 -149t43 -163t37 -165q12 -46 24 -93t34 -93q24 -54 61 -87t101 -33q44 0 93 17t92 38t73 39t36 18q12 0 22 -10t10 -24t-10 -18q-34 -28 -73 -51t-77 -43q-42 -22 -88 -36t-94 -14q-76 0 -127 35t-84 88t-54 117t-37 124 q-22 78 -41 157t-45 157q-20 64 -47 125t-67 117q-52 -162 -113 -324t-161 -300q-40 -54 -91 -101t-109 -82t-124 -54t-134 -19q-10 0 -18 10t-8 20z" />
<glyph unicode="L" horiz-adv-x="1556" d="M144 -10q0 14 10 19t20 9q62 82 115 172t98 183t86 188t81 191q54 124 117 247t145 231t188 191t244 125h4q10 0 19 -12t9 -22q0 -16 -14 -24q-40 -20 -74 -34t-74 -42q-88 -60 -158 -141t-126 -173t-101 -191t-85 -195q-36 -84 -69 -170t-71 -170t-85 -163t-107 -149 q74 12 152 12q86 0 173 -11t173 -23t172 -23t174 -11q100 0 196 18t184 70q20 12 37 25t37 27q6 6 14 6q10 0 21 -12t11 -22q0 -8 -8 -16q-52 -56 -117 -92t-136 -58t-147 -31t-148 -9q-64 0 -128 5t-128 13q-114 16 -227 26t-229 10q-46 0 -92 -2t-92 -6q-6 -6 -14 -12 t-18 -6q-12 0 -22 10t-10 24q0 6 2 10q0 2 -1 3t-1 5z" />
<glyph unicode="M" horiz-adv-x="1912" d="M20 -28q0 24 22 28q42 10 79 17t77 23q94 42 165 116t127 164t97 188t75 188q30 80 56 162t53 163t58 161t73 156q-56 -34 -114 -61t-114 -61q-42 -24 -84 -53t-80 -64t-69 -75t-49 -86q-8 -20 -12 -39t-10 -39q-2 -10 -10 -15t-16 -5t-20 8t-12 16q0 74 26 138t70 119 t99 101t113 82q92 58 194 113t204 89h4q20 0 30 -16q6 -4 8 -12t-2 -14q34 -134 52 -271t32 -275q10 -100 19 -197q5 -58 5 -117q0 -40 -2 -80q76 100 154 197t148 199q78 112 154 221t156 217q28 36 57 74t59 72q8 8 18 8q12 0 26 -13t14 -25v-4q-62 -224 -136 -440 t-126 -444q-24 -108 -43 -215t-19 -215q0 -28 2 -66t12 -73t31 -59t61 -24q36 0 80 19t85 43t71 43t36 19q12 0 22 -10t10 -22q0 -10 -10 -20q-24 -22 -62 -48t-80 -49t-84 -39t-74 -16q-40 0 -71 16t-55 43t-38 61t-18 70q-4 38 -8 75t-4 75q0 96 20 223t50 260t66 258 t70 217q-46 -74 -93 -146t-95 -142q-42 -64 -86 -128t-93 -126t-104 -116t-119 -96q-4 -2 -12 -2q-10 0 -20 8t-14 18l-2 -2q-2 0 -2 2t-2 4q-20 58 -29 120t-13 124q-4 60 -7 120t-7 120q-8 108 -15 217t-17 219q-68 -170 -126 -342t-124 -344q-48 -124 -106 -242 t-138 -224q-42 -54 -94 -100t-112 -80t-127 -53t-135 -19q-10 0 -18 10t-8 20z" />
<glyph unicode="N" horiz-adv-x="1528" d="M-122 -28q0 24 22 28q40 10 77 17t77 23q94 42 165 116t127 164t97 188t75 188q30 80 57 162t54 163t58 161t71 156q-56 -34 -114 -61t-114 -61q-80 -48 -159 -114t-119 -156q-10 -22 -14 -43t-10 -43q-6 -20 -28 -20q-6 0 -19 8t-13 16q0 74 26 138t70 119t100 101 t114 82q94 58 193 112t203 90h4q16 0 29 -12t9 -28q58 -194 88 -390t54 -396q16 -136 32 -271t24 -273q74 182 135 365t131 365q52 132 112 257t144 237q44 56 99 105t118 86t133 58t142 21q10 0 18 -10t8 -20q0 -24 -24 -30q-44 -10 -82 -17t-82 -25q-100 -44 -175 -123 t-134 -175t-102 -200t-79 -200t-72 -211t-77 -230t-92 -221t-119 -184q-6 -6 -15 -8t-19 -2q-18 0 -24 16q-30 76 -45 167t-25 173q-30 260 -49 519t-67 515q-70 -176 -130 -352t-128 -352q-48 -124 -105 -242t-139 -224q-42 -54 -94 -100t-112 -80t-126 -53t-136 -19 q-10 0 -17 10t-7 20z" />
<glyph unicode="O" d="M184 312q0 102 22 198t59 188t86 178t103 170q36 52 71 106t75 106q12 12 24 12t21 -9t9 -21q0 -6 -4 -18q-64 -100 -131 -205t-122 -216t-90 -228t-35 -243v-39t4 -41q6 -52 30 -91t60 -67t82 -42t94 -14q70 0 141 31t136 78t122 104t99 109q64 80 124 171t107 189 t75 202t28 210q0 68 -18 129t-55 106t-92 71t-129 26q-88 0 -165 -30t-151 -74q-8 -4 -16 -4q-14 0 -23 9t-9 21t12 24q76 64 177 106t199 42q92 0 163 -34t119 -92t73 -135t25 -163q0 -120 -30 -232t-80 -216t-117 -202t-139 -188q-48 -60 -113 -122t-139 -114t-155 -85 t-161 -33q-66 0 -128 21t-112 59t-83 93t-39 125q-2 18 -3 37t-1 37z" />
<glyph unicode="P" horiz-adv-x="1390" d="M-40 12q0 24 22 28q40 10 76 17t76 23q92 40 161 113t121 163t90 187t68 185q26 80 49 162t47 163t52 161t66 156q-56 -34 -114 -61t-114 -61q-40 -24 -81 -53t-77 -63t-65 -73t-47 -85q-8 -20 -11 -39t-7 -41q-4 -10 -12 -15t-16 -5q-22 0 -27 13t-5 29q0 68 26 129 t67 114t94 97t107 78q90 58 190 113t200 89h4q12 0 25 -10t13 -24q0 -2 -7 -22t-16 -44t-18 -46t-11 -28q36 34 80 65t92 55t99 38t103 14q80 0 136 -34t91 -88t51 -122t16 -136q0 -108 -39 -204t-105 -179t-153 -149t-186 -112t-203 -71t-202 -25q-10 0 -24 -1t-30 1t-30 5 t-20 13q-26 -52 -55 -103t-65 -97q-80 -108 -200 -179t-258 -71q-10 0 -17 10t-7 20zM584 476q10 4 20 3t20 -1q132 0 277 51t268 141t203 213t80 269q0 44 -9 93t-31 88t-59 65t-91 26q-32 0 -64 -8t-62 -20q-86 -34 -160 -93t-132 -131q-10 -12 -21 -27t-19 -29 q-10 -22 -21 -63t-19 -67q-22 -72 -46 -145t-48 -145q-20 -56 -41 -111t-45 -109z" />
<glyph unicode="Q" horiz-adv-x="1382" d="M174 274v38q0 102 22 198t59 188t86 178t103 170q34 50 72 108t74 104q12 12 24 12t21 -9t9 -21q0 -6 -4 -18q-50 -78 -98 -152t-92 -149t-82 -155t-66 -170q102 -8 169 -58t114 -123t83 -156t76 -157q84 48 155 114t129 142q64 80 125 171t108 189t75 202t28 210 q0 68 -18 129t-55 106t-92 71t-129 26q-88 0 -165 -31t-151 -73q-8 -4 -16 -4q-14 0 -23 9t-9 21t12 24q36 32 81 59t95 47t101 31t99 11q92 0 163 -34t119 -92t73 -135t25 -163q0 -120 -30 -232t-81 -217t-117 -202t-138 -187q-64 -82 -141 -152t-167 -122q36 -44 78 -62 t98 -18q54 0 118 16q4 2 23 8t21 6q10 0 21 -13t11 -23q0 -16 -30 -30t-68 -24t-75 -15t-51 -5q-74 0 -132 30t-104 88q-42 -16 -84 -28t-88 -12q-66 0 -128 21t-111 60t-82 95t-39 124q-4 18 -4 36zM262 292q0 -20 4 -42q6 -52 30 -91t60 -67t82 -42t94 -14q34 0 62 7 t60 17q-40 66 -72 136t-71 132t-93 113t-136 81q-10 -46 -15 -94t-5 -94v-42z" />
<glyph unicode="R" horiz-adv-x="1510" d="M0 6q0 26 22 30q42 8 79 15t77 25q92 42 164 116t127 164t97 188t76 188q46 118 82 237t82 237q0 12 6 18q16 40 33 76t37 72q-56 -32 -114 -59t-114 -61q-84 -52 -165 -120t-119 -164q-8 -18 -11 -36t-9 -38q-2 -8 -10 -13t-16 -5t-21 7t-13 17q0 74 27 138t70 119 t99 100t114 81q88 56 193 113t203 91h6q12 0 25 -11t13 -23q0 -4 -8 -22t-17 -41t-18 -44t-11 -27q74 54 168 97t190 43q42 0 83 -13t72 -37t50 -60t19 -84q0 -44 -15 -87t-39 -79q-100 -150 -256 -245t-336 -113q54 -42 87 -98t56 -118t37 -128t30 -128q12 -46 23 -91 t29 -89q22 -52 56 -84t94 -32q42 0 90 17t90 37t71 37t35 17q14 0 23 -11t9 -25t-10 -18q-30 -24 -71 -49t-77 -41q-40 -22 -85 -35t-93 -13q-90 0 -143 50t-86 129t-55 176t-53 191t-78 174t-129 124q-56 -148 -120 -290t-160 -268q-40 -54 -92 -100t-112 -81t-127 -54 t-135 -19q-12 0 -19 10t-7 20zM802 870q90 14 179 39t171 66t153 99t123 136q16 24 28 52t12 58q0 28 -13 47t-34 31t-45 17t-48 5q-50 0 -103 -16t-104 -40t-98 -54t-85 -60q-36 -96 -69 -190t-67 -190z" />
<glyph unicode="S" horiz-adv-x="1246" d="M0 422q0 90 37 189t95 169q12 12 24 12t21 -9t9 -21q0 -10 -6 -18q-46 -70 -77 -146t-31 -164q0 -90 39 -159t102 -117t143 -72t162 -24q126 0 224 53t182 143q44 50 74 104t30 124q0 52 -20 92t-56 78q-38 38 -77 71t-81 67q-40 30 -91 68t-97 81t-82 92t-46 101 q-4 16 -5 32t-1 32q0 66 22 118t61 89t92 61t115 36q56 10 112 11t112 5q108 6 214 10t210 38q2 0 4 1t6 1q12 0 21 -10t9 -22q0 -18 -16 -28q-42 -26 -99 -41t-117 -24t-119 -14t-109 -9q-84 -6 -174 -20t-162 -60l-18 -12t-16 -12q-20 -22 -30 -54t-10 -60q0 -62 32 -108 t78 -84q42 -34 83 -68t85 -68q46 -36 94 -78t88 -90t65 -104t25 -120q0 -84 -40 -157t-92 -133q-90 -102 -213 -162t-261 -60q-96 0 -190 31t-168 89t-120 141t-46 189z" />
<glyph unicode="T" horiz-adv-x="1164" d="M154 1146q0 8 2 10q66 128 163 204t213 116t244 55t256 23q104 6 202 15t194 26t191 46t189 75q4 2 10 2q14 0 23 -11t9 -23t-6 -18q-78 -74 -177 -115t-206 -62t-216 -27t-211 -10q-12 -188 -62 -370t-112 -360q-52 -154 -116 -301t-136 -291q-28 -56 -59 -119t-63 -115 q-6 -12 -20 -12q-12 0 -23 9t-11 23v6q28 66 58 132t58 134q58 140 113 281t103 285q58 180 101 364t109 360q2 2 3 4t3 4q-88 -14 -181 -29t-183 -42t-172 -68t-148 -105q-28 -28 -47 -56t-41 -58q-6 -12 -20 -12q-12 0 -23 8t-11 22z" />
<glyph unicode="U" horiz-adv-x="1538" d="M226 912q0 70 25 131t67 113t95 95t107 77q90 56 183 105t191 85q4 6 11 10t13 4q12 0 23 -9t11 -23q0 -6 -2 -8q-30 -82 -71 -186t-85 -219t-86 -235t-75 -236t-54 -221t-21 -189q0 -28 1 -57t10 -53t28 -40t55 -16q48 0 96 26q108 56 196 151t158 195q14 18 30 40 t26 42q6 14 9 32t7 34q10 32 18 63t18 65q60 190 129 375t171 357q16 26 31 52t33 50q6 10 20 10q16 0 25 -10t11 -26q-34 -94 -79 -202t-92 -224t-92 -238t-80 -240t-57 -231t-22 -211q0 -40 18 -78t64 -38q32 0 76 18t85 41t72 41t37 18q12 0 21 -11t9 -23t-10 -18 q-46 -40 -114 -80t-128 -56q-26 -8 -58 -8q-52 0 -84 23t-50 59t-24 79t-6 85q0 30 3 60t7 60q-36 -54 -89 -120t-116 -123t-134 -95t-141 -38q-60 0 -97 25t-57 64t-27 87t-7 96q0 64 9 125t23 121q52 236 128 462t190 440q-58 -34 -117 -62t-117 -62q-78 -48 -155 -112 t-113 -152q-10 -20 -13 -38t-9 -38q-4 -18 -26 -18q-10 0 -21 8t-11 20z" />
<glyph unicode="V" horiz-adv-x="1428" d="M102 912q0 110 69 203t169 166t213 128t201 91q12 6 22 6q12 0 21 -12t9 -24q0 -8 -6 -14q24 -92 32 -186t8 -190q0 -106 -8 -211t-18 -211q-16 -138 -28 -276t-34 -276q48 66 128 162t171 208t184 234t168 241t122 226t47 191q0 48 -24 88q-26 40 -72 58t-90 26 q-14 2 -29 2t-29 4q-24 4 -24 28q0 32 30 32q62 0 120 -13t103 -42t71 -78t26 -121q0 -94 -51 -218t-133 -259t-184 -273t-205 -261t-197 -223t-158 -156q-8 -8 -22 -8q-12 0 -22 4t-14 18q-8 34 -9 79t-1 79q0 136 19 269t35 267q16 142 30 282t14 284q0 84 -6 168 q-70 -58 -149 -93t-155 -81t-151 -109t-111 -147q-10 -20 -13 -38t-9 -40q-8 -18 -26 -18q-16 0 -25 10t-9 24z" />
<glyph unicode="W" horiz-adv-x="2270" d="M154 912q0 74 32 140t85 123t121 106t140 90t143 73t129 56q12 6 22 6q14 0 23 -12t9 -24q0 -8 -6 -14q24 -92 31 -186t7 -190q0 -106 -7 -211t-19 -211q-14 -128 -26 -256t-30 -258q64 94 131 182t131 182q70 102 138 203t138 203q32 48 64 98t66 96q8 8 20 8t22 -9 t14 -19q28 -72 43 -151t21 -160t7 -162t1 -157q0 -96 3 -189q1 -40 1 -80q0 -54 -2 -109q134 186 283 360t283 362q42 60 98 144t105 175t84 182t35 165q0 26 -5 52t-21 48q-28 44 -80 64t-102 26q-14 4 -28 3t-26 3q-24 2 -24 30q0 12 7 21t21 9q68 0 129 -14t108 -46 t75 -84t28 -130q0 -100 -53 -232t-139 -277t-194 -293t-216 -280t-207 -238t-167 -168q-8 -8 -18 -8q-26 0 -34 26l-6 6q-28 74 -37 148t-9 152q0 110 5 219t5 221q0 70 -4 138t-14 138q-78 -142 -161 -279t-173 -273q-82 -124 -169 -248t-203 -220q0 -12 -11 -20t-21 -8 q-26 0 -32 22q-8 34 -8 79v79q0 136 19 269t35 267q16 142 29 282t13 284q0 84 -6 168q-68 -58 -147 -93t-155 -81t-151 -109t-111 -147q-10 -20 -14 -38t-10 -40q-4 -18 -26 -18q-16 0 -24 10t-8 24z" />
<glyph unicode="X" horiz-adv-x="1346" d="M-164 254q0 14 10 22t22 8q14 0 24 -12q10 -14 17 -28t17 -26q34 -56 83 -111t113 -75q20 -6 42 -6q32 0 64 14t60 36t52 48t44 50q112 140 199 298t175 314l62 112v36q0 94 -7 195t-41 189q-38 102 -148 102q-42 0 -97 -19t-104 -43t-85 -43t-42 -19q-12 0 -21 10t-9 22 t10 22q28 22 74 48t97 49t100 38t85 15q72 0 134 -39t88 -109q28 -70 42 -144t18 -148q38 64 93 144t123 150t145 117t161 47q62 0 127 -29t105 -77q6 -10 6 -20q0 -12 -9 -22t-23 -10q-6 0 -21 10t-36 22t-48 22t-61 10q-46 0 -88 -17t-81 -43t-73 -60t-60 -66 q-70 -90 -133 -183t-121 -191q2 -162 6 -314t42 -312q22 -98 87 -149t167 -51q24 0 48 5t40 5q14 0 22 -10t8 -24q0 -16 -16 -26q-14 -8 -36 -14t-45 -10t-46 -6t-37 -2q-90 0 -150 37t-98 98t-57 139t-27 160t-8 161v141q-84 -150 -169 -296t-199 -278q-26 -30 -57 -61 t-66 -56t-74 -40t-83 -15q-50 0 -92 19t-78 49t-65 69t-53 79q-4 6 -11 19t-16 28t-15 28t-6 17z" />
<glyph unicode="Y" horiz-adv-x="1484" d="M-154 -748q0 108 33 218t91 211t138 184t174 135q8 4 14 4q12 0 21 -9t9 -21q0 -16 -16 -26q-20 -16 -40 -29t-40 -29q-90 -74 -153 -172t-103 -206q-20 -58 -32 -119t-12 -125q0 -92 30 -164t84 -121t129 -75t165 -26q46 0 91 8t89 28q70 30 127 88t102 134t80 163 t61 175t45 172t33 152q24 108 48 217t54 217q-34 -44 -81 -95t-102 -94t-115 -72t-120 -29t-97 25t-56 64t-26 87t-7 96q0 64 8 125t22 121q52 236 128 462t190 440q-58 -34 -117 -62t-117 -62q-78 -48 -155 -112t-113 -152q-8 -20 -12 -38t-8 -38q-6 -18 -28 -18 q-10 0 -21 8t-11 20q0 70 25 131t67 113t95 95t107 77q90 56 183 105t193 85q2 6 9 10t13 4q12 0 23 -9t11 -23q0 -6 -2 -8q-30 -82 -71 -186t-85 -219t-86 -236t-75 -236t-54 -220t-21 -189q0 -28 1 -57t10 -53t28 -40t55 -16q26 0 50 8t46 18q72 36 132 89t113 115 t100 129t89 131q4 4 4 6q36 76 80 157t94 160t106 152t114 133q10 10 24 10q12 0 21 -8t9 -22q0 -12 -6 -18q-72 -104 -135 -205t-119 -205t-103 -213t-87 -229q-40 -116 -67 -235t-54 -239t-57 -239t-74 -235q-40 -104 -92 -197t-123 -164t-165 -112t-216 -41 q-104 0 -194 33t-157 94t-105 147t-38 192z" />
<glyph unicode="Z" horiz-adv-x="1264" d="M-20 0q0 12 8 18q0 14 8 20q70 72 141 141t141 139q150 148 299 292t305 284q138 126 278 248t292 230q-38 -6 -76 -8t-76 -2q-128 0 -254 15t-252 15q-118 0 -234 -25t-210 -101q-22 -18 -39 -37t-35 -39q-8 -8 -16 -8q-12 0 -23 10t-11 22q0 8 4 12q50 80 121 131 t153 80t171 40t177 11q104 0 206 -9t206 -9q120 0 227 15t221 49l4 2q14 0 24 -12t10 -24t-8 -20q-62 -56 -127 -109t-129 -105q-136 -110 -270 -220t-266 -228q-198 -176 -390 -353t-392 -353q14 2 27 3t27 1q78 0 155 -23t147 -55q120 -52 236 -110t236 -110 q126 -54 261 -84t273 -30q172 0 319 45t291 137q8 4 14 4q14 0 22 -11t8 -23t-8 -20q-68 -58 -151 -99t-173 -69t-183 -41t-179 -13q-274 0 -534 110q-120 52 -238 107t-238 107q-68 30 -143 57t-151 27q-48 0 -83 -12t-75 -38q-6 -4 -16 -4q-12 0 -22 10t-10 22z" />
<glyph unicode="[" horiz-adv-x="592" d="M40 10l2 4q26 64 54 126t54 126q56 132 106 264t96 270q38 114 67 230t63 230q16 54 32 111t38 109q4 10 10 11t16 5q52 10 103 18t103 12q22 2 43 5t43 3q56 0 102 -32q4 -6 7 -14t3 -16q0 -16 -14 -26t-33 -15t-39 -7t-32 -2q-28 0 -54 1t-54 1q-36 0 -72 2t-74 6 q-8 -108 -33 -226t-62 -241t-84 -248t-98 -244t-105 -229t-104 -204q72 16 146 18q22 2 43 5t43 3q58 0 102 -32q4 -6 7 -14t3 -16q0 -16 -14 -26t-33 -15t-39 -6t-32 -1q-24 0 -49 1t-51 1q-46 0 -93 2t-95 8q-8 6 -15 18t-7 24z" />
<glyph unicode="\" horiz-adv-x="526" d="M266 1506q0 10 13 19t23 9q18 0 24 -14q32 -66 58 -153t46 -186t34 -203t24 -205t14 -194t4 -167q0 -64 -2 -128t-6 -128q-4 -28 -4 -58t-6 -58q-4 -22 -28 -22q-10 0 -20 7t-12 17q-2 18 -1 39t1 39q0 46 -1 91t-3 91q-6 136 -17 270t-29 268q-16 120 -41 235t-45 235 q-10 46 -18 98t-8 98z" />
<glyph unicode="]" horiz-adv-x="612" d="M-164 16q0 14 12 30q40 20 88 20q24 0 47 -3t47 -3q40 -4 92 -6t94 -12v2q20 56 45 109t47 107q54 132 103 265t91 271q34 108 57 217t51 219q14 52 27 105t33 103q-60 -10 -121 -14t-123 -4q-14 0 -35 3t-40 9t-33 18t-14 30t14 32q38 20 86 20q24 0 48 -3t46 -5 q46 -2 105 -6t101 -14q8 -2 13 -11t5 -17q0 -10 -6 -16q18 -10 18 -22q0 -172 -42 -342t-94 -332q-46 -144 -104 -284t-126 -276q-22 -46 -45 -95t-51 -93q-6 -10 -18 -10q-2 -14 -18 -30q-70 -14 -139 -19t-139 -5q-14 0 -35 3t-40 10t-33 19t-14 30z" />
<glyph unicode="^" horiz-adv-x="752" d="M266 1218l2 6q8 12 17 25t17 23q54 70 119 125t145 95q14 6 29 14t29 12h28q74 0 140 -44q78 -54 151 -126t135 -146l2 -6q0 -14 -12 -25t-26 -11h-4q-2 0 -2 2q-36 30 -84 72t-101 82t-105 69t-98 33q-44 -18 -82 -47t-76 -59q-10 -8 -37 -30t-57 -44t-56 -40t-36 -18 q-14 0 -26 12t-12 26z" />
<glyph unicode="_" horiz-adv-x="1182" d="M-20 50q0 10 5 18t15 12q20 6 57 10t76 6t76 3t61 1q68 0 135 -2t135 -2q108 0 216 -2t216 -6q38 -2 74 -3t72 -3h30t32 -2q10 -2 16 -11t6 -19t-6 -19t-16 -11q-16 -4 -40 -5t-51 -3t-52 -3t-43 -1q-114 -6 -227 -10t-227 -4q-62 -2 -122 -4t-122 -2q-28 0 -69 1t-83 5 t-82 9t-64 15q-10 4 -14 13t-4 19z" />
<glyph unicode="`" d="M1046 1390q0 10 11 25t21 15q42 0 78 -26q14 -10 26 -21t26 -21q72 -50 130 -108q0 -2 1 -4t1 -4q0 -12 -11 -26t-23 -14t-42 14t-65 32t-65 36t-42 26q-16 10 -31 33t-15 43z" />
<glyph unicode="a" horiz-adv-x="914" d="M0 96q0 66 17 131t46 126t67 117t80 106q108 134 248 233t304 159q2 2 8 2q14 0 21 -10t7 -22q0 -18 -14 -24q-34 -18 -67 -33t-65 -33q-222 -128 -374 -328q-30 -40 -62 -90t-58 -103t-43 -109t-17 -108q0 -8 2 -23t6 -30t13 -26t21 -11q58 0 113 30t103 76t86 98t62 98 q46 84 82 169t72 171q14 36 33 84t37 82q8 14 26 14q14 0 24 -8t10 -22l-2 -4q-16 -72 -36 -145t-44 -143q-10 -28 -24 -62t-22 -58q-4 -14 -5 -28t-3 -28q-6 -32 -13 -63t-15 -63q-10 -40 -17 -81t-7 -83v-18t2 -16q14 0 33 12t39 29t37 35t27 28q60 64 114 142 q14 16 25 35t25 35q6 10 18 10q14 0 24 -10t10 -24q-52 -106 -108 -189t-146 -161q-44 -40 -100 -40q-30 0 -57 17t-37 47q-4 10 -5 28t-2 38t0 39t1 31q-70 -84 -165 -143t-209 -59q-6 0 -17 4t-17 6q-46 22 -69 70t-23 96z" />
<glyph unicode="b" horiz-adv-x="798" d="M102 186q0 194 48 381t112 369q36 102 81 204t102 199t128 184t155 157q6 6 14 6q14 0 24 -10t10 -22q0 -10 -4 -14q-72 -108 -135 -202t-117 -189t-102 -198t-90 -229q68 62 144 107t172 45q16 0 24 -2q10 -2 29 -12t29 -16q60 -40 86 -101t26 -131q0 -60 -16 -119 t-48 -109q-108 -174 -255 -317t-325 -241v-8q0 -10 -11 -21t-21 -11q-26 0 -26 24q-18 10 -18 30q0 8 6 18q-22 116 -22 228zM176 114q0 -52 6 -106q42 36 100 87t120 109t123 122t110 130t79 130t30 124q0 26 -7 57t-20 58t-35 45t-52 18q-46 0 -93 -19t-91 -47t-84 -61 t-74 -61q-46 -144 -79 -290t-33 -296z" />
<glyph unicode="c" horiz-adv-x="652" d="M62 222q0 86 20 164q20 88 59 174t95 160t128 131t160 91q30 12 68 23t72 11q10 0 19 -12t9 -22q0 -20 -16 -26q-34 -16 -67 -30t-65 -36q-134 -82 -230 -208t-136 -278q-18 -78 -18 -158q0 -28 4 -61t15 -65t30 -58t49 -38q2 -2 7 -2h7q50 0 92 27t76 61q54 54 102 124 l20 28t20 26q6 10 18 10t23 -9t11 -21q0 -4 -9 -20t-21 -35t-23 -36t-15 -23q-28 -42 -59 -82t-68 -70t-83 -48t-100 -18q-12 0 -18 2q-38 6 -67 29t-50 56t-33 70t-18 71q-4 24 -6 48t-2 50z" />
<glyph unicode="d" horiz-adv-x="908" d="M62 154q0 86 21 175t58 174t87 162t110 137q70 70 164 109t196 39h27t27 -2q22 74 51 158t65 168t79 162t91 138q6 10 20 10q12 0 23 -9t11 -23q0 -6 -2 -10q-64 -154 -123 -307t-111 -313q14 -4 32 -12t18 -24q0 -14 -8 -24t-22 -10q-8 0 -19 4t-19 8q-30 -92 -60 -196 t-55 -210t-41 -211t-16 -201v-21t2 -25t7 -21t17 -9q18 0 51 28t67 65t65 72t45 49q6 10 18 10t22 -10t10 -22q0 -10 -4 -14q-40 -62 -88 -116t-102 -102q-40 -36 -86 -36q-40 0 -62 22t-33 53t-14 67t-3 66q0 20 1 39t3 37q-26 -38 -66 -85t-87 -89t-98 -71t-101 -29 q-52 0 -85 24t-51 61t-25 81t-7 84zM164 170q0 -16 1 -43t8 -53t20 -44t37 -18q32 0 85 39t108 92t105 105t74 76q4 4 8 4q10 140 47 279t75 273h-16h-8q-113 0 -201 -55q-91 -57 -158 -146t-110 -197t-63 -208q-12 -52 -12 -104z" />
<glyph unicode="e" horiz-adv-x="718" d="M72 248q0 152 64 291t172 245q32 32 74 65t89 60t96 44t95 17q58 0 93 -39t35 -97q0 -50 -24 -99t-61 -93t-81 -80t-82 -62q-58 -40 -121 -74t-137 -34q-16 0 -35 4t-19 26q0 28 26 34q6 2 14 2t16 2q22 4 43 14t43 22q34 22 86 62t102 88t85 98t35 94q0 28 -30 28 q-12 0 -24 -4l-24 -8q-96 -32 -176 -97t-138 -151t-91 -184t-33 -196q0 -32 5 -73t20 -77t41 -61t68 -25q16 0 30 5t28 13q54 30 100 81t82 103q10 12 19 26t19 28q6 10 20 10q12 0 23 -8t11 -22q0 -4 -4 -12q-24 -44 -60 -97t-80 -99t-95 -77t-107 -31q-62 0 -103 35 t-65 86t-34 110t-10 107z" />
<glyph unicode="f" horiz-adv-x="588" d="M-1024 -746q0 12 9 20t21 8q14 0 26 -12q16 -22 30 -41t30 -39q68 -72 154 -124t186 -68q12 -2 24 -3t24 -1q78 0 145 33t123 88t101 127t82 148t64 151t47 137q40 126 74 251t74 251q56 168 109 333t115 329q-66 -6 -132 -10t-132 -4q-8 0 -15 13t-7 21q0 20 16 26 q24 6 49 10t49 8q52 10 106 19t108 19q6 18 13 35t15 33q42 106 102 209t139 186t179 139t220 68h8q12 0 21 -9t9 -21q0 -22 -22 -30q-34 -14 -63 -23t-63 -25q-80 -40 -145 -99t-118 -129t-94 -148t-73 -158l-2 -6q40 6 79 12t79 6q20 0 54 -3t52 -11q8 -4 13 -16t5 -20 q0 -6 -3 -13t-11 -11q-70 -32 -154 -39t-160 -15q-70 -176 -130 -352t-120 -356q-42 -126 -78 -254t-78 -253t-96 -246t-130 -231q-36 -50 -81 -95t-98 -79t-113 -54t-122 -20q-76 0 -151 27t-142 71t-123 102t-94 122q-4 12 -4 16z" />
<glyph unicode="g" horiz-adv-x="866" d="M-450 -750q0 12 10 20t22 8q14 0 24 -14q10 -18 19 -36t23 -34q52 -64 127 -107t157 -43q94 0 166 66q56 50 106 122t95 156t84 176t72 183t61 177t52 158q-72 -70 -156 -110t-186 -40h-6t-6 2q-46 10 -77 36t-50 61t-27 76t-8 83q0 120 35 238t105 218q44 60 100 117 t122 100t140 70t152 27q12 0 38 -2t53 -7t48 -15t21 -24q0 -4 -4 -12q-4 -34 -7 -65t-9 -63q-10 -66 -22 -130t-26 -128q-50 -230 -123 -452t-161 -440q-32 -78 -67 -157t-78 -154t-95 -143t-118 -124q-92 -82 -212 -82q-64 0 -124 22t-112 59t-93 88t-63 109q-2 2 -2 10z M150 206q0 -22 3 -52t12 -57t28 -46t49 -19q62 0 121 30t109 76t89 103t63 109q60 130 97 266t75 272q-30 8 -68 8q-70 0 -138 -26t-128 -69t-110 -97t-88 -108q-56 -84 -85 -186t-29 -204z" />
<glyph unicode="h" horiz-adv-x="1010" d="M0 -186q0 2 3 14t6 27t6 28t3 17q46 202 110 396t126 392q54 176 110 349t114 347q18 58 37 116t39 116q10 24 17 50t17 50q6 16 24 16q10 0 22 -9t12 -21l-2 -2q-64 -256 -137 -508t-149 -504q42 44 106 103t136 111t147 89t139 37q14 0 28 -8t26 -21t20 -28t8 -29 q0 -22 -2 -45t-8 -45q-20 -80 -48 -158t-59 -155t-61 -154t-54 -157q-10 -34 -21 -77t-11 -79q0 -18 5 -36t27 -18q36 0 86 22t96 49t80 50t42 23q14 0 22 -10t8 -22q0 -16 -10 -20q-24 -22 -67 -51t-90 -55t-93 -45t-78 -19q-24 0 -44 11t-35 29t-24 40t-9 44q0 4 1 9t1 9 q6 44 12 86t18 84q20 80 49 157l58 154t56 154t45 157q4 12 5 24t3 24q-34 -4 -77 -26t-87 -52t-83 -63l-65 -55q-32 -28 -74 -66t-82 -80t-74 -85t-48 -83q-16 -40 -26 -81t-24 -81q-26 -84 -55 -168t-63 -168q-12 -28 -24 -59t-28 -57q-8 -14 -24 -14q-10 0 -22 9t-12 21z " />
<glyph unicode="i" horiz-adv-x="530" d="M134 78v72q0 52 11 108t23 108q18 78 41 168t54 179t71 172t90 145q10 10 20 10q12 0 24 -9t12 -23v-4q-34 -106 -77 -223t-82 -238t-66 -241t-27 -232q0 -12 1 -34t13 -28q44 8 93 46t92 80t75 76t44 34q10 0 21 -10t11 -20t-6 -16q-38 -46 -73 -91t-74 -83t-87 -65 t-110 -39q-54 24 -74 63t-20 95zM482 1458q0 36 7 59t53 23q18 0 34 -16t16 -34q0 -12 -10 -28l-2 -6q4 -12 4 -18q-14 -10 -20 -21t-28 -11q-18 0 -36 15t-18 37z" />
<glyph unicode="j" horiz-adv-x="462" d="M-820 -490q0 12 11 20t23 8q14 0 22 -14q10 -16 19 -33t23 -33q48 -66 124 -110t160 -44q96 0 168 66q56 50 103 117t86 140t71 148t60 145q70 176 128 353t114 359l72 238q10 26 16 52t16 50q10 20 30 20q12 0 22 -8t10 -22q0 -32 -8 -72t-14 -72q-42 -244 -121 -475 t-171 -461q-32 -78 -67 -157t-77 -154t-94 -143t-118 -124q-96 -80 -212 -80q-64 0 -125 21t-113 58t-92 88t-64 109q0 4 -1 5t-1 5zM406 1490q0 20 17 34t35 14q10 0 18 -2l16 -4q26 -20 24 -48q2 -4 4 -9t4 -9q-4 -16 -7 -26t-13 -22l4 10q-18 -24 -42 -24q-32 0 -46 29 t-14 57z" />
<glyph unicode="k" horiz-adv-x="808" d="M0 -186q0 2 3 14t6 27t6 28t3 17q46 202 110 396t126 392q108 350 222 696q20 58 39 116t39 116q8 24 15 50t17 50q10 16 24 16q10 0 22 -9t12 -21v-2q-70 -278 -149 -549t-161 -545l112 92t110 94q58 52 109 115t109 109l8 4t8 2q6 0 22 -13t16 -19q0 -4 -6 -23t-8 -25 q-28 -70 -81 -124t-111 -102q-52 -44 -110 -83t-116 -75q50 -24 82 -66t53 -93t35 -108t28 -111t33 -100t51 -78q24 -24 56 -33t66 -9q22 0 42 4t40 4q8 0 18 -14t10 -22q0 -16 -14 -22q-30 -10 -65 -17t-67 -7q-78 0 -127 36t-81 92t-53 126t-44 140t-55 132t-84 100 l-16 -10q-40 -134 -80 -265t-90 -261q-16 -40 -35 -90t-41 -88q-6 -14 -24 -14q-10 0 -22 9t-12 21z" />
<glyph unicode="l" horiz-adv-x="610" d="M154 214q0 112 22 220t48 216q50 210 121 410t179 388q20 36 41 72t45 68q8 12 22 12q12 0 23 -8t11 -22q0 -6 -2 -10q-90 -232 -186 -462t-156 -472q-28 -108 -51 -219t-23 -225q0 -30 1 -65t10 -65t30 -51t61 -21q44 0 99 28t106 63t89 63t46 28q12 0 22 -10t10 -22 q0 -10 -8 -18q-32 -30 -78 -68t-97 -70t-104 -54t-97 -22q-64 0 -100 32t-55 79t-24 102t-5 103z" />
<glyph unicode="m" horiz-adv-x="1360" d="M-10 -52q0 2 3 13t6 25t6 26t3 16q34 132 83 260t109 252q28 58 54 117t56 117l28 56t35 63t39 60t38 47q8 8 18 8q8 0 22 -11t14 -21q0 -6 -7 -26t-15 -44t-17 -45t-11 -29q22 26 54 62t69 69t77 55t78 22q30 0 49 -12t28 -31t12 -43t3 -48q0 -40 -6 -80t-16 -80 q38 38 92 87t116 92t125 72t117 29q32 0 59 -26t27 -58q0 -38 -4 -74t-16 -72q-24 -82 -56 -163t-64 -161t-61 -160t-49 -164l-8 -40t-4 -40q0 -22 4 -37t30 -15q34 0 82 22t95 49t82 49t43 22q12 0 21 -10t9 -22q0 -14 -35 -41t-81 -54t-89 -50t-59 -29q-38 -14 -72 -14 q-64 0 -89 42t-25 100q0 62 22 146t53 173t64 174t55 147q14 42 31 96t17 100q-28 -8 -65 -25t-61 -33q-90 -60 -174 -125t-168 -135q-32 -126 -72 -250t-92 -244q-16 -34 -31 -70t-35 -66q-8 -14 -22 -14q-10 0 -23 10t-13 20q0 2 5 25t7 25q28 124 67 243t79 239 q32 108 60 216q12 46 22 93t10 93q0 8 -1 14t-1 12q-48 -10 -105 -59t-113 -112t-106 -126t-84 -101q-4 -4 -6 -4q-6 -12 -11 -24t-11 -22q-46 -90 -87 -178t-79 -180q-22 -50 -39 -101t-37 -101q-6 -16 -22 -16q-10 0 -23 10t-13 18z" />
<glyph unicode="n" horiz-adv-x="926" d="M-20 -52q0 2 3 13t6 25t6 26t3 16q34 132 83 260t109 252q28 58 54 117t54 117q12 22 29 54t36 65t39 62t38 45q8 8 18 8q8 0 22 -11t14 -21q0 -6 -7 -28t-17 -47t-19 -48t-11 -31q34 32 79 70t96 70t105 53t102 21q28 0 53 -25t29 -53q4 -20 4 -30q0 -34 -13 -83 t-25 -83q-20 -58 -58 -153t-76 -195t-66 -192t-28 -144q0 -22 4 -37t30 -15q36 0 85 22t95 49t80 49t42 22q12 0 21 -11t9 -23t-10 -18q-22 -18 -52 -40t-64 -43t-67 -39t-59 -28q-46 -20 -86 -20q-60 0 -87 43t-27 95q0 62 20 141t48 161t59 161t53 139q22 58 40 117 t24 123q-36 -4 -98 -40t-129 -83t-127 -93t-94 -70l-72 -144q-48 -94 -91 -187t-83 -189q-18 -46 -34 -92t-36 -92q-6 -16 -22 -16q-8 0 -21 10t-13 18z" />
<glyph unicode="o" horiz-adv-x="890" d="M62 264q0 66 18 130q56 184 180 328t302 216q4 2 10 2q14 0 21 -10t7 -22q0 -14 -16 -24q-28 -16 -56 -31t-56 -37q-110 -80 -188 -198t-118 -248q-14 -42 -14 -94q0 -42 12 -90t36 -89t61 -68t87 -27q32 0 61 12t55 30q76 54 136 140t102 185t64 202t22 195v24 q-4 52 -35 88t-77 58q-14 6 -27 10t-25 10q-20 8 -20 28q0 14 8 24q8 8 18 8h4h2q44 -4 87 -20t77 -44t57 -66t29 -86q4 -20 4 -39v-41q0 -76 -17 -166t-51 -180t-83 -175t-112 -151t-140 -105t-165 -39q-66 0 -114 35t-81 89t-49 117t-16 119z" />
<glyph unicode="p" horiz-adv-x="836" d="M-840 -650q0 12 11 21t21 9q14 0 22 -12q10 -16 20 -30t20 -30q34 -48 82 -92t112 -44q58 0 115 42t111 110t102 151t88 165t71 155t49 117q70 178 124 358t102 366q16 62 31 122t31 122q8 26 13 53t15 53q8 20 28 20q14 0 24 -7t10 -21q0 -22 -2 -48t-6 -54l14 7t12 7 q54 28 103 47t109 29q10 2 19 3t19 1q38 0 72 -15t61 -40t45 -58t24 -69q2 -20 3 -39t1 -39q0 -128 -45 -247t-115 -227q-34 -50 -73 -97t-86 -83t-102 -58t-119 -22q-8 0 -25 1t-23 3q-32 8 -58 34t-38 56q-24 -64 -62 -161t-88 -205t-111 -217t-130 -196t-146 -141 t-157 -54q-56 0 -100 21t-79 56t-63 78t-52 87q-4 8 -4 12zM238 173q0 -19 3 -37t10 -32t23 -18q6 -2 13 -2h13q44 0 87 20t81 50t70 67t54 71q62 96 108 208t46 226q0 68 -28 117t-104 49q-38 0 -82 -13t-82 -29t-67 -30t-37 -14q-12 -82 -29 -164t-33 -142q-8 -34 -19 -69 t-17 -69q-6 -32 -8 -78t-2 -80v-31z" />
<glyph unicode="q" horiz-adv-x="842" d="M62 190q0 124 45 261t127 252t195 190t251 75h28t35 -3t29 -11t12 -22q0 -10 -8 -20t-20 -10q-14 0 -27 2t-27 2q-82 0 -154 -32t-132 -86t-108 -126t-81 -151t-50 -160t-17 -153q0 -16 1 -39t6 -46t16 -41t31 -22q54 8 105 47t96 90t82 106t65 99q50 82 90 165t80 169 q18 40 34 82t38 82q10 14 22 14q4 8 12 23t17 29t19 25t20 11q12 0 23 -9t11 -21q0 -8 -2 -10q-102 -262 -202 -520t-164 -532q-28 -118 -50 -237t-22 -239q0 -40 3 -82t13 -82q22 -92 112 -92q48 0 110 32t119 71t99 71t50 32q14 0 23 -10t9 -22q0 -10 -8 -18 q-34 -34 -85 -76t-108 -78t-115 -60t-108 -24q-72 0 -113 38t-62 93t-27 119t-6 118q0 74 11 164t29 182t40 180t42 162q-10 -10 -18 -19t-18 -19q-30 -30 -59 -58t-62 -49t-70 -34t-83 -13q-32 0 -56 16t-41 40t-27 53t-14 55q-6 36 -6 76z" />
<glyph unicode="r" horiz-adv-x="710" d="M0 -108q0 22 7 50t11 50q26 130 64 256t88 248q18 48 43 114t53 135t59 130t63 97q8 8 18 8q8 0 23 -9t15 -19q0 -6 -4 -21t-8 -32t-9 -32l-7 -21q64 48 134 86t154 38q36 0 62 -15t44 -39t26 -54t8 -62q0 -16 -2 -30t-6 -30t-22 -16q-8 0 -23 7t-15 15l2 18q0 14 -3 34 t-10 39t-19 32t-32 13q-48 0 -102 -29t-92 -57q-16 -12 -44 -36t-58 -52t-55 -54t-35 -42q-6 -8 -15 -29t-18 -45t-18 -46t-15 -34q-40 -96 -77 -192t-69 -194q-16 -46 -29 -95t-29 -95q-8 -16 -20 -16q-8 0 -23 9t-15 17z" />
<glyph unicode="s" horiz-adv-x="738" d="M0 268q0 12 1 31t4 37t11 32t24 14q10 0 21 -8t11 -20q0 -46 11 -102t35 -104t64 -81t98 -33q52 0 100 23t85 61t58 87t21 101v20q0 34 -23 56t-57 37t-74 29t-74 33t-57 47t-23 74q0 48 21 92t55 78q118 114 271 165t315 51q12 0 18 -9t6 -19q0 -26 -24 -30 q-10 -4 -19 -3t-19 -1q-24 -2 -47 -6t-47 -8q-108 -22 -211 -71t-179 -129q-22 -24 -35 -51t-13 -61q0 -22 24 -34t59 -24t76 -26t76 -40t59 -67t24 -105q0 -74 -28 -142t-78 -121t-116 -84t-140 -31q-70 0 -123 30t-89 78t-54 109t-18 125z" />
<glyph unicode="t" horiz-adv-x="662" d="M-82 748q0 4 12 21t16 17q74 0 146 -16t146 -20q24 -2 49 -2h51h6q22 68 54 148t72 158t85 151t93 127q12 8 20 8q12 0 24 -9t12 -21q0 -4 -1 -6t-1 -4q-62 -138 -128 -273t-118 -279q22 0 42 1t42 1q10 0 23 1t24 -2t19 -10t8 -23q0 -20 -16 -26q-14 -4 -37 -9t-48 -9 t-48 -7t-39 -5q-18 -52 -34 -115t-28 -130t-20 -132t-8 -119q0 -14 1 -43t6 -57t16 -50t31 -22q28 0 64 28t71 65t66 74t51 57q8 8 18 8q12 0 23 -10t11 -22q0 -6 -6 -14q-22 -32 -57 -79t-76 -90t-86 -73t-87 -30q-46 0 -74 32t-43 77t-20 94t-5 83q0 48 7 108t17 122 t24 121t26 107q-16 0 -31 -1t-31 -1q-42 0 -86 2t-86 9t-82 24t-72 47q-8 6 -8 18z" />
<glyph unicode="u" horiz-adv-x="976" d="M82 178q0 48 6 94q10 96 34 185t58 177q26 62 54 123t56 121q10 20 20 45t22 41q10 14 24 14q10 0 22 -10t12 -20q0 -14 -5 -39t-12 -52t-14 -52t-13 -39q-22 -72 -51 -143t-54 -144t-42 -147t-17 -150q0 -22 2 -51t10 -56t25 -46t47 -19q40 0 91 27t102 64t97 77t74 66 q18 86 49 193t73 215t92 205t108 163q10 10 20 10q12 0 24 -10t12 -24q-2 -2 -2 -4q-38 -106 -91 -229t-101 -250t-82 -253t-34 -240q0 -8 1 -16t9 -12q46 8 97 46t96 81t79 77t44 34q12 0 23 -10t11 -22q0 -8 -8 -16q-40 -46 -76 -90t-77 -82t-90 -66t-111 -42 q-92 42 -92 142q0 22 4 45t2 47q-28 -30 -69 -67t-88 -71t-95 -57t-90 -23q-56 0 -92 23t-57 60t-29 84t-8 93z" />
<glyph unicode="v" horiz-adv-x="762" d="M40 -112q0 16 4 34t8 34q20 108 51 211t55 211q22 98 42 196t34 198q4 32 8 65t8 67q2 14 1 28t3 28q2 10 11 16t19 6t19 -6t11 -16q4 -24 3 -51t-1 -51q0 -156 -24 -305t-58 -299q40 52 85 102t91 98t108 109t128 131t131 145t116 152t82 152t31 145q0 82 -48 146 q-34 46 -84 76t-102 52q-10 4 -24 8t-24 10q-16 10 -16 24q0 10 9 22t21 12l4 -2q68 -18 131 -48t111 -74t76 -103t28 -137q0 -84 -35 -171t-87 -170t-114 -158t-116 -133q-86 -94 -173 -183t-171 -185q-60 -70 -116 -141t-108 -147q-18 -28 -35 -57t-35 -57q-8 -12 -20 -12 q-8 0 -23 10t-15 18z" />
<glyph unicode="w" horiz-adv-x="1316" d="M62 -58q0 56 9 114t22 118t27 118t24 114q20 94 39 186t41 186q10 44 19 89t23 87q6 16 24 16q8 0 22 -9t14 -17q0 -14 -3 -35t-6 -44t-7 -45t-6 -38q-12 -100 -28 -198l-32 -196q-14 -76 -26 -151t-34 -149q78 102 155 205t153 207q84 114 163 229t181 215q8 20 30 20 q10 0 19 -6t9 -16q2 0 2 1t2 1t3 -5t1 -9t-2 -8l-4 -8q2 -22 2 -45v-47q0 -142 -20 -280t-48 -278q40 52 83 101t89 95q44 46 105 106t125 128t126 141t112 148t80 149t30 140q0 82 -46 142q-32 40 -77 68t-91 50q-16 6 -31 11t-27 11q-18 8 -18 26q0 10 10 21t20 11h4 q66 -18 128 -47t109 -72t75 -101t28 -134q0 -54 -16 -108q-36 -122 -111 -235t-167 -220t-190 -206t-182 -193q-80 -90 -152 -184t-134 -198l-12 -20t-20 -10q-8 0 -22 10t-14 18q0 30 9 70t15 68q18 84 42 166t40 166q22 100 40 198t30 200q-56 -90 -120 -173t-128 -167 q-78 -102 -159 -202t-167 -196q-30 -34 -60 -66t-62 -64q-6 -6 -16 -6t-28 13t-18 23z" />
<glyph unicode="x" horiz-adv-x="764" d="M-1116 -420q0 14 9 23t19 9q18 0 24 -16q10 -20 18 -40t18 -40q34 -70 80 -133t106 -97q46 -26 98 -26q58 0 112 26t100 64q104 88 191 195t163 227q78 120 149 245t143 249q42 70 87 138t93 132q-10 96 -20 193t-10 193q0 12 12 22t20 10q18 0 24 -18q22 -62 36 -145 t24 -151q104 116 225 199t261 115l4 2q12 0 21 -11t9 -25q0 -20 -18 -30q-14 -8 -28 -14t-26 -12q-128 -64 -234 -159t-196 -207q2 -22 7 -56t11 -74t14 -83t18 -85q22 -86 55 -147t81 -61q10 0 21 4t21 8q40 20 75 50t67 66q34 34 63 73t61 75q8 8 16 8q10 0 20 -11t10 -25 q0 -4 -4 -16q-26 -42 -66 -99t-88 -108t-99 -86t-99 -35q-40 0 -76 19t-60 55q-28 40 -49 92t-36 108t-26 112t-19 108q-102 -142 -188 -293t-178 -297q-92 -150 -196 -286t-242 -244q-54 -42 -118 -70t-130 -28q-72 0 -130 35t-105 92t-82 128t-61 141q-2 4 -2 12z" />
<glyph unicode="y" horiz-adv-x="886" d="M-512 -579q0 12 9 18q11 7 23 7q8 0 14 -6t10 -12q14 -22 25 -47t27 -47q30 -42 69 -81t86 -68t99 -46t106 -17q82 0 152 40q100 60 166 166t114 234q46 124 79 253t67 241q-24 -22 -58 -48t-70 -49t-73 -39t-67 -16q-58 0 -105 38t-59 102q-10 40 -12 74q-1 19 -1 39 q0 44 6 92q9 69 26 138t39 134t46 119q50 116 108 228q12 22 22 46t24 46q8 12 24 12q10 0 22 -11t14 -23l-6 -30q-18 -84 -47 -164t-61 -156q-22 -54 -45 -113t-40 -119t-27 -121q-7 -44 -7 -87q0 -17 1 -34q2 -18 5 -38t11 -37t20 -28t32 -11q34 0 80 23t92 54t87 65 t67 58q52 144 112 281t130 269q28 52 56 107t60 105q8 14 24 14q14 0 23 -11t11 -25q0 -8 -2 -12q-76 -204 -162 -399t-162 -399q-38 -98 -67 -196t-57 -200q-6 -22 -13 -41t-15 -41q-24 -74 -50 -145t-60 -139t-78 -129t-100 -106t-122 -72t-144 -27q-82 0 -153 29t-131 78 t-107 116t-83 145q-4 9 -4 19z" />
<glyph unicode="z" horiz-adv-x="754" d="M-142 -144q-1 4 -1 8q0 12 11 18q116 162 246 315t268 297q82 84 162 167t168 161q-44 -10 -94 -17t-96 -9q-23 -1 -48 -1h-26q-40 1 -81 7t-80 18t-69 32q-12 8 -12 16q-2 10 6 24t20 14h4q90 -20 181 -20h17q34 4 65 7t63 7q58 8 113 22t113 18q10 2 32 2t32 -6 q2 6 12 6q12 0 24 -9t14 -23q2 -6 -2 -16q-42 -66 -98 -128t-116 -122t-122 -117t-118 -113q-114 -114 -221 -230t-215 -236q84 30 178 36q17 1 34 1q55 0 105 -10q65 -13 127 -34t124 -49t130 -54q116 -46 234 -88t240 -62q30 -4 56 -5q8 0 16 1q12 0 20 2q70 8 125 44 t83 100q8 18 12 36t10 34q4 16 20 16q12 0 23 -8t15 -22q-24 -130 -97 -205t-211 -83q-16 -1 -33 -1q-54 0 -111 10q-74 13 -148 35t-146 49t-138 53q-96 38 -193 78t-199 50q-32 4 -62 5t-60 -1q-14 -2 -26 -2t-26 -2q-38 -4 -75 -11t-73 -17q-16 -4 -35 -11t-33 -9 q-12 0 -24 10t-14 22z" />
<glyph unicode="{" horiz-adv-x="502" d="M122 64q0 104 40 200t88 186q8 14 21 39t26 52t23 52t14 41v6q0 26 -22 58t-44 46q-8 4 -11 5t-7 9q-6 8 -6 20q0 6 3 12t11 8l-2 4q0 6 11 7t15 1q20 8 44 18t47 24t41 31t28 37q10 26 15 55t9 57q6 30 14 80t20 102t25 99t27 69t35 43t47 37t54 26t54 10q16 0 32 -4 t16 -26q0 -8 -5 -18t-13 -14q-38 -20 -71 -49t-57 -65q-8 -14 -16 -41t-12 -43q-8 -26 -14 -51t-12 -51q-16 -64 -27 -131t-43 -125q-22 -40 -63 -67t-83 -43q70 -50 70 -136q0 -24 -12 -55t-28 -63t-35 -63t-31 -53q-30 -54 -59 -108t-51 -114q-10 -24 -19 -55t-9 -57 t11 -31t33 -5q8 0 14 -12t6 -18q0 -10 -5 -18t-15 -12h2q-6 -2 -20 -2q-40 0 -72 28t-32 68z" />
<glyph unicode="|" horiz-adv-x="552" d="M82 10v4q28 64 55 126t55 126q54 132 105 264t97 270q36 112 65 226t61 228q16 56 33 114t41 112q6 16 26 16q10 0 22 -9t12 -19q0 -76 -16 -168t-40 -186t-53 -184t-55 -164q-50 -144 -109 -282t-129 -276q-26 -52 -55 -112t-59 -106q-10 -12 -22 -12t-23 9t-11 23z" />
<glyph unicode="}" horiz-adv-x="568" d="M40 -12q0 10 6 19t14 11q10 4 19 5t19 5q46 18 70 66t40 92q20 64 27 130t17 132q4 30 6 59t6 59q12 84 67 140t131 80q-70 40 -70 116q0 34 27 97t58 133t58 135t27 105q0 26 -9 40t-20 23t-20 18t-9 27q0 28 32 28q64 0 99 -48t35 -106q0 -28 -10 -57t-23 -59t-28 -59 t-25 -55q-10 -24 -28 -55t-34 -64t-28 -64t-12 -55q0 -30 17 -43t36 -21t36 -14t17 -20q0 -4 -4 -16q2 -2 2 -8q0 -16 -12 -24q-52 -30 -89 -52t-81 -66q-12 -12 -21 -36t-15 -51t-10 -54t-6 -45q-10 -72 -22 -142t-40 -138q-14 -34 -33 -70t-46 -64t-60 -46t-75 -18 q-16 0 -26 7t-10 23z" />
<glyph unicode="~" horiz-adv-x="1400" d="M226 792q0 6 4 14q30 42 73 74t93 54t102 33t104 11q64 0 117 -15t111 -45q40 -22 79 -42t79 -42q54 -30 114 -57t124 -27q62 0 112 22t98 56q8 4 14 4q12 0 22 -11t10 -23q0 -8 -8 -16q-46 -52 -124 -83t-148 -31q-82 0 -155 31t-144 69t-144 69t-153 31q-92 0 -174 -33 t-162 -75q-4 -2 -12 -2q-12 0 -22 12t-10 22z" />
<glyph unicode="&#xa1;" horiz-adv-x="472" d="M226 -10q0 40 3 79t7 77q14 134 35 266t43 264q16 96 28 192l24 192q2 16 5 42t7 53t8 51t8 38q8 22 34 22q22 0 28 -20q10 -38 13 -81t3 -83q0 -108 -19 -213t-39 -211q-22 -114 -45 -228t-45 -228q-8 -38 -15 -75t-13 -77q-4 -16 -6 -33t-6 -33q-4 -18 -26 -18 q-10 0 -21 7t-11 17zM402 1454q0 16 12 28v2q-2 6 -2 16q14 10 19 22t27 12q18 0 36 -16t18 -36q0 -34 -6 -56t-48 -22q-20 0 -38 14t-18 36zM444 1502q2 0 2 2l-2 4v-6z" />
<glyph unicode="&#xa2;" horiz-adv-x="662" d="M164 410q0 96 26 191t74 179t117 153t157 111q10 34 20 70t20 70q4 16 8 31t10 31t24 16q8 0 19 -8t11 -18t-4 -32t-10 -47t-12 -48t-8 -35q24 8 50 13t50 5q12 0 20 -11t8 -21q0 -18 -16 -28q-10 -4 -19 -8t-19 -8q-56 -26 -100 -54q-28 -102 -57 -203t-57 -203 q-24 -84 -45 -168t-41 -170q32 6 63 26t58 47t51 56t42 53q10 12 18 25t18 23q6 10 18 10t23 -9t11 -21q0 -4 -8 -19t-18 -31t-20 -31l-14 -21q-48 -74 -109 -130t-153 -66q-8 -28 -15 -70t-17 -66q-10 -20 -28 -20q-14 0 -20 7t-8 17t-2 21v21q0 56 6 110q-70 42 -96 113 t-26 147zM264 410q0 -40 8 -82t32 -74q16 84 40 164t50 162q22 76 46 151t48 151q-100 -92 -162 -214t-62 -258z" />
<glyph unicode="&#xa3;" horiz-adv-x="932" d="M0 142q0 16 15 24t29 12q70 96 123 204t101 218q-10 -2 -17 -2h-15q-16 0 -35 2t-36 9t-29 19t-12 30q0 20 24 31t55 15t62 4h45h6q26 56 64 137t89 154t114 125t137 52q84 0 132 -55t48 -137q0 -12 -4 -32t-12 -40t-19 -35t-25 -15t-23 13t-9 25q0 10 4 23t4 27 q0 38 -23 78t-65 40q-8 0 -15 -2t-13 -4q-46 -16 -87 -58t-76 -93t-64 -105t-49 -96q34 -2 65 -3t63 -3q6 -6 13 -15t7 -19q0 -18 -16 -26q-16 -6 -40 -11t-49 -9t-48 -7t-41 -5q-52 -106 -106 -209t-124 -197q18 2 36 3t36 1q56 0 113 -7t113 -16t112 -16t114 -7 q76 0 147 18t133 68q2 0 4 1t4 1q10 0 22 -11t12 -23q0 -10 -6 -16q-34 -40 -77 -65t-93 -41t-102 -22t-100 -6q-40 0 -78 4t-78 8q-100 14 -198 19t-200 5q-12 -16 -24 -16t-24 13t-8 27q-6 6 -6 14z" />
<glyph unicode="&#xa4;" horiz-adv-x="862" d="M164 1100q0 12 11 24t23 12t50 -43t83 -97t83 -104t50 -66q10 6 31 19t45 26t46 22t32 9q12 0 21 -12t9 -22q0 -14 -16 -24q-18 -10 -38 -19t-40 -21q-76 -50 -136 -123t-88 -159q-10 -30 -10 -60q0 -28 9 -56t26 -51t42 -38t57 -15q22 0 39 8t37 18q84 48 133 123 t77 165q12 38 21 79t9 81t-20 60t-45 32t-45 21t-20 27q0 10 8 22t18 12q14 0 28 -2t28 -6q24 34 49 69t49 71l20 32t22 30q6 10 18 10t24 -10t12 -22q0 -6 -16 -36t-37 -66t-40 -69t-25 -41q46 -30 61 -73t15 -95q0 -40 -8 -82t-23 -84t-34 -82t-39 -72q8 -10 33 -42 t52 -68t48 -66t21 -36q0 -14 -12 -25t-24 -11h-6q-22 10 -47 29t-49 42t-46 46t-38 41q-52 -52 -116 -89t-138 -37q-54 0 -96 20q-30 -46 -61 -97t-65 -95q-6 -10 -20 -10q-10 0 -23 9t-13 19q0 4 3 15t3 15q16 58 41 114t55 108q-44 72 -44 152q0 42 14 85t38 84t53 78 t59 65q-38 56 -75 111t-75 109q-16 24 -40 54t-36 52z" />
<glyph unicode="&#xa5;" horiz-adv-x="948" d="M122 242q0 60 22 119t58 111t84 95t100 67q4 2 10 2q8 0 12 -2v6q0 54 14 128t37 150t51 147t52 119q-16 -6 -29 -13t-27 -15q-40 -24 -80 -55t-60 -75q-4 -10 -5 -17t-5 -15q-6 -16 -24 -16q-16 0 -26 10t-10 26q0 74 49 132t107 96q48 32 97 58t107 34q6 6 16 6 q12 0 24 -9t12 -23q0 -8 -17 -59t-39 -112t-42 -117t-26 -74q-36 -94 -60 -196q-6 -30 -11 -61t-5 -61q0 -16 3 -41t25 -25q10 0 19 4t19 8q48 24 90 67t76 85q4 6 11 15t11 15q14 30 24 62t22 62q44 104 106 204t146 172q12 8 18 8q12 0 23 -10t11 -24q0 -8 -6 -14 q-60 -90 -105 -177t-81 -175t-66 -181t-58 -195q72 0 148 -6q6 -6 13 -16t7 -18q0 -18 -16 -26q-16 -6 -39 -11t-47 -9t-47 -7t-41 -5h22q72 0 148 -6q6 -6 13 -15t7 -19q0 -18 -16 -26q-18 -6 -46 -12t-58 -11t-58 -8t-48 -5q-22 -60 -52 -112t-71 -89t-95 -59t-122 -22 q-54 0 -104 15t-88 45t-61 74t-23 102zM206 260q0 -86 53 -122t131 -36q94 0 147 49t87 127q-14 0 -33 3t-35 9t-28 18t-12 30q0 22 23 31t39 13q-22 6 -42 16t-20 38q0 14 10 23t26 13h-20q-58 0 -84 31t-34 77q-16 -10 -31 -20t-31 -22q-28 -24 -55 -57t-47 -69t-32 -75 t-12 -77zM580 480q30 6 61 6h45l22 82q-24 -24 -58 -50t-70 -38z" />
<glyph unicode="&#xa6;" horiz-adv-x="514" d="M82 8q0 4 12 37t30 80t40 101t42 104t36 88t22 52q4 10 16 32t27 45t31 40t28 17q6 0 22 -12t16 -18q0 -34 -13 -75t-25 -73q-16 -34 -32 -66t-32 -66q-36 -76 -77 -157t-89 -151q-6 -10 -18 -10q-4 0 -20 13t-16 19zM450 880q0 22 6 49t10 49q10 58 22 117t24 117 q8 34 13 68t13 68q2 12 10 36t18 49t23 44t27 19q8 0 22 -8t16 -14q4 -10 4 -23v-23q0 -44 -17 -123t-40 -163t-49 -161t-44 -115q-8 -14 -20 -14q-6 0 -22 12t-16 16z" />
<glyph unicode="&#xa7;" horiz-adv-x="830" d="M-20 234q0 54 24 120t60 108q10 10 20 10q12 0 22 -10t10 -22q0 -4 -10 -22t-22 -45t-22 -60t-10 -67q0 -50 22 -90t57 -67t80 -42t91 -15q76 0 135 30t107 86q22 28 41 58t19 68q0 28 -12 49t-32 41q-46 46 -97 86t-103 80q-46 34 -72 83t-26 107q0 30 12 65t34 57 q10 8 19 14t19 12q60 34 121 46t129 12h112q24 0 48 1t48 5q-34 44 -87 83t-104 81t-88 90t-37 112q0 32 12 64t33 58t49 45t60 27q58 14 115 17t115 3q54 2 105 7t105 13h4q14 0 23 -11t9 -25t-14 -22q-20 -14 -49 -24t-60 -17t-62 -12t-55 -7q-52 -6 -104 -9t-102 -19 q-34 -10 -55 -32t-21 -60q0 -34 25 -64t61 -60t80 -62t80 -69t61 -80t25 -95q0 -58 -28 -111t-68 -93q-62 -64 -143 -96t-169 -28q30 -24 63 -52t60 -60t45 -69t18 -81q0 -52 -27 -101t-61 -89q-58 -66 -137 -104t-167 -38q-62 0 -122 20t-107 58t-76 92t-29 122zM370 712 q0 -24 13 -45t29 -37q48 -20 110 -20q70 0 134 29t110 81q24 28 46 64t20 76v8q-58 -22 -119 -30t-121 -12q-26 -4 -64 -8t-73 -15t-60 -33t-25 -58z" />
<glyph unicode="&#xa8;" d="M1050 1292q0 34 6 56t48 22q20 0 38 -14t18 -36q0 -12 -10 -28h-2v-2q2 -6 2 -16q-12 -10 -18 -22t-28 -12q-18 0 -36 16t-18 36zM1224 1292q0 34 7 56t49 22q18 0 37 -14t19 -36q0 -8 -4 -14t-8 -14l-2 -2q4 -12 4 -16q-14 -10 -19 -22t-27 -12q-20 0 -38 16t-18 36z " />
<glyph unicode="&#xa9;" horiz-adv-x="1152" d="M144 542q0 120 39 231t108 205t163 166t202 118q4 2 12 2q24 16 67 21t61 5q90 0 170 -40t139 -106t94 -150t35 -170q0 -136 -41 -264t-120 -228t-194 -161t-263 -61q-116 0 -224 42q-58 24 -104 64t-78 92t-49 112t-17 122zM232 558q2 -172 107 -260t271 -88 q128 0 224 52t160 137t97 195t33 226q0 74 -29 145t-79 126t-117 89t-143 34q-18 0 -36 -4t-36 -2h-2l-4 -2q-34 -22 -69 -39t-69 -43q-66 -48 -122 -110t-98 -134t-65 -152t-23 -164v-6zM436 532q0 64 16 132q14 66 44 129t73 117t97 96t120 66q22 10 50 16t54 6 q10 0 18 -10t8 -20q0 -18 -16 -24q-24 -12 -48 -22t-48 -24q-96 -58 -168 -149t-100 -201q-14 -50 -14 -112q0 -16 3 -43t12 -52t24 -43t39 -18q38 0 70 20t59 50t50 63t45 57q10 10 20 10t20 -9t10 -19q0 -6 -4 -14q-26 -40 -53 -82t-61 -76t-76 -55t-96 -21h-10 q-76 32 -107 94t-31 138z" />
<glyph unicode="&#xaa;" horiz-adv-x="454" d="M204 834q0 60 31 118t69 104q46 58 114 104t138 68l4 2q8 0 19 -14t11 -22q0 -14 -12 -20l-14 -8q10 -4 19 -13t9 -15q0 -12 -4 -33t-9 -43t-11 -42t-10 -34q-4 -10 -8 -22l-8 -24q-4 -18 -6 -37t-6 -39v2q22 22 41 44t39 44q4 4 10 4q12 0 25 -10t13 -24 q-10 -24 -26 -57t-37 -63t-47 -51t-56 -21q-20 0 -44 15t-24 37q-60 -42 -142 -52q-34 14 -56 38t-22 64zM298 832q44 12 78 51t61 87t48 95t39 75q-44 -28 -80 -59t-70 -79q-22 -34 -45 -77t-23 -83q0 -6 -8 -10z" />
<glyph unicode="&#xab;" horiz-adv-x="618" d="M144 670v19t2 19q52 90 132 161t178 109h4q16 0 25 -15t9 -29q-28 -40 -62 -73t-68 -63t-66 -60t-54 -64q4 -34 33 -77t67 -87t76 -84t62 -66q4 -4 4 -8q0 -12 -11 -25t-25 -13q-6 0 -34 21t-60 48t-60 52t-34 33q-16 22 -36 40t-36 40q-46 56 -46 122zM390 656 q0 10 1 18t3 18q52 90 132 162t176 108h4q16 0 25 -15t9 -29q-26 -40 -60 -72t-69 -62t-67 -61t-54 -65q4 -34 33 -77t67 -86t77 -84t63 -67l2 -6q0 -14 -11 -26t-23 -12q-6 0 -34 21t-60 48t-60 52t-34 33q-18 20 -37 38t-35 40q-22 28 -35 58t-13 66z" />
<glyph unicode="&#xac;" horiz-adv-x="1206" d="M204 780q0 8 5 17t15 13q18 6 44 10t54 5t55 2t47 1q52 0 102 -2t102 -2q110 -2 219 -5t219 -9q4 6 12 12t18 6h2q2 0 2 -1t2 -1q36 -26 53 -58t23 -69t6 -76v-77q0 -26 -2 -58t-5 -65t-8 -64t-11 -55q-6 -18 -24 -18q-6 0 -20 8t-16 14t-4 43t-4 82t-4 87t-4 56 q-4 42 -10 84t-10 84q-108 -10 -216 -15t-218 -7q-46 0 -90 -2t-88 -2q-22 0 -53 1t-64 5t-63 10t-48 16q-18 8 -18 30z" />
<glyph unicode="&#xad;" horiz-adv-x="1006" d="M204 786q0 8 5 17t13 13q16 6 43 10t56 5t57 2t46 1q52 0 102 -2t102 -2q84 0 169 -3t169 -7q28 0 72 -1t68 -5q22 -8 22 -30q0 -10 -6 -19t-16 -11q-12 -4 -30 -5t-38 -3t-39 -3t-31 -1q-86 -6 -171 -9t-169 -5q-46 0 -90 -2t-90 -2q-22 0 -53 1t-64 5t-62 10t-49 16 q-8 4 -12 13t-4 17z" />
<glyph unicode="&#xae;" horiz-adv-x="1194" d="M164 566q0 120 39 231t108 205t163 166t204 118q2 2 10 2q12 8 30 14t37 9t36 4t27 1q90 0 169 -41t138 -107t94 -150t35 -170q0 -136 -41 -264t-120 -228t-194 -161t-261 -61q-58 0 -115 10t-109 32q-60 24 -106 64t-78 92t-49 112t-17 122zM252 584q2 -46 10 -87 t24 -75q6 14 18 16q16 4 32 7t32 11q40 20 70 53t53 73t41 82t32 82q22 58 39 117t43 115q-26 -10 -46 -24q-34 -22 -69 -48t-53 -66q-4 -10 -5 -17t-5 -17q-8 -14 -24 -14q-8 0 -18 8t-12 16v-4v10q-2 34 10 64t32 56t46 48t52 38q16 10 41 25t51 28t52 23t44 10 q12 0 24 -11t12 -21q0 -2 -4 -11t-4 -13q30 20 67 35t75 15q46 0 83 -28t37 -78q0 -46 -27 -88t-67 -75t-87 -55t-87 -30q28 -34 44 -78q6 -18 14 -54t18 -74t22 -68t28 -36q6 -2 18 -2q18 0 38 7t38 14t32 14t18 7q10 0 16 -6q46 80 70 174t24 194q0 74 -29 145t-79 126 t-117 89t-143 34q-18 0 -36 -4t-34 -4h-4h-4q-34 -22 -69 -40t-69 -42q-66 -48 -122 -111t-98 -135t-65 -151t-23 -163v-6zM308 382q48 -74 131 -111t191 -37q116 0 206 43t154 117l-4 -2q-20 -10 -42 -17t-46 -7q-62 0 -91 45t-48 107t-39 124t-64 98q-22 -58 -52 -121 t-71 -116t-97 -88t-128 -35zM686 822q68 18 137 51t111 91q4 8 9 16t5 18q0 18 -15 24t-29 6q-42 0 -91 -27t-81 -51q-12 -32 -23 -63t-23 -65z" />
<glyph unicode="&#xaf;" d="M970 1348q0 20 24 31t55 15t61 4h44h86q78 0 156 -6q8 -6 14 -15t6 -19q0 -6 -4 -14t-12 -10q-52 -16 -109 -25t-113 -13q-24 -2 -48 -5t-50 -3q-14 0 -33 2t-36 9t-29 19t-12 30z" />
<glyph unicode="&#xb0;" horiz-adv-x="374" d="M266 1020v12q2 58 32 103t80 73q4 2 17 8t19 8q10 8 25 11t25 3q54 0 94 -42t40 -94q0 -64 -27 -116t-85 -80q-34 -18 -68 -18q-28 0 -55 9t-49 27t-35 42t-13 54zM356 1044q0 -54 52 -54q40 0 60 32t20 68q0 34 -15 49t-43 25q-30 -22 -52 -51t-22 -69z" />
<glyph unicode="&#xb1;" horiz-adv-x="1066" d="M104 132q0 8 5 17t15 13q16 6 42 10t55 5t57 2t46 1q52 0 102 -2t102 -2q86 0 170 -3t170 -7h33t38 -1t37 -2t30 -3q22 -8 22 -30q0 -10 -5 -19t-15 -11q-24 -6 -68 -8t-72 -4q-84 -6 -169 -9t-171 -5q-46 0 -90 -2t-88 -2q-22 0 -53 1t-64 5t-62 10t-49 16q-8 4 -13 13 t-5 17zM204 786q0 8 5 17t15 13q14 6 41 10t56 5t57 2t46 1q48 0 96 -1t96 -3q2 70 4 138t6 138q2 22 2 58t4 56q4 10 12 15t18 5t18 -5t12 -15q6 -22 7 -56t3 -58q4 -70 7 -138t7 -138q70 -2 139 -4t139 -6q22 -2 57 -2t55 -4q10 -4 16 -12t6 -18t-5 -19t-15 -11 q-22 -6 -57 -7t-57 -3q-70 -4 -138 -8t-138 -6q0 -42 2 -84t2 -84q0 -22 -1 -53t-5 -63t-10 -62t-16 -50q-4 -8 -13 -12t-17 -4t-17 4t-13 14q-6 16 -10 43t-6 56t-3 56t-1 45q0 48 2 96l4 96q-42 -2 -84 -3t-82 -1q-22 0 -54 1t-64 5t-62 10t-48 16q-18 8 -18 30z" />
<glyph unicode="&#xb2;" horiz-adv-x="710" d="M266 926l14 16v-8l10 12h-8q34 34 66 70t66 72q40 42 85 79t91 75q18 14 43 38t48 51t39 55t16 52q0 26 -22 34t-44 8q-38 0 -77 -16t-65 -44q-6 -8 -10 -16l-8 -16q-12 -12 -22 -12q-8 0 -21 10t-13 20q0 8 2 10q22 46 63 80t89 50q12 4 24 6t24 6q10 2 19 4t19 2 q26 0 50 -12t42 -32t28 -46t10 -52q0 -20 -4 -33t-14 -29q-36 -66 -73 -109t-77 -78t-82 -70t-86 -85q28 -10 60 -24l64 -28t64 -24t60 -10q44 0 67 20t37 20q12 0 23 -10t11 -22q0 -8 -2 -12q-22 -44 -71 -67t-97 -23q-38 0 -79 12t-78 27t-67 28t-46 13q-22 0 -39 -14 t-33 -30h-20l-6 -6z" />
<glyph unicode="&#xb3;" horiz-adv-x="628" d="M266 1040q0 10 14 21t22 11q10 0 20 -12q18 -24 37 -52t42 -50t51 -37t62 -15q42 0 80 20t67 53t46 74t17 81q0 34 -19 64t-59 30q-8 0 -15 -1t-15 -1h-20q-6 2 -15 18t-9 22q0 12 8 18q14 10 38 26t48 35t41 40t17 39v13t-10 5q-60 0 -106 -17t-88 -59q-2 -2 -4 -2 t-4 -2q-12 0 -25 11t-13 25v6q18 38 64 71t86 47q42 16 82 16q50 0 85 -30t35 -82q0 -82 -60 -142q36 -24 51 -63t15 -79q0 -60 -24 -118t-66 -105t-97 -76t-117 -29q-48 0 -89 19t-74 50t-58 71t-39 82z" />
<glyph unicode="&#xb4;" d="M1046 1236q0 2 1 4t1 4q36 44 80 83t90 73q32 22 70 22q20 0 35 -10t17 -32q-18 -44 -54 -68q-14 -10 -28 -17t-30 -17q-66 -44 -146 -80q-12 0 -24 13t-12 25z" />
<glyph unicode="&#xb5;" horiz-adv-x="728" d="M163 146q1 16 1 26q0 118 20 233t48 229q12 56 24 111t28 109q6 24 17 53t25 58t30 56t32 45q8 8 18 8q6 0 22 -12t16 -18q0 -10 -3 -21t-5 -21q-22 -102 -51 -198t-55 -194q-4 -14 -7 -27t-7 -29q8 -16 22 -40t31 -46t36 -38t41 -16q16 0 22 4q26 10 49 31t42 47t36 53 t29 51q28 50 44 107l32 114t37 111t57 100q6 10 18 10q8 0 23 -11t15 -19q0 -16 -4 -36t-8 -36q-18 -102 -46 -200t-80 -188q-20 -34 -46 -74t-58 -73t-70 -55t-82 -22q-60 0 -100 37t-64 87q-16 -58 -29 -117t-23 -119q0 -10 -2 -27t-4 -36t-4 -35t-2 -20q-4 -10 -14 -16 t-20 -6q-14 0 -21 12t-9 27t-1 31z" />
<glyph unicode="&#xb6;" horiz-adv-x="982" d="M266 1052q0 20 6 42q22 126 97 213t189 137q52 24 108 38t112 16q4 8 13 24t19 33t20 29t20 12t23 -10t13 -20q0 -2 -3 -13t-6 -24t-7 -25t-4 -14q48 -12 88 -40q14 30 32 68t38 66q8 12 22 12t25 -8t11 -24q0 -6 -11 -42t-28 -90t-37 -116t-38 -119t-32 -101t-18 -58 q54 24 104 52t100 60q8 4 14 4q12 0 21 -11t9 -23q0 -14 -38 -42t-86 -56t-93 -52t-61 -32q-48 -164 -89 -343t-41 -351q0 -28 2 -65t12 -71t31 -58t61 -24q34 0 78 19t85 43t71 43t36 19q14 0 23 -11t9 -21q0 -8 -8 -20q-24 -22 -62 -48t-81 -49t-85 -39t-74 -16 q-38 0 -70 16t-56 43t-38 61t-18 70q-4 38 -8 74t-4 74q0 152 32 305t70 301q-24 -10 -48 -17t-48 -11q-40 -146 -76 -296t-36 -302q0 -56 9 -107t25 -103v-4q0 -14 -11 -24t-23 -10t-22 14q-16 26 -26 64t-18 79t-11 81t-3 72q0 132 29 261t57 257q-12 -2 -23 -2h-21 q-22 0 -43 2t-43 6q-74 14 -120 71t-46 131zM368 1044q0 -34 17 -55t43 -33t56 -16t56 -4h23t21 2q30 114 63 227t79 223q-60 -16 -123 -45t-116 -72t-86 -100t-33 -127zM698 960q22 6 46 13t46 15q28 102 60 201t74 195q-42 16 -84 16q-34 -110 -71 -219t-71 -221z" />
<glyph unicode="&#xb7;" horiz-adv-x="356" d="M246 630q0 34 6 56t48 22q20 0 38 -14t18 -36q0 -16 -12 -28v-2q2 -6 2 -16q-14 -10 -19 -22t-27 -12q-18 0 -36 16t-18 36z" />
<glyph unicode="&#xb8;" d="M584 -132l2 12q10 38 29 94t45 92q4 6 15 11t19 5q6 0 15 -5t11 -13q2 -30 -3 -64t-9 -64q42 -4 85 -22t76 -48t50 -71t5 -89q-10 -38 -32 -68t-53 -52t-66 -39t-69 -27q-2 0 -12 -3l-20 -6t-18 -5l-10 -2q-10 0 -18 13t-4 23q4 14 16 20q20 8 50 22t59 31t52 39t29 46 q6 30 -12 56t-40 42q-28 20 -64 26t-76 2q-10 4 -27 20t-25 24z" />
<glyph unicode="&#xb9;" horiz-adv-x="300" d="M246 916q0 8 4 18t8 18q22 10 42 17t42 15q10 70 24 140t32 138q10 40 19 78t23 76h-10q-4 -2 -9 -1t-9 1q-4 6 -12 20t-8 20q16 24 37 41t33 35q10 12 21 16t27 4h16l36 -22q6 -12 6 -24q0 -16 -10 -32q-4 -64 -24 -122t-38 -118q-40 -126 -84 -252q10 -8 19 -20t9 -24 q0 -16 -15 -31t-29 -19q-16 -4 -32 -5t-32 -1q-8 0 -23 1t-29 5t-24 10t-10 18z" />
<glyph unicode="&#xba;" horiz-adv-x="374" d="M204 902q0 48 21 97t55 91t77 75t87 47l4 2q2 0 3 -1t3 -1q0 8 8 21t18 13q46 0 86 -30t48 -76q4 -14 4 -26v-24q0 -26 -4 -51t-10 -49q-22 -78 -58 -136t-102 -104q-42 -30 -90 -30q-38 0 -66 16t-47 41t-28 58t-9 67zM296 910q0 -12 3 -27t10 -30t17 -25t26 -10 q10 0 19 5t19 11q46 34 70 82t38 102q6 24 13 49t7 51q0 32 -14 44t-30 22q2 -2 2 -6q0 -14 -12 -20q-62 -38 -105 -90t-59 -124q-4 -20 -4 -34z" />
<glyph unicode="&#xbb;" horiz-adv-x="638" d="M122 930q0 12 11 26t25 14q2 -2 4 -2q96 -36 176 -108t132 -160q2 -10 3 -19t1 -19q0 -36 -13 -66t-35 -58q-16 -20 -35 -39t-37 -39q-6 -8 -34 -33t-60 -52t-60 -48t-34 -21q-14 0 -24 12t-10 26v4q0 2 1 2t1 2q24 26 63 66t77 83t67 86t33 77q-22 36 -54 66t-67 60 t-69 62t-60 70q0 2 -1 4t-1 4zM370 938q0 12 10 26t24 14h4q98 -38 178 -109t132 -161q2 -10 2 -19v-19q0 -66 -46 -122q-18 -22 -37 -40t-35 -40q-6 -8 -34 -33t-60 -52t-60 -48t-34 -21q-14 0 -25 13t-11 25q0 2 1 4t1 4q24 26 63 66t77 84t67 87t33 77q-22 34 -54 65 t-66 61t-68 62t-60 70q0 2 -1 3t-1 3z" />
<glyph unicode="&#xbc;" horiz-adv-x="1306" d="M102 -34q0 4 4 12q44 64 89 125t89 123q92 132 180 264t172 268q70 114 134 232t132 234q32 54 65 112t71 106q6 12 20 12t25 -10t11 -24q0 -2 -4 -13t-8 -24t-9 -24t-5 -13q-66 -172 -157 -329t-189 -313q-188 -296 -412 -574q-38 -46 -77 -94t-79 -94q-8 -8 -18 -8 q-12 0 -23 9t-11 23zM228 916q0 8 4 18t8 18q22 10 42 17t42 15q10 70 24 140t32 138q10 40 19 78t23 76h-10q-4 -2 -8 -1t-8 1q-4 6 -13 20t-9 20q16 24 37 41t33 35q10 12 21 16t27 4h16l36 -22q6 -12 6 -24q0 -16 -10 -32q-4 -64 -24 -122t-38 -118q-40 -126 -84 -252 q10 -8 19 -20t9 -24q0 -16 -15 -31t-29 -19t-31 -5t-33 -1q-8 0 -23 1t-29 5t-24 10t-10 18zM806 284q0 22 18 58t32 54q16 24 32 46l32 44q78 108 142 224h2q2 0 4 2q2 0 6 2q6 0 23 -12t17 -18q0 -2 -4 -17t-4 -19q-34 -112 -100 -218q-10 -16 -19 -31t-19 -31 q28 -2 55 -10t55 -14q22 76 55 145t97 117q2 0 4 1t4 1q12 0 26 -10t14 -24q0 -16 -11 -45t-25 -62t-29 -63t-21 -48q20 10 36 22t32 28q2 0 4 1t4 1q12 0 25 -11t13 -25q-22 -46 -63 -78t-89 -46q-10 -32 -22 -68t-26 -74t-28 -73t-28 -65q-8 -14 -20 -14q-6 0 -22 12 t-16 18q0 16 5 34t9 34q10 50 21 98t23 96q-46 12 -92 12q-28 0 -57 -4t-57 -4q-10 0 -24 12t-14 22z" />
<glyph unicode="&#xbd;" horiz-adv-x="1382" d="M204 -34q0 6 6 12q44 64 88 125t88 123q92 132 180 264t172 268q72 114 135 232t131 234q32 54 65 112t71 106q8 12 20 12q14 0 25 -10t11 -24q0 -2 -4 -13t-8 -24t-9 -24t-5 -13q-66 -172 -157 -329t-189 -313q-188 -296 -412 -574q-38 -46 -77 -94t-79 -94 q-6 -8 -18 -8t-23 9t-11 23zM234 916q0 8 4 18t8 18q22 10 42 17t42 15q10 70 24 140t32 138q10 40 18 78t22 76h-10q-4 -2 -8 -1t-8 1q-4 6 -12 20t-10 20q18 24 39 41t33 35q10 12 21 16t27 4h16l36 -22q4 -16 4 -24q0 -16 -10 -32q-4 -64 -23 -122t-37 -118 q-40 -126 -84 -252q10 -8 19 -20t9 -24q0 -16 -15 -31t-29 -19q-16 -4 -33 -5t-33 -1q-8 0 -22 1t-28 5t-24 10t-10 18zM794 54l14 16v-8l8 10h-6q34 36 66 71t66 71q40 44 85 80t91 74q18 14 43 38t48 51t39 55t16 54t-22 34t-44 8q-38 0 -77 -17t-65 -45q-6 -8 -10 -15 t-10 -15q-8 -12 -20 -12q-10 0 -23 10t-13 20q0 2 4 10q22 46 62 80t88 50q14 4 26 6l24 4q10 4 18 6t18 2q26 0 50 -13t42 -33t29 -46t11 -52q0 -18 -5 -32t-13 -30q-36 -66 -73 -109t-77 -78t-82 -69t-86 -84q28 -10 60 -24t64 -29t64 -25t60 -10q44 0 67 20t35 20t24 -9 t12 -23q0 -4 -4 -12q-22 -44 -71 -66t-95 -22q-38 0 -79 12t-79 27t-68 27t-46 12q-22 0 -38 -14l-32 -28l-22 -2l-4 -6z" />
<glyph unicode="&#xbe;" horiz-adv-x="1424" d="M266 1040q0 10 14 21t22 11q10 0 20 -12q18 -24 37 -52t42 -50t51 -37t62 -15q42 0 80 20t67 53t46 74t17 81q0 34 -19 64t-59 30q-8 0 -15 -1t-15 -1h-20q-6 2 -15 18t-9 22q0 12 8 18q14 10 38 26t48 35t41 40t17 39v13t-10 5q-60 0 -106 -17t-88 -59q-2 -2 -4 -2 t-4 -2q-12 0 -25 11t-13 25v6q18 38 64 71t86 47q42 16 82 16q50 0 85 -30t35 -82q0 -82 -60 -142q36 -24 51 -63t15 -79q0 -60 -24 -118t-66 -105t-97 -76t-117 -29q-48 0 -89 19t-74 50t-58 71t-39 82zM344 -34q0 4 4 12q44 64 88 125t88 123q92 132 181 264t173 268 q70 114 134 232t132 234q30 54 63 112t71 106q8 12 22 12t25 -10t11 -24q0 -2 -4 -13t-9 -24t-9 -24t-6 -13q-64 -172 -155 -329t-189 -313q-96 -150 -199 -293t-213 -281q-40 -46 -78 -94t-78 -94q-8 -8 -18 -8q-12 0 -23 9t-11 23zM924 284q0 10 6 26t13 32t16 30t15 24 q16 24 33 46t33 44q38 54 73 110t67 114h2q2 0 4 2q2 0 6 2q6 0 23 -12t17 -18q0 -2 -4 -17t-4 -19q-32 -112 -100 -218q-10 -16 -19 -31t-19 -31q30 -2 56 -10t54 -14q22 76 55 145t97 117q2 0 4 1t4 1q12 0 26 -10t14 -24q0 -16 -11 -45t-25 -62t-28 -63t-22 -48 q20 10 36 22t32 28q2 0 4 1t4 1q12 0 25 -11t13 -25q-20 -46 -61 -78t-91 -46q-10 -32 -22 -68t-26 -74t-28 -73t-28 -65q-8 -14 -20 -14q-6 0 -22 12t-16 18q0 16 5 34t9 34q10 50 21 98t23 96q-46 12 -92 12q-28 0 -56 -4t-56 -4q-10 0 -25 12t-15 22z" />
<glyph unicode="&#xbf;" horiz-adv-x="852" d="M20 284q0 88 45 156t112 121t144 95t143 82q28 16 57 36t53 42q40 40 78 98t38 116q0 40 -32 76t-66 48q2 -4 2 -12q0 -14 -10 -23t-22 -9q-20 0 -29 21t-9 37q0 28 19 45t47 17q36 0 70 -17t62 -44t46 -62t22 -69v-22q0 -38 -11 -77t-31 -76t-45 -69t-51 -58 q-52 -48 -117 -85t-132 -72t-129 -75t-108 -96q-46 -58 -46 -128q0 -108 65 -166t169 -58q80 0 158 33t140 88t99 129t37 158q0 18 -4 37t-4 37q0 28 32 28q18 0 26 -20q2 -8 5 -21t5 -28t3 -29t1 -22q0 -100 -44 -187t-115 -152t-162 -103t-187 -38q-70 0 -130 23t-103 64 t-67 100t-24 131zM624 1436q0 10 4 16l8 12l2 4q-2 4 -2 16q12 10 17 21t27 11q20 0 38 -15t18 -37q0 -34 -7 -55t-47 -21q-20 0 -39 14t-19 34zM666 1484l2 2q0 4 -2 6v-8z" />
<glyph unicode="&#xc0;" horiz-adv-x="1320" d="M-296 10q0 24 20 28q44 10 84 19t82 25q104 40 194 105t169 144t149 167t134 176q24 34 46 66t44 66q-78 -16 -136 -45t-122 -75q-4 -4 -14 -4t-21 11t-11 21t6 16q68 76 167 119t197 59q40 62 84 131t91 138t97 132t104 113q12 8 18 8h4q-2 30 -9 61t-22 56t-39 41 t-60 16q-48 0 -99 -18t-96 -39t-77 -38t-40 -17q-12 0 -21 11t-9 21q0 14 14 24q10 8 24 15t26 15q66 38 141 70t155 32q16 0 34 -5t32 -11q40 -18 67 -52t42 -75t21 -86t6 -85q0 -112 -12 -221t-30 -219q84 10 165 31t159 53q22 8 42 17t42 19h6q12 0 23 -11t11 -25 q0 -8 -6 -14q-42 -46 -96 -79t-116 -54t-126 -32t-124 -13q-34 -196 -70 -396t-36 -400q0 -58 7 -115t30 -102t66 -72t115 -27q12 0 23 2t23 2q14 0 22 -10t8 -24t-15 -23t-34 -13t-39 -6t-30 -2q-86 0 -141 35t-87 92t-45 128t-13 141q0 96 11 196t28 201t37 201t38 194 l-84 4t-84 2h-42t-42 -2q-34 -54 -71 -106t-75 -104q-70 -96 -150 -191t-171 -177t-195 -146t-224 -96q-34 -10 -73 -17t-75 -7q-12 0 -19 10t-7 20zM832 924q16 0 33 1t35 1q30 0 61 -2t61 -2h14q20 104 35 207t19 209q-26 -44 -66 -109t-79 -128t-71 -113t-42 -64z M966 1922q0 10 11 25t21 15q42 0 78 -26q14 -10 26 -21t26 -21q72 -50 130 -108q0 -2 1 -4t1 -4q0 -12 -11 -26t-23 -14t-42 14t-65 32t-65 36t-42 26q-16 10 -31 33t-15 43z" />
<glyph unicode="&#xc1;" horiz-adv-x="1320" d="M-296 10q0 24 20 28q44 10 84 19t82 25q104 40 194 105t169 144t149 167t134 176q24 34 46 66t44 66q-78 -16 -136 -45t-122 -75q-4 -4 -14 -4t-21 11t-11 21t6 16q68 76 167 119t197 59q40 62 84 131t91 138t97 132t104 113q12 8 18 8h4q-2 30 -9 61t-22 56t-39 41 t-60 16q-48 0 -99 -18t-96 -39t-77 -38t-40 -17q-12 0 -21 11t-9 21q0 14 14 24q10 8 24 15t26 15q66 38 141 70t155 32q16 0 34 -5t32 -11q40 -18 67 -52t42 -75t21 -86t6 -85q0 -112 -12 -221t-30 -219q84 10 165 31t159 53q22 8 42 17t42 19h6q12 0 23 -11t11 -25 q0 -8 -6 -14q-42 -46 -96 -79t-116 -54t-126 -32t-124 -13q-34 -196 -70 -396t-36 -400q0 -58 7 -115t30 -102t66 -72t115 -27q12 0 23 2t23 2q14 0 22 -10t8 -24t-15 -23t-34 -13t-39 -6t-30 -2q-86 0 -141 35t-87 92t-45 128t-13 141q0 96 11 196t28 201t37 201t38 194 l-84 4t-84 2h-42t-42 -2q-34 -54 -71 -106t-75 -104q-70 -96 -150 -191t-171 -177t-195 -146t-224 -96q-34 -10 -73 -17t-75 -7q-12 0 -19 10t-7 20zM832 924q16 0 33 1t35 1q30 0 61 -2t61 -2h14q20 104 35 207t19 209q-26 -44 -66 -109t-79 -128t-71 -113t-42 -64z M1230 1666q0 2 1 4t1 4q36 44 80 83t90 73q32 22 70 22q20 0 35 -10t17 -32q-18 -44 -54 -68q-14 -10 -28 -17t-30 -17q-66 -44 -146 -80q-12 0 -24 13t-12 25z" />
<glyph unicode="&#xc2;" horiz-adv-x="1320" d="M-296 10q0 24 20 28q44 10 84 19t82 25q104 40 194 105t169 144t149 167t134 176q24 34 46 66t44 66q-78 -16 -136 -45t-122 -75q-4 -4 -14 -4t-21 11t-11 21t6 16q68 76 167 119t197 59q40 62 84 131t91 138t97 132t104 113q12 8 18 8h4q-2 30 -9 61t-22 56t-39 41 t-60 16q-48 0 -99 -18t-96 -39t-77 -38t-40 -17q-12 0 -21 11t-9 21q0 14 14 24q10 8 24 15t26 15q66 38 141 70t155 32q16 0 34 -5t32 -11q40 -18 67 -52t42 -75t21 -86t6 -85q0 -112 -12 -221t-30 -219q84 10 165 31t159 53q22 8 42 17t42 19h6q12 0 23 -11t11 -25 q0 -8 -6 -14q-42 -46 -96 -79t-116 -54t-126 -32t-124 -13q-34 -196 -70 -396t-36 -400q0 -58 7 -115t30 -102t66 -72t115 -27q12 0 23 2t23 2q14 0 22 -10t8 -24t-15 -23t-34 -13t-39 -6t-30 -2q-86 0 -141 35t-87 92t-45 128t-13 141q0 96 11 196t28 201t37 201t38 194 l-84 4t-84 2h-42t-42 -2q-34 -54 -71 -106t-75 -104q-70 -96 -150 -191t-171 -177t-195 -146t-224 -96q-34 -10 -73 -17t-75 -7q-12 0 -19 10t-7 20zM832 924q16 0 33 1t35 1q30 0 61 -2t61 -2h14q20 104 35 207t19 209q-26 -44 -66 -109t-79 -128t-71 -113t-42 -64z M908 1780v2q0 2 1 2t1 2q10 22 43 54t74 61t81 50t64 21q30 0 46 -14q60 -42 115 -88t107 -96v-4q0 -2 2 -4q0 -12 -11 -26t-23 -14l-6 2l-138 84q-6 2 -20 12t-30 21t-29 19t-15 8q-16 -14 -45 -37t-62 -44t-66 -36t-53 -15q-10 0 -23 14t-13 26z" />
<glyph unicode="&#xc3;" horiz-adv-x="1320" d="M-296 10q0 24 20 28q44 10 84 19t82 25q104 40 194 105t169 144t149 167t134 176q24 34 46 66t44 66q-78 -16 -136 -45t-122 -75q-4 -4 -14 -4t-21 11t-11 21t6 16q68 76 167 119t197 59q40 62 84 131t91 138t97 132t104 113q12 8 18 8h4q-2 30 -9 61t-22 56t-39 41 t-60 16q-48 0 -99 -18t-96 -39t-77 -38t-40 -17q-12 0 -21 11t-9 21q0 14 14 24q10 8 24 15t26 15q66 38 141 70t155 32q16 0 34 -5t32 -11q40 -18 67 -52t42 -75t21 -86t6 -85q0 -112 -12 -221t-30 -219q84 10 165 31t159 53q22 8 42 17t42 19h6q12 0 23 -11t11 -25 q0 -8 -6 -14q-42 -46 -96 -79t-116 -54t-126 -32t-124 -13q-34 -196 -70 -396t-36 -400q0 -58 7 -115t30 -102t66 -72t115 -27q12 0 23 2t23 2q14 0 22 -10t8 -24t-15 -23t-34 -13t-39 -6t-30 -2q-86 0 -141 35t-87 92t-45 128t-13 141q0 96 11 196t28 201t37 201t38 194 l-84 4t-84 2h-42t-42 -2q-34 -54 -71 -106t-75 -104q-70 -96 -150 -191t-171 -177t-195 -146t-224 -96q-34 -10 -73 -17t-75 -7q-12 0 -19 10t-7 20zM832 924q16 0 33 1t35 1q30 0 61 -2t61 -2h14q20 104 35 207t19 209q-26 -44 -66 -109t-79 -128t-71 -113t-42 -64z M1010 1804q0 2 4 11t6 11q18 36 51 62t73 32q10 2 30 2q42 0 82 -15t77 -34t70 -34t61 -15q20 0 31 9t19 21l14 21t16 9q4 0 20 -12t16 -16t-2 -14t-6 -14q-16 -40 -50 -65t-76 -25q-34 0 -67 12t-66 25t-65 25t-66 12q-22 0 -44 -7t-41 -14t-32 -14t-17 -7q-12 0 -25 11 t-13 23z" />
<glyph unicode="&#xc4;" horiz-adv-x="1320" d="M-296 10q0 24 20 28q44 10 84 19t82 25q104 40 194 105t169 144t149 167t134 176q24 34 46 66t44 66q-78 -16 -136 -45t-122 -75q-4 -4 -14 -4t-21 11t-11 21t6 16q68 76 167 119t197 59q40 62 84 131t91 138t97 132t104 113q12 8 18 8h4q-2 30 -9 61t-22 56t-39 41 t-60 16q-48 0 -99 -18t-96 -39t-77 -38t-40 -17q-12 0 -21 11t-9 21q0 14 14 24q10 8 24 15t26 15q66 38 141 70t155 32q16 0 34 -5t32 -11q40 -18 67 -52t42 -75t21 -86t6 -85q0 -112 -12 -221t-30 -219q84 10 165 31t159 53q22 8 42 17t42 19h6q12 0 23 -11t11 -25 q0 -8 -6 -14q-42 -46 -96 -79t-116 -54t-126 -32t-124 -13q-34 -196 -70 -396t-36 -400q0 -58 7 -115t30 -102t66 -72t115 -27q12 0 23 2t23 2q14 0 22 -10t8 -24t-15 -23t-34 -13t-39 -6t-30 -2q-86 0 -141 35t-87 92t-45 128t-13 141q0 96 11 196t28 201t37 201t38 194 l-84 4t-84 2h-42t-42 -2q-34 -54 -71 -106t-75 -104q-70 -96 -150 -191t-171 -177t-195 -146t-224 -96q-34 -10 -73 -17t-75 -7q-12 0 -19 10t-7 20zM832 924q16 0 33 1t35 1q30 0 61 -2t61 -2h14q20 104 35 207t19 209q-26 -44 -66 -109t-79 -128t-71 -113t-42 -64z M1132 1742q0 34 6 56t48 22q20 0 38 -14t18 -36q0 -12 -10 -28h-2v-2q2 -6 2 -16q-12 -10 -18 -22t-28 -12q-18 0 -36 16t-18 36zM1306 1742q0 34 7 56t49 22q18 0 37 -14t19 -36q0 -8 -4 -14t-8 -14l-2 -2q4 -12 4 -16q-14 -10 -19 -22t-27 -12q-20 0 -38 16t-18 36z" />
<glyph unicode="&#xc5;" horiz-adv-x="1320" d="M-296 10q0 24 20 28q44 10 84 19t82 25q104 40 194 105t169 144t149 167t134 176q24 34 46 66t44 66q-78 -16 -136 -45t-122 -75q-4 -4 -14 -4t-21 11t-11 21t6 16q68 76 167 119t197 59q36 58 77 122t84 128t90 124t97 112q-28 16 -44 43t-14 61v10q2 58 32 103t78 73 q4 4 18 10t18 8q10 8 26 11t26 3q26 0 51 -12t43 -31t29 -44t11 -51q0 -64 -27 -115t-85 -79q-6 -4 -11 -6t-11 -4v-8q2 -112 -11 -221t-31 -219q84 10 165 31t159 53q22 8 42 17t42 19h6q12 0 23 -11t11 -25q0 -8 -6 -14q-42 -46 -96 -79t-116 -54t-126 -32t-124 -13 q-34 -196 -70 -396t-36 -400q0 -58 7 -115t30 -102t66 -72t115 -27q12 0 23 2t23 2q14 0 22 -10t8 -24t-15 -23t-34 -13t-39 -6t-30 -2q-86 0 -141 35t-87 92t-45 128t-13 141q0 96 11 196t28 201t37 201t38 194l-84 4t-84 2h-42t-42 -2q-34 -54 -71 -106t-75 -104 q-70 -96 -150 -191t-171 -177t-195 -146t-224 -96q-34 -10 -73 -17t-75 -7q-12 0 -19 10t-7 20zM832 924q16 0 33 1t35 1q30 0 61 -2t61 -2h14q20 104 35 207t19 209q-26 -44 -66 -109t-79 -128t-71 -113t-42 -64zM1070 1520q0 -52 52 -52q40 0 61 32t21 66t-15 50t-43 26 q-30 -22 -53 -52t-23 -70z" />
<glyph unicode="&#xc6;" horiz-adv-x="2030" d="M-296 0q0 24 20 30q40 10 77 17t77 21q96 36 181 93t160 129t142 152t127 160q-112 -34 -197 -96t-177 -128q-6 -6 -14 -6q-12 0 -23 11t-11 23q0 6 4 14q90 130 222 212t290 98q58 86 112 173t110 173q26 40 58 86t66 91t70 87t70 74q8 6 18 6h4q-2 30 -9 61t-22 56 t-39 41t-60 16q-48 0 -99 -17t-96 -38t-77 -38t-40 -17q-12 0 -21 10t-9 22t14 22t29 18t31 18q64 36 137 66t149 30q32 0 60 -14q42 -16 70 -49t44 -75t22 -87t6 -85v-22q62 42 134 69t148 44t154 24t152 11q180 8 342 35t328 101q2 2 10 2q12 0 22 -11t10 -23 q0 -10 -8 -18q-64 -64 -157 -103t-181 -55q-90 -16 -181 -21t-181 -9q-74 -4 -153 -9t-157 -20t-151 -42t-135 -73q-8 -138 -30 -271t-46 -265l36 -2q182 -2 346 36t326 118q4 2 10 2q14 0 22 -11t8 -23q0 -14 -12 -20q-24 -18 -52 -33t-56 -27q-148 -72 -308 -106t-322 -32 h-16q-24 -132 -43 -264t-25 -266l22 2q66 0 130 -10t128 -22t128 -22t130 -10q62 0 122 12q98 20 167 69t139 117q6 6 16 6t22 -10t12 -22q0 -8 -6 -14q-90 -126 -217 -190t-281 -64q-62 0 -122 8t-120 18t-121 17t-121 7h-28q2 -56 12 -105t34 -86t65 -59t105 -22 q12 0 23 2t21 2q16 0 24 -10t8 -24t-15 -23t-34 -13t-39 -6t-30 -2q-74 0 -126 28t-86 75t-51 107t-21 126q-34 -6 -62 -13t-54 -16t-52 -20t-58 -23q-2 0 -2 -1t-2 -1h-2q-14 0 -25 12t-11 24q0 8 8 16q48 54 118 86t140 44q4 138 27 273t49 269q-64 4 -129 12t-131 8h-42 t-42 -2q-70 -98 -152 -196t-175 -184t-200 -152t-227 -98q-34 -10 -74 -18t-76 -8q-12 0 -19 10t-7 20zM710 734q72 -2 144 -11t144 -15q20 106 39 210t35 212q-6 -10 -14 -22t-22 -12q-10 0 -22 8t-12 22q0 8 10 27t24 39t28 38t22 26q2 18 3 35t1 35q-22 -38 -56 -93 t-73 -116t-80 -123t-76 -115t-60 -92t-35 -53z" />
<glyph unicode="&#xc7;" horiz-adv-x="1162" d="M194 275q-18 133 0 271q6 48 16 96t22 96q38 148 126 287t211 246t270 172t301 65q36 0 86 -5t82 -17q20 -8 18 -30q-2 -12 -11 -22t-23 -10q-18 0 -36 2t-38 2q-148 0 -290 -56t-261 -152t-207 -224t-130 -272q-14 -46 -23 -94t-15 -94q-8 -54 -10 -110t6 -110t25 -104 t49 -92q12 -16 26 -31t30 -25q30 -18 76 -26t84 -8q108 0 216 46t188 128q22 22 38 43t34 45q10 14 26 14q12 0 21 -8t7 -22q0 -2 -4 -10q-42 -70 -101 -127t-128 -99t-145 -66t-154 -26q-2 -24 -5 -48t-7 -46q42 -4 85 -22t76 -48t50 -71t5 -89q-8 -36 -31 -66t-54 -53 t-66 -40t-69 -27q-2 0 -12 -3l-20 -6t-18 -5l-10 -2q-10 0 -17 13t-5 23q4 14 18 20q20 8 49 22t58 31t52 39t29 46q8 30 -11 56t-41 42q-28 20 -64 26t-74 2q-10 4 -27 20t-27 24l2 12q8 30 22 73t34 79q-36 4 -73 13t-61 23q-16 10 -32 26l-30 30q-90 100 -108 233z" />
<glyph unicode="&#xc8;" d="M-10 -58q0 10 6 16q58 64 141 95t167 41q58 134 112 269t104 273q-4 -2 -18 -8t-28 -13t-26 -12t-14 -5q-14 0 -26 13t-12 25v4q0 2 2 2q24 46 71 77t95 47q52 156 90 314t92 312q-76 -22 -145 -61t-121 -99q-16 -16 -26 -34t-24 -34q-6 -10 -20 -10q-10 0 -22 8t-12 22 q0 6 2 8q54 108 139 175t187 104t215 52t221 21q180 8 342 35t328 101q4 2 10 2q14 0 23 -11t9 -23t-6 -18q-64 -64 -157 -103t-181 -55q-86 -16 -172 -22t-172 -9t-172 -8t-170 -23q-10 -162 -51 -318t-93 -308q56 0 111 -8t111 -8q50 0 99 5t97 17q6 2 19 6l26 8t24 8 t13 4q10 0 22 -14t12 -22q0 -12 -10 -18q-76 -48 -172 -70t-184 -22q-34 0 -66 4t-66 4q-42 0 -76 -8q-52 -148 -116 -290t-136 -282q66 0 131 -10t129 -21t129 -21t131 -10q30 0 60 2t60 8q98 20 167 70t139 116q8 8 16 8q12 0 23 -11t11 -21q0 -6 -4 -14 q-90 -126 -218 -190t-282 -64q-62 0 -122 7t-120 16t-120 17t-122 8h-34t-34 -2l-15 -30t-25 -18q-14 0 -25 8t-11 22q0 6 4 10q-34 -6 -62 -13t-53 -16t-51 -20t-58 -23h-6q-14 0 -24 11t-10 25zM926 1862q0 10 11 25t21 15q42 0 78 -26q14 -10 26 -21t26 -21 q72 -50 130 -108q0 -2 1 -4t1 -4q0 -12 -11 -26t-23 -14t-42 14t-65 32t-65 36t-42 26q-16 10 -31 33t-15 43z" />
<glyph unicode="&#xc9;" d="M-10 -58q0 10 6 16q58 64 141 95t167 41q58 134 112 269t104 273q-4 -2 -18 -8t-28 -13t-26 -12t-14 -5q-14 0 -26 13t-12 25v4q0 2 2 2q24 46 71 77t95 47q52 156 90 314t92 312q-76 -22 -145 -61t-121 -99q-16 -16 -26 -34t-24 -34q-6 -10 -20 -10q-10 0 -22 8t-12 22 q0 6 2 8q54 108 139 175t187 104t215 52t221 21q180 8 342 35t328 101q4 2 10 2q14 0 23 -11t9 -23t-6 -18q-64 -64 -157 -103t-181 -55q-86 -16 -172 -22t-172 -9t-172 -8t-170 -23q-10 -162 -51 -318t-93 -308q56 0 111 -8t111 -8q50 0 99 5t97 17q6 2 19 6l26 8t24 8 t13 4q10 0 22 -14t12 -22q0 -12 -10 -18q-76 -48 -172 -70t-184 -22q-34 0 -66 4t-66 4q-42 0 -76 -8q-52 -148 -116 -290t-136 -282q66 0 131 -10t129 -21t129 -21t131 -10q30 0 60 2t60 8q98 20 167 70t139 116q8 8 16 8q12 0 23 -11t11 -21q0 -6 -4 -14 q-90 -126 -218 -190t-282 -64q-62 0 -122 7t-120 16t-120 17t-122 8h-34t-34 -2l-15 -30t-25 -18q-14 0 -25 8t-11 22q0 6 4 10q-34 -6 -62 -13t-53 -16t-51 -20t-58 -23h-6q-14 0 -24 11t-10 25zM1046 1708q0 2 1 4t1 4q36 44 80 83t90 73q32 22 70 22q20 0 35 -10t17 -32 q-18 -44 -54 -68q-14 -10 -28 -17t-30 -17q-66 -44 -146 -80q-12 0 -24 13t-12 25z" />
<glyph unicode="&#xca;" d="M-10 -58q0 10 6 16q58 64 141 95t167 41q58 134 112 269t104 273q-4 -2 -18 -8t-28 -13t-26 -12t-14 -5q-14 0 -26 13t-12 25v4q0 2 2 2q24 46 71 77t95 47q52 156 90 314t92 312q-76 -22 -145 -61t-121 -99q-16 -16 -26 -34t-24 -34q-6 -10 -20 -10q-10 0 -22 8t-12 22 q0 6 2 8q54 108 139 175t187 104t215 52t221 21q180 8 342 35t328 101q4 2 10 2q14 0 23 -11t9 -23t-6 -18q-64 -64 -157 -103t-181 -55q-86 -16 -172 -22t-172 -9t-172 -8t-170 -23q-10 -162 -51 -318t-93 -308q56 0 111 -8t111 -8q50 0 99 5t97 17q6 2 19 6l26 8t24 8 t13 4q10 0 22 -14t12 -22q0 -12 -10 -18q-76 -48 -172 -70t-184 -22q-34 0 -66 4t-66 4q-42 0 -76 -8q-52 -148 -116 -290t-136 -282q66 0 131 -10t129 -21t129 -21t131 -10q30 0 60 2t60 8q98 20 167 70t139 116q8 8 16 8q12 0 23 -11t11 -21q0 -6 -4 -14 q-90 -126 -218 -190t-282 -64q-62 0 -122 7t-120 16t-120 17t-122 8h-34t-34 -2l-15 -30t-25 -18q-14 0 -25 8t-11 22q0 6 4 10q-34 -6 -62 -13t-53 -16t-51 -20t-58 -23h-6q-14 0 -24 11t-10 25zM888 1740v2q0 2 1 2t1 2q10 22 43 54t74 61t81 50t64 21q30 0 46 -14 q60 -42 115 -88t107 -96v-4q0 -2 2 -4q0 -12 -11 -26t-23 -14l-6 2l-138 84q-6 2 -20 12t-30 21t-29 19t-15 8q-16 -14 -45 -37t-62 -44t-66 -36t-53 -15q-10 0 -23 14t-13 26z" />
<glyph unicode="&#xcb;" d="M-10 -58q0 10 6 16q58 64 141 95t167 41q58 134 112 269t104 273q-4 -2 -18 -8t-28 -13t-26 -12t-14 -5q-14 0 -26 13t-12 25v4q0 2 2 2q24 46 71 77t95 47q52 156 90 314t92 312q-76 -22 -145 -61t-121 -99q-16 -16 -26 -34t-24 -34q-6 -10 -20 -10q-10 0 -22 8t-12 22 q0 6 2 8q54 108 139 175t187 104t215 52t221 21q180 8 342 35t328 101q4 2 10 2q14 0 23 -11t9 -23t-6 -18q-64 -64 -157 -103t-181 -55q-86 -16 -172 -22t-172 -9t-172 -8t-170 -23q-10 -162 -51 -318t-93 -308q56 0 111 -8t111 -8q50 0 99 5t97 17q6 2 19 6l26 8t24 8 t13 4q10 0 22 -14t12 -22q0 -12 -10 -18q-76 -48 -172 -70t-184 -22q-34 0 -66 4t-66 4q-42 0 -76 -8q-52 -148 -116 -290t-136 -282q66 0 131 -10t129 -21t129 -21t131 -10q30 0 60 2t60 8q98 20 167 70t139 116q8 8 16 8q12 0 23 -11t11 -21q0 -6 -4 -14 q-90 -126 -218 -190t-282 -64q-62 0 -122 7t-120 16t-120 17t-122 8h-34t-34 -2l-15 -30t-25 -18q-14 0 -25 8t-11 22q0 6 4 10q-34 -6 -62 -13t-53 -16t-51 -20t-58 -23h-6q-14 0 -24 11t-10 25zM1070 1742q0 34 6 56t48 22q20 0 38 -14t18 -36q0 -12 -10 -28h-2v-2 q2 -6 2 -16q-12 -10 -18 -22t-28 -12q-18 0 -36 16t-18 36zM1244 1742q0 34 7 56t49 22q18 0 37 -14t19 -36q0 -8 -4 -14t-8 -14l-2 -2q4 -12 4 -16q-14 -10 -19 -22t-27 -12q-20 0 -38 16t-18 36z" />
<glyph unicode="&#xcc;" horiz-adv-x="1056" d="M-204 -128q0 8 4 16q44 54 104 91t128 60t139 33t137 10q18 0 36 -1t36 -1q76 176 147 354t133 362q52 156 90 313t90 313h-2q-106 0 -205 -27t-195 -69q-24 -10 -49 -22t-49 -22l-6 -2q-12 0 -24 12t-12 24q0 8 6 14q46 54 107 92t130 60t141 32t140 10q92 0 182 -6 t182 -6q50 0 100 3t100 11q14 4 27 6t25 6q10 4 18 7t18 3t21 -12t11 -22q0 -16 -12 -22q-62 -30 -135 -45t-149 -21t-151 -5t-143 1q-12 -156 -58 -334t-112 -356t-143 -347t-151 -307q60 -4 119 -6t117 -2q50 0 99 3t97 11q14 4 26 6t26 6q10 2 17 6t17 4t21 -13t11 -23 q0 -16 -12 -22q-64 -30 -139 -45t-153 -20t-155 -4t-147 1q-6 -6 -14 -6t-16 6h-32q-106 -2 -205 -29t-195 -67q-24 -10 -48 -23t-50 -23h-6q-12 0 -23 11t-11 23zM782 1882q0 10 11 25t21 15q42 0 78 -26q14 -10 26 -21t26 -21q72 -50 130 -108q0 -2 1 -4t1 -4 q0 -12 -11 -26t-23 -14t-42 14t-65 32t-65 36t-42 26q-16 10 -31 33t-15 43z" />
<glyph unicode="&#xcd;" horiz-adv-x="1056" d="M-204 -128q0 8 4 16q44 54 104 91t128 60t139 33t137 10q18 0 36 -1t36 -1q76 176 147 354t133 362q52 156 90 313t90 313h-2q-106 0 -205 -27t-195 -69q-24 -10 -49 -22t-49 -22l-6 -2q-12 0 -24 12t-12 24q0 8 6 14q46 54 107 92t130 60t141 32t140 10q92 0 182 -6 t182 -6q50 0 100 3t100 11q14 4 27 6t25 6q10 4 18 7t18 3t21 -12t11 -22q0 -16 -12 -22q-62 -30 -135 -45t-149 -21t-151 -5t-143 1q-12 -156 -58 -334t-112 -356t-143 -347t-151 -307q60 -4 119 -6t117 -2q50 0 99 3t97 11q14 4 26 6t26 6q10 2 17 6t17 4t21 -13t11 -23 q0 -16 -12 -22q-64 -30 -139 -45t-153 -20t-155 -4t-147 1q-6 -6 -14 -6t-16 6h-32q-106 -2 -205 -29t-195 -67q-24 -10 -48 -23t-50 -23h-6q-12 0 -23 11t-11 23zM884 1708q0 2 1 4t1 4q36 44 80 83t90 73q32 22 70 22q20 0 35 -10t17 -32q-18 -44 -54 -68q-14 -10 -28 -17 t-30 -17q-66 -44 -146 -80q-12 0 -24 13t-12 25z" />
<glyph unicode="&#xce;" horiz-adv-x="1056" d="M-204 -128q0 8 4 16q44 54 104 91t128 60t139 33t137 10q18 0 36 -1t36 -1q76 176 147 354t133 362q52 156 90 313t90 313h-2q-106 0 -205 -27t-195 -69q-24 -10 -49 -22t-49 -22l-6 -2q-12 0 -24 12t-12 24q0 8 6 14q46 54 107 92t130 60t141 32t140 10q92 0 182 -6 t182 -6q50 0 100 3t100 11q14 4 27 6t25 6q10 4 18 7t18 3t21 -12t11 -22q0 -16 -12 -22q-62 -30 -135 -45t-149 -21t-151 -5t-143 1q-12 -156 -58 -334t-112 -356t-143 -347t-151 -307q60 -4 119 -6t117 -2q50 0 99 3t97 11q14 4 26 6t26 6q10 2 17 6t17 4t21 -13t11 -23 q0 -16 -12 -22q-64 -30 -139 -45t-153 -20t-155 -4t-147 1q-6 -6 -14 -6t-16 6h-32q-106 -2 -205 -29t-195 -67q-24 -10 -48 -23t-50 -23h-6q-12 0 -23 11t-11 23zM682 1720v2q0 2 1 2t1 2q10 22 43 54t74 61t81 50t64 21q30 0 46 -14q60 -42 115 -88t107 -96v-4q0 -2 2 -4 q0 -12 -11 -26t-23 -14l-6 2l-138 84q-6 2 -20 12t-30 21t-29 19t-15 8q-16 -14 -45 -37t-62 -44t-66 -36t-53 -15q-10 0 -23 14t-13 26z" />
<glyph unicode="&#xcf;" horiz-adv-x="1056" d="M-204 -128q0 8 4 16q44 54 104 91t128 60t139 33t137 10q18 0 36 -1t36 -1q76 176 147 354t133 362q52 156 90 313t90 313h-2q-106 0 -205 -27t-195 -69q-24 -10 -49 -22t-49 -22l-6 -2q-12 0 -24 12t-12 24q0 8 6 14q46 54 107 92t130 60t141 32t140 10q92 0 182 -6 t182 -6q50 0 100 3t100 11q14 4 27 6t25 6q10 4 18 7t18 3t21 -12t11 -22q0 -16 -12 -22q-62 -30 -135 -45t-149 -21t-151 -5t-143 1q-12 -156 -58 -334t-112 -356t-143 -347t-151 -307q60 -4 119 -6t117 -2q50 0 99 3t97 11q14 4 26 6t26 6q10 2 17 6t17 4t21 -13t11 -23 q0 -16 -12 -22q-64 -30 -139 -45t-153 -20t-155 -4t-147 1q-6 -6 -14 -6t-16 6h-32q-106 -2 -205 -29t-195 -67q-24 -10 -48 -23t-50 -23h-6q-12 0 -23 11t-11 23zM806 1722q0 34 6 56t48 22q20 0 38 -14t18 -36q0 -12 -10 -28h-2v-2q2 -6 2 -16q-12 -10 -18 -22t-28 -12 q-18 0 -36 16t-18 36zM980 1722q0 34 7 56t49 22q18 0 37 -14t19 -36q0 -8 -4 -14t-8 -14l-2 -2q4 -12 4 -16q-14 -10 -19 -22t-27 -12q-20 0 -38 16t-18 36z" />
<glyph unicode="&#xd0;" horiz-adv-x="1706" d="M-20 -18q0 24 22 30q40 8 77 15t77 25q90 40 159 111t123 158t94 182t72 183q-16 -2 -33 -2h-33q-18 0 -41 2t-48 5t-48 9t-37 16q-6 4 -10 13t-4 17q0 6 5 16t11 14q30 12 75 15t79 3q30 0 61 -1t61 -3q46 140 89 283t113 275q-56 -32 -114 -59t-112 -61 q-80 -50 -158 -115t-118 -155q-10 -22 -14 -44t-10 -44q-2 -8 -10 -13t-16 -5q-18 0 -25 10t-7 26q0 80 34 150t91 130t129 112t149 95t152 78t137 61q4 2 7 4t9 2q12 0 23 -9t11 -23q0 -2 -9 -24t-19 -49t-21 -52t-13 -33q82 88 182 142t222 54h40q52 -8 102 -30t94 -55 t80 -74t60 -87q30 -60 44 -126t14 -132q0 -116 -35 -239t-98 -241t-149 -224t-190 -186t-222 -127t-242 -47q-122 0 -230 51t-196 133q-80 -84 -187 -137t-223 -53q-12 0 -19 10t-7 20zM456 188q76 -66 170 -109t196 -43q106 0 204 37t186 101t162 149t132 181t98 196 t60 196q4 28 7 53t3 53q0 76 -23 151t-67 134t-108 95t-148 36q-60 0 -116 -21t-106 -54t-94 -74t-80 -83q-16 -20 -41 -46t-37 -48q-4 -10 -10 -27t-12 -36t-12 -37l-10 -30q-28 -88 -60 -174q46 -2 90 -3t88 -5q26 -2 53 -2t51 -6q10 -2 16 -11t6 -17t-6 -18t-14 -12 q-24 -6 -52 -7t-54 -5q-104 -8 -214 -12l-4 -16q-50 -132 -109 -254t-145 -232z" />
<glyph unicode="&#xd1;" horiz-adv-x="1528" d="M-122 -28q0 24 22 28q40 10 77 17t77 23q94 42 165 116t127 164t97 188t75 188q30 80 57 162t54 163t58 161t71 156q-56 -34 -114 -61t-114 -61q-80 -48 -159 -114t-119 -156q-10 -22 -14 -43t-10 -43q-6 -20 -28 -20q-6 0 -19 8t-13 16q0 74 26 138t70 119t100 101 t114 82q94 58 193 112t203 90h4q16 0 29 -12t9 -28q58 -194 88 -390t54 -396q16 -136 32 -271t24 -273q74 182 135 365t131 365q52 132 112 257t144 237q44 56 99 105t118 86t133 58t142 21q10 0 18 -10t8 -20q0 -24 -24 -30q-44 -10 -82 -17t-82 -25q-100 -44 -175 -123 t-134 -175t-102 -200t-79 -200t-72 -211t-77 -230t-92 -221t-119 -184q-6 -6 -15 -8t-19 -2q-18 0 -24 16q-30 76 -45 167t-25 173q-30 260 -49 519t-67 515q-70 -176 -130 -352t-128 -352q-48 -124 -105 -242t-139 -224q-42 -54 -94 -100t-112 -80t-126 -53t-136 -19 q-10 0 -17 10t-7 20zM1052 1640q0 2 4 11t6 11q18 36 51 62t73 32q10 2 30 2q42 0 82 -15t77 -34t70 -34t61 -15q20 0 31 9t19 21l14 21t16 9q4 0 20 -12t16 -16t-2 -14t-6 -14q-16 -40 -50 -65t-76 -25q-34 0 -67 12t-66 25t-65 25t-66 12q-22 0 -44 -7t-41 -14t-32 -14 t-17 -7q-12 0 -25 11t-13 23z" />
<glyph unicode="&#xd2;" d="M184 312q0 102 22 198t59 188t86 178t103 170q36 52 71 106t75 106q12 12 24 12t21 -9t9 -21q0 -6 -4 -18q-64 -100 -131 -205t-122 -216t-90 -228t-35 -243v-39t4 -41q6 -52 30 -91t60 -67t82 -42t94 -14q70 0 141 31t136 78t122 104t99 109q64 80 124 171t107 189 t75 202t28 210q0 68 -18 129t-55 106t-92 71t-129 26q-88 0 -165 -30t-151 -74q-8 -4 -16 -4q-14 0 -23 9t-9 21t12 24q76 64 177 106t199 42q92 0 163 -34t119 -92t73 -135t25 -163q0 -120 -30 -232t-80 -216t-117 -202t-139 -188q-48 -60 -113 -122t-139 -114t-155 -85 t-161 -33q-66 0 -128 21t-112 59t-83 93t-39 125q-2 18 -3 37t-1 37zM1108 1882q0 10 11 25t21 15q42 0 78 -26q14 -10 26 -21t26 -21q72 -50 130 -108q0 -2 1 -4t1 -4q0 -12 -11 -26t-23 -14t-42 14t-65 32t-65 36t-42 26q-16 10 -31 33t-15 43z" />
<glyph unicode="&#xd3;" d="M184 312q0 102 22 198t59 188t86 178t103 170q36 52 71 106t75 106q12 12 24 12t21 -9t9 -21q0 -6 -4 -18q-64 -100 -131 -205t-122 -216t-90 -228t-35 -243v-39t4 -41q6 -52 30 -91t60 -67t82 -42t94 -14q70 0 141 31t136 78t122 104t99 109q64 80 124 171t107 189 t75 202t28 210q0 68 -18 129t-55 106t-92 71t-129 26q-88 0 -165 -30t-151 -74q-8 -4 -16 -4q-14 0 -23 9t-9 21t12 24q76 64 177 106t199 42q92 0 163 -34t119 -92t73 -135t25 -163q0 -120 -30 -232t-80 -216t-117 -202t-139 -188q-48 -60 -113 -122t-139 -114t-155 -85 t-161 -33q-66 0 -128 21t-112 59t-83 93t-39 125q-2 18 -3 37t-1 37zM1190 1708q0 2 1 4t1 4q36 44 80 83t90 73q32 22 70 22q20 0 35 -10t17 -32q-18 -44 -54 -68q-14 -10 -28 -17t-30 -17q-66 -44 -146 -80q-12 0 -24 13t-12 25z" />
<glyph unicode="&#xd4;" d="M184 312q0 102 22 198t59 188t86 178t103 170q36 52 71 106t75 106q12 12 24 12t21 -9t9 -21q0 -6 -4 -18q-64 -100 -131 -205t-122 -216t-90 -228t-35 -243v-39t4 -41q6 -52 30 -91t60 -67t82 -42t94 -14q70 0 141 31t136 78t122 104t99 109q64 80 124 171t107 189 t75 202t28 210q0 68 -18 129t-55 106t-92 71t-129 26q-88 0 -165 -30t-151 -74q-8 -4 -16 -4q-14 0 -23 9t-9 21t12 24q76 64 177 106t199 42q92 0 163 -34t119 -92t73 -135t25 -163q0 -120 -30 -232t-80 -216t-117 -202t-139 -188q-48 -60 -113 -122t-139 -114t-155 -85 t-161 -33q-66 0 -128 21t-112 59t-83 93t-39 125q-2 18 -3 37t-1 37zM1028 1740v2q0 2 1 2t1 2q10 22 43 54t74 61t81 50t64 21q30 0 46 -14q60 -42 115 -88t107 -96v-4q0 -2 2 -4q0 -12 -11 -26t-23 -14l-6 2l-138 84q-6 2 -20 12t-30 21t-29 19t-15 8q-16 -14 -45 -37 t-62 -44t-66 -36t-53 -15q-10 0 -23 14t-13 26z" />
<glyph unicode="&#xd5;" d="M184 312q0 102 22 198t59 188t86 178t103 170q36 52 71 106t75 106q12 12 24 12t21 -9t9 -21q0 -6 -4 -18q-64 -100 -131 -205t-122 -216t-90 -228t-35 -243v-39t4 -41q6 -52 30 -91t60 -67t82 -42t94 -14q70 0 141 31t136 78t122 104t99 109q64 80 124 171t107 189 t75 202t28 210q0 68 -18 129t-55 106t-92 71t-129 26q-88 0 -165 -30t-151 -74q-8 -4 -16 -4q-14 0 -23 9t-9 21t12 24q76 64 177 106t199 42q92 0 163 -34t119 -92t73 -135t25 -163q0 -120 -30 -232t-80 -216t-117 -202t-139 -188q-48 -60 -113 -122t-139 -114t-155 -85 t-161 -33q-66 0 -128 21t-112 59t-83 93t-39 125q-2 18 -3 37t-1 37zM1010 1784q0 2 4 11t6 11q18 36 51 62t73 32q10 2 30 2q42 0 82 -15t77 -34t70 -34t61 -15q20 0 31 9t19 21l14 21t16 9q4 0 20 -12t16 -16t-2 -14t-6 -14q-16 -40 -50 -65t-76 -25q-34 0 -67 12t-66 25 t-65 25t-66 12q-22 0 -44 -7t-41 -14t-32 -14t-17 -7q-12 0 -25 11t-13 23z" />
<glyph unicode="&#xd6;" d="M184 312q0 102 22 198t59 188t86 178t103 170q36 52 71 106t75 106q12 12 24 12t21 -9t9 -21q0 -6 -4 -18q-64 -100 -131 -205t-122 -216t-90 -228t-35 -243v-39t4 -41q6 -52 30 -91t60 -67t82 -42t94 -14q70 0 141 31t136 78t122 104t99 109q64 80 124 171t107 189 t75 202t28 210q0 68 -18 129t-55 106t-92 71t-129 26q-88 0 -165 -30t-151 -74q-8 -4 -16 -4q-14 0 -23 9t-9 21t12 24q76 64 177 106t199 42q92 0 163 -34t119 -92t73 -135t25 -163q0 -120 -30 -232t-80 -216t-117 -202t-139 -188q-48 -60 -113 -122t-139 -114t-155 -85 t-161 -33q-66 0 -128 21t-112 59t-83 93t-39 125q-2 18 -3 37t-1 37zM1132 1742q0 34 6 56t48 22q20 0 38 -14t18 -36q0 -12 -10 -28h-2v-2q2 -6 2 -16q-12 -10 -18 -22t-28 -12q-18 0 -36 16t-18 36zM1306 1742q0 34 7 56t49 22q18 0 37 -14t19 -36q0 -8 -4 -14t-8 -14 l-2 -2q4 -12 4 -16q-14 -10 -19 -22t-27 -12q-20 0 -38 16t-18 36z" />
<glyph unicode="&#xd7;" horiz-adv-x="990" d="M204 246q0 4 4 12q68 102 159 188t179 170q-36 36 -85 81t-96 94t-88 99t-61 96q-2 0 -2 4v2q0 12 11 25t23 13q6 0 14 -4q102 -68 188 -159t170 -181q120 116 240 228q28 28 57 55t59 53q8 6 16 6q10 0 21 -12t11 -22q0 -6 -22 -34t-56 -66t-75 -83t-78 -85t-66 -70 t-39 -40q116 -118 230 -242q28 -28 55 -57t53 -59q4 -12 4 -16q0 -10 -11 -21t-21 -11q-6 0 -34 22t-66 56t-83 75t-85 78t-70 65t-40 38q-36 -36 -82 -85t-95 -97t-100 -89t-95 -61l-6 -2q-12 0 -25 11t-13 25z" />
<glyph unicode="&#xd8;" horiz-adv-x="1462" d="M-30 -138q0 12 8 18q22 22 44 42t44 42q46 44 93 88t93 90q-18 40 -22 84t-4 88q0 102 22 198t59 187t86 177t103 170q34 50 72 108t74 104q12 12 24 12t21 -9t9 -21q0 -10 -6 -18q-66 -106 -133 -209t-123 -217q-52 -108 -87 -224t-35 -238q0 -30 2 -61t10 -61 q144 142 280 287t266 299q122 142 232 289t222 297q-40 42 -93 60t-111 18q-86 0 -163 -31t-151 -73q-12 -4 -18 -4q-12 0 -21 9t-9 21q0 14 12 24q36 32 81 59t94 47t100 31t99 11q70 0 131 -20t113 -68q34 46 69 93t73 87q10 10 20 10q14 0 24 -9t10 -21q0 -8 -18 -42 t-40 -73t-44 -74t-28 -47q40 -62 56 -126t16 -134q0 -120 -30 -232t-81 -217t-118 -202t-139 -187q-48 -60 -112 -123t-139 -114t-156 -84t-161 -33q-84 0 -164 34t-132 100q-68 -60 -137 -121t-141 -117q-6 -6 -16 -6q-12 0 -21 10t-9 22zM362 136q40 -50 99 -75t123 -25 q70 0 141 31t136 78t121 104t98 109q64 80 125 171t108 189t75 202t28 210q0 42 -7 81t-23 77q-104 -154 -226 -306t-254 -299t-270 -285t-274 -262z" />
<glyph unicode="&#xd9;" horiz-adv-x="1538" d="M226 912q0 70 25 131t67 113t95 95t107 77q90 56 183 105t191 85q4 6 11 10t13 4q12 0 23 -9t11 -23q0 -6 -2 -8q-30 -82 -71 -186t-85 -219t-86 -235t-75 -236t-54 -221t-21 -189q0 -28 1 -57t10 -53t28 -40t55 -16q48 0 96 26q108 56 196 151t158 195q14 18 30 40 t26 42q6 14 9 32t7 34q10 32 18 63t18 65q60 190 129 375t171 357q16 26 31 52t33 50q6 10 20 10q16 0 25 -10t11 -26q-34 -94 -79 -202t-92 -224t-92 -238t-80 -240t-57 -231t-22 -211q0 -40 18 -78t64 -38q32 0 76 18t85 41t72 41t37 18q12 0 21 -11t9 -23t-10 -18 q-46 -40 -114 -80t-128 -56q-26 -8 -58 -8q-52 0 -84 23t-50 59t-24 79t-6 85q0 30 3 60t7 60q-36 -54 -89 -120t-116 -123t-134 -95t-141 -38q-60 0 -97 25t-57 64t-27 87t-7 96q0 64 9 125t23 121q52 236 128 462t190 440q-58 -34 -117 -62t-117 -62q-78 -48 -155 -112 t-113 -152q-10 -20 -13 -38t-9 -38q-4 -18 -26 -18q-10 0 -21 8t-11 20zM1086 1820q0 10 11 25t21 15q42 0 78 -26q14 -10 26 -21t26 -21q72 -50 130 -108q0 -2 1 -4t1 -4q0 -12 -11 -26t-23 -14t-42 14t-65 32t-65 36t-42 26q-16 10 -31 33t-15 43z" />
<glyph unicode="&#xda;" horiz-adv-x="1538" d="M226 912q0 70 25 131t67 113t95 95t107 77q90 56 183 105t191 85q4 6 11 10t13 4q12 0 23 -9t11 -23q0 -6 -2 -8q-30 -82 -71 -186t-85 -219t-86 -235t-75 -236t-54 -221t-21 -189q0 -28 1 -57t10 -53t28 -40t55 -16q48 0 96 26q108 56 196 151t158 195q14 18 30 40 t26 42q6 14 9 32t7 34q10 32 18 63t18 65q60 190 129 375t171 357q16 26 31 52t33 50q6 10 20 10q16 0 25 -10t11 -26q-34 -94 -79 -202t-92 -224t-92 -238t-80 -240t-57 -231t-22 -211q0 -40 18 -78t64 -38q32 0 76 18t85 41t72 41t37 18q12 0 21 -11t9 -23t-10 -18 q-46 -40 -114 -80t-128 -56q-26 -8 -58 -8q-52 0 -84 23t-50 59t-24 79t-6 85q0 30 3 60t7 60q-36 -54 -89 -120t-116 -123t-134 -95t-141 -38q-60 0 -97 25t-57 64t-27 87t-7 96q0 64 9 125t23 121q52 236 128 462t190 440q-58 -34 -117 -62t-117 -62q-78 -48 -155 -112 t-113 -152q-10 -20 -13 -38t-9 -38q-4 -18 -26 -18q-10 0 -21 8t-11 20zM1190 1646q0 2 1 4t1 4q36 44 80 83t90 73q32 22 70 22q20 0 35 -10t17 -32q-18 -44 -54 -68q-14 -10 -28 -17t-30 -17q-66 -44 -146 -80q-12 0 -24 13t-12 25z" />
<glyph unicode="&#xdb;" horiz-adv-x="1538" d="M226 912q0 70 25 131t67 113t95 95t107 77q90 56 183 105t191 85q4 6 11 10t13 4q12 0 23 -9t11 -23q0 -6 -2 -8q-30 -82 -71 -186t-85 -219t-86 -235t-75 -236t-54 -221t-21 -189q0 -28 1 -57t10 -53t28 -40t55 -16q48 0 96 26q108 56 196 151t158 195q14 18 30 40 t26 42q6 14 9 32t7 34q10 32 18 63t18 65q60 190 129 375t171 357q16 26 31 52t33 50q6 10 20 10q16 0 25 -10t11 -26q-34 -94 -79 -202t-92 -224t-92 -238t-80 -240t-57 -231t-22 -211q0 -40 18 -78t64 -38q32 0 76 18t85 41t72 41t37 18q12 0 21 -11t9 -23t-10 -18 q-46 -40 -114 -80t-128 -56q-26 -8 -58 -8q-52 0 -84 23t-50 59t-24 79t-6 85q0 30 3 60t7 60q-36 -54 -89 -120t-116 -123t-134 -95t-141 -38q-60 0 -97 25t-57 64t-27 87t-7 96q0 64 9 125t23 121q52 236 128 462t190 440q-58 -34 -117 -62t-117 -62q-78 -48 -155 -112 t-113 -152q-10 -20 -13 -38t-9 -38q-4 -18 -26 -18q-10 0 -21 8t-11 20zM1008 1720v2q0 2 1 2t1 2q10 22 43 54t74 61t81 50t64 21q30 0 46 -14q60 -42 115 -88t107 -96v-4q0 -2 2 -4q0 -12 -11 -26t-23 -14l-6 2l-138 84q-6 2 -20 12t-30 21t-29 19t-15 8q-16 -14 -45 -37 t-62 -44t-66 -36t-53 -15q-10 0 -23 14t-13 26z" />
<glyph unicode="&#xdc;" horiz-adv-x="1538" d="M226 912q0 70 25 131t67 113t95 95t107 77q90 56 183 105t191 85q4 6 11 10t13 4q12 0 23 -9t11 -23q0 -6 -2 -8q-30 -82 -71 -186t-85 -219t-86 -235t-75 -236t-54 -221t-21 -189q0 -28 1 -57t10 -53t28 -40t55 -16q48 0 96 26q108 56 196 151t158 195q14 18 30 40 t26 42q6 14 9 32t7 34q10 32 18 63t18 65q60 190 129 375t171 357q16 26 31 52t33 50q6 10 20 10q16 0 25 -10t11 -26q-34 -94 -79 -202t-92 -224t-92 -238t-80 -240t-57 -231t-22 -211q0 -40 18 -78t64 -38q32 0 76 18t85 41t72 41t37 18q12 0 21 -11t9 -23t-10 -18 q-46 -40 -114 -80t-128 -56q-26 -8 -58 -8q-52 0 -84 23t-50 59t-24 79t-6 85q0 30 3 60t7 60q-36 -54 -89 -120t-116 -123t-134 -95t-141 -38q-60 0 -97 25t-57 64t-27 87t-7 96q0 64 9 125t23 121q52 236 128 462t190 440q-58 -34 -117 -62t-117 -62q-78 -48 -155 -112 t-113 -152q-10 -20 -13 -38t-9 -38q-4 -18 -26 -18q-10 0 -21 8t-11 20zM1132 1742q0 34 6 56t48 22q20 0 38 -14t18 -36q0 -12 -10 -28h-2v-2q2 -6 2 -16q-12 -10 -18 -22t-28 -12q-18 0 -36 16t-18 36zM1306 1742q0 34 7 56t49 22q18 0 37 -14t19 -36q0 -8 -4 -14t-8 -14 l-2 -2q4 -12 4 -16q-14 -10 -19 -22t-27 -12q-20 0 -38 16t-18 36z" />
<glyph unicode="&#xdd;" horiz-adv-x="1484" d="M-154 -748q0 108 33 218t91 211t138 184t174 135q8 4 14 4q12 0 21 -9t9 -21q0 -16 -16 -26q-20 -16 -40 -29t-40 -29q-90 -74 -153 -172t-103 -206q-20 -58 -32 -119t-12 -125q0 -92 30 -164t84 -121t129 -75t165 -26q46 0 91 8t89 28q70 30 127 88t102 134t80 163 t61 175t45 172t33 152q24 108 48 217t54 217q-34 -44 -81 -95t-102 -94t-115 -72t-120 -29t-97 25t-56 64t-26 87t-7 96q0 64 8 125t22 121q52 236 128 462t190 440q-58 -34 -117 -62t-117 -62q-78 -48 -155 -112t-113 -152q-8 -20 -12 -38t-8 -38q-6 -18 -28 -18 q-10 0 -21 8t-11 20q0 70 25 131t67 113t95 95t107 77q90 56 183 105t193 85q2 6 9 10t13 4q12 0 23 -9t11 -23q0 -6 -2 -8q-30 -82 -71 -186t-85 -219t-86 -236t-75 -236t-54 -220t-21 -189q0 -28 1 -57t10 -53t28 -40t55 -16q26 0 50 8t46 18q72 36 132 89t113 115 t100 129t89 131q4 4 4 6q36 76 80 157t94 160t106 152t114 133q10 10 24 10q12 0 21 -8t9 -22q0 -12 -6 -18q-72 -104 -135 -205t-119 -205t-103 -213t-87 -229q-40 -116 -67 -235t-54 -239t-57 -239t-74 -235q-40 -104 -92 -197t-123 -164t-165 -112t-216 -41 q-104 0 -194 33t-157 94t-105 147t-38 192zM1292 1502q0 2 1 4t1 4q36 44 80 83t90 73q32 22 70 22q20 0 35 -10t17 -32q-18 -44 -54 -68q-14 -10 -28 -17t-30 -17q-66 -44 -146 -80q-12 0 -24 13t-12 25z" />
<glyph unicode="&#xde;" horiz-adv-x="754" d="M-840 -580q0 12 10 20t22 8q16 0 26 -16q8 -16 15 -34t15 -34q14 -30 33 -63t43 -62t55 -47t69 -18q2 0 4 -1t6 1q46 12 84 41t69 68t57 82t48 81q102 182 176 374t140 388q76 226 134 454t112 460q18 78 36 155t38 153q8 34 15 67t17 65q6 22 28 22q32 0 32 -30 q0 -40 -9 -100t-15 -102q-16 -124 -40 -246t-52 -244q50 26 106 46t114 20q38 0 72 -15t61 -40t45 -59t24 -70q4 -20 4 -40v-40q0 -128 -45 -247t-115 -225q-34 -50 -73 -97t-85 -83t-101 -58t-119 -22q-8 0 -26 1t-24 3q-30 10 -55 33t-39 51q-58 -162 -124 -318t-156 -302 q-28 -46 -58 -92t-66 -86q-34 -38 -74 -67t-88 -45q-4 -2 -19 -7t-19 -5q-52 0 -93 17t-72 46t-55 68t-44 83q-4 6 -11 21t-14 33t-13 34t-6 20zM156 132q0 -20 3 -38t11 -33t24 -19q8 -2 24 -2q44 0 87 20t81 50t70 67t54 71q62 96 108 207t46 225q0 68 -27 118t-105 50 q-54 0 -115 -22t-109 -46q-44 -176 -96 -340l-16 -56t-18 -56q-4 -12 -9 -25t-7 -23q-6 -28 -6 -58v-58v-32z" />
<glyph unicode="&#xdf;" horiz-adv-x="1288" d="M-1146 -746q0 28 26 28q20 0 30 -18q16 -22 31 -43t33 -43q74 -80 176 -132t212 -52q154 0 260 112q76 80 131 174t96 196t73 207t64 209q64 216 129 430t147 424q42 108 82 219t95 213t132 187t189 141q50 26 104 40t110 14q74 0 139 -27t113 -75t76 -112t28 -138 q0 -66 -22 -112t-59 -77t-87 -51t-104 -38q-22 -8 -41 -16t-41 -16q-14 -6 -26 -10t-24 -12q-36 -22 -64 -62t-28 -84q0 -10 2 -22t8 -20q14 -24 52 -51t83 -56t88 -59t69 -58q28 -32 42 -77t14 -89q0 -70 -29 -134t-79 -115t-114 -81t-134 -30q-74 0 -127 32t-88 83 t-51 114t-16 127v23t3 30t10 25t21 10q22 0 26 -18t4 -34q0 -46 11 -99t35 -98t63 -75t95 -30q52 0 100 23t85 61t59 87t22 101q0 26 -7 49t-25 43q-28 32 -66 56t-74 46q-18 12 -41 27t-46 33t-43 36t-32 36q-14 20 -21 52t-7 58q0 48 17 89t46 74t66 58t79 41q44 16 89 31 t89 33q32 14 63 33t41 53t10 60q0 54 -20 99t-55 78t-81 52t-98 19q-78 0 -145 -29t-123 -76t-102 -107t-80 -124q-52 -98 -91 -201t-79 -207q-82 -208 -148 -420t-134 -426q-26 -84 -59 -187t-75 -208t-96 -204t-125 -176t-160 -124t-199 -47q-72 0 -145 27t-139 70 t-121 99t-91 116q-6 12 -6 22z" />
<glyph unicode="&#xe0;" horiz-adv-x="914" d="M0 96q0 66 17 131t46 126t67 117t80 106q108 134 248 233t304 159q2 2 8 2q14 0 21 -10t7 -22q0 -18 -14 -24q-34 -18 -67 -33t-65 -33q-222 -128 -374 -328q-30 -40 -62 -90t-58 -103t-43 -109t-17 -108q0 -8 2 -23t6 -30t13 -26t21 -11q58 0 113 30t103 76t86 98t62 98 q46 84 82 169t72 171q14 36 33 84t37 82q8 14 26 14q14 0 24 -8t10 -22l-2 -4q-16 -72 -36 -145t-44 -143q-10 -28 -24 -62t-22 -58q-4 -14 -5 -28t-3 -28q-6 -32 -13 -63t-15 -63q-10 -40 -17 -81t-7 -83v-18t2 -16q14 0 33 12t39 29t37 35t27 28q60 64 114 142 q14 16 25 35t25 35q6 10 18 10q14 0 24 -10t10 -24q-52 -106 -108 -189t-146 -161q-44 -40 -100 -40q-30 0 -57 17t-37 47q-4 10 -5 28t-2 38t0 39t1 31q-70 -84 -165 -143t-209 -59q-6 0 -17 4t-17 6q-46 22 -69 70t-23 96zM536 1310q0 10 11 25t21 15q42 0 78 -26 q14 -10 26 -21t26 -21q72 -50 130 -108q0 -2 1 -4t1 -4q0 -12 -11 -26t-23 -14t-42 14t-65 32t-65 36t-42 26q-16 10 -31 33t-15 43z" />
<glyph unicode="&#xe1;" horiz-adv-x="914" d="M0 96q0 66 17 131t46 126t67 117t80 106q108 134 248 233t304 159q2 2 8 2q14 0 21 -10t7 -22q0 -18 -14 -24q-34 -18 -67 -33t-65 -33q-222 -128 -374 -328q-30 -40 -62 -90t-58 -103t-43 -109t-17 -108q0 -8 2 -23t6 -30t13 -26t21 -11q58 0 113 30t103 76t86 98t62 98 q46 84 82 169t72 171q14 36 33 84t37 82q8 14 26 14q14 0 24 -8t10 -22l-2 -4q-16 -72 -36 -145t-44 -143q-10 -28 -24 -62t-22 -58q-4 -14 -5 -28t-3 -28q-6 -32 -13 -63t-15 -63q-10 -40 -17 -81t-7 -83v-18t2 -16q14 0 33 12t39 29t37 35t27 28q60 64 114 142 q14 16 25 35t25 35q6 10 18 10q14 0 24 -10t10 -24q-52 -106 -108 -189t-146 -161q-44 -40 -100 -40q-30 0 -57 17t-37 47q-4 10 -5 28t-2 38t0 39t1 31q-70 -84 -165 -143t-209 -59q-6 0 -17 4t-17 6q-46 22 -69 70t-23 96zM576 1176q0 2 1 4t1 4q36 44 80 83t90 73 q32 22 70 22q20 0 35 -10t17 -32q-18 -44 -54 -68q-14 -10 -28 -17t-30 -17q-66 -44 -146 -80q-12 0 -24 13t-12 25z" />
<glyph unicode="&#xe2;" horiz-adv-x="914" d="M0 96q0 66 17 131t46 126t67 117t80 106q108 134 248 233t304 159q2 2 8 2q14 0 21 -10t7 -22q0 -18 -14 -24q-34 -18 -67 -33t-65 -33q-222 -128 -374 -328q-30 -40 -62 -90t-58 -103t-43 -109t-17 -108q0 -8 2 -23t6 -30t13 -26t21 -11q58 0 113 30t103 76t86 98t62 98 q46 84 82 169t72 171q14 36 33 84t37 82q8 14 26 14q14 0 24 -8t10 -22l-2 -4q-16 -72 -36 -145t-44 -143q-10 -28 -24 -62t-22 -58q-4 -14 -5 -28t-3 -28q-6 -32 -13 -63t-15 -63q-10 -40 -17 -81t-7 -83v-18t2 -16q14 0 33 12t39 29t37 35t27 28q60 64 114 142 q14 16 25 35t25 35q6 10 18 10q14 0 24 -10t10 -24q-52 -106 -108 -189t-146 -161q-44 -40 -100 -40q-30 0 -57 17t-37 47q-4 10 -5 28t-2 38t0 39t1 31q-70 -84 -165 -143t-209 -59q-6 0 -17 4t-17 6q-46 22 -69 70t-23 96zM498 1168v2q0 2 1 2t1 2q10 22 43 54t74 61 t81 50t64 21q30 0 46 -14q60 -42 115 -88t107 -96v-4q0 -2 2 -4q0 -12 -11 -26t-23 -14l-6 2l-138 84q-6 2 -20 12t-30 21t-29 19t-15 8q-16 -14 -45 -37t-62 -44t-66 -36t-53 -15q-10 0 -23 14t-13 26z" />
<glyph unicode="&#xe3;" horiz-adv-x="914" d="M0 96q0 66 17 131t46 126t67 117t80 106q108 134 248 233t304 159q2 2 8 2q14 0 21 -10t7 -22q0 -18 -14 -24q-34 -18 -67 -33t-65 -33q-222 -128 -374 -328q-30 -40 -62 -90t-58 -103t-43 -109t-17 -108q0 -8 2 -23t6 -30t13 -26t21 -11q58 0 113 30t103 76t86 98t62 98 q46 84 82 169t72 171q14 36 33 84t37 82q8 14 26 14q14 0 24 -8t10 -22l-2 -4q-16 -72 -36 -145t-44 -143q-10 -28 -24 -62t-22 -58q-4 -14 -5 -28t-3 -28q-6 -32 -13 -63t-15 -63q-10 -40 -17 -81t-7 -83v-18t2 -16q14 0 33 12t39 29t37 35t27 28q60 64 114 142 q14 16 25 35t25 35q6 10 18 10q14 0 24 -10t10 -24q-52 -106 -108 -189t-146 -161q-44 -40 -100 -40q-30 0 -57 17t-37 47q-4 10 -5 28t-2 38t0 39t1 31q-70 -84 -165 -143t-209 -59q-6 0 -17 4t-17 6q-46 22 -69 70t-23 96zM418 1172q0 2 4 11t6 11q18 36 51 62t73 32 q10 2 30 2q42 0 82 -15t77 -34t70 -34t61 -15q20 0 31 9t19 21l14 21t16 9q4 0 20 -12t16 -16t-2 -14t-6 -14q-16 -40 -50 -65t-76 -25q-34 0 -67 12t-66 25t-65 25t-66 12q-22 0 -44 -7t-41 -14t-32 -14t-17 -7q-12 0 -25 11t-13 23z" />
<glyph unicode="&#xe4;" horiz-adv-x="914" d="M0 96q0 66 17 131t46 126t67 117t80 106q108 134 248 233t304 159q2 2 8 2q14 0 21 -10t7 -22q0 -18 -14 -24q-34 -18 -67 -33t-65 -33q-222 -128 -374 -328q-30 -40 -62 -90t-58 -103t-43 -109t-17 -108q0 -8 2 -23t6 -30t13 -26t21 -11q58 0 113 30t103 76t86 98t62 98 q46 84 82 169t72 171q14 36 33 84t37 82q8 14 26 14q14 0 24 -8t10 -22l-2 -4q-16 -72 -36 -145t-44 -143q-10 -28 -24 -62t-22 -58q-4 -14 -5 -28t-3 -28q-6 -32 -13 -63t-15 -63q-10 -40 -17 -81t-7 -83v-18t2 -16q14 0 33 12t39 29t37 35t27 28q60 64 114 142 q14 16 25 35t25 35q6 10 18 10q14 0 24 -10t10 -24q-52 -106 -108 -189t-146 -161q-44 -40 -100 -40q-30 0 -57 17t-37 47q-4 10 -5 28t-2 38t0 39t1 31q-70 -84 -165 -143t-209 -59q-6 0 -17 4t-17 6q-46 22 -69 70t-23 96zM560 1150q0 34 6 56t48 22q20 0 38 -14t18 -36 q0 -12 -10 -28h-2v-2q2 -6 2 -16q-12 -10 -18 -22t-28 -12q-18 0 -36 16t-18 36zM734 1150q0 34 7 56t49 22q18 0 37 -14t19 -36q0 -8 -4 -14t-8 -14l-2 -2q4 -12 4 -16q-14 -10 -19 -22t-27 -12q-20 0 -38 16t-18 36z" />
<glyph unicode="&#xe5;" horiz-adv-x="914" d="M0 96q0 66 17 131t46 126t67 117t80 106q84 104 186 186t222 144q-34 16 -55 44t-19 68v12q2 56 32 102t78 74q4 2 18 8t18 8q10 8 26 11t26 3q54 0 94 -42t40 -94q0 -116 -82 -178q-6 -6 -10 -8q-34 -18 -67 -33t-65 -33q-222 -128 -374 -328q-30 -40 -62 -90t-58 -103 t-43 -109t-17 -108q0 -8 2 -23t6 -30t13 -26t21 -11q58 0 113 30t103 76t86 98t62 98q46 84 82 169t72 171q14 36 33 84t37 82q8 14 26 14q14 0 24 -8t10 -22l-2 -4q-16 -72 -36 -145t-44 -143q-10 -28 -24 -62t-22 -58q-4 -14 -5 -28t-3 -28q-6 -32 -13 -63t-15 -63 q-10 -40 -17 -81t-7 -83v-18t2 -16q14 0 33 12t39 29t37 35t27 28q60 64 114 142q14 16 25 35t25 35q6 10 18 10q14 0 24 -10t10 -24q-52 -106 -108 -189t-146 -161q-44 -40 -100 -40q-30 0 -57 17t-37 47q-4 10 -5 28t-2 38t0 39t1 31q-70 -84 -165 -143t-209 -59 q-6 0 -17 4t-17 6q-46 22 -69 70t-23 96zM632 1042q0 -54 52 -54q40 0 61 32t21 68q0 34 -15 49t-43 25q-30 -22 -53 -51t-23 -69z" />
<glyph unicode="&#xe6;" horiz-adv-x="1218" d="M0 82q0 66 18 130t47 125t67 117t78 106q110 134 249 233t303 159q2 2 8 2q14 0 22 -10t8 -22q0 -18 -16 -24q-34 -18 -66 -33t-66 -33q-108 -64 -203 -145t-171 -183q-30 -40 -62 -90t-58 -103t-43 -109t-17 -108q0 -8 2 -23t6 -30t13 -26t21 -11q58 0 113 30t102 75 t86 98t63 99q24 44 47 89t39 91q8 18 13 37t13 37q10 22 21 45t21 45q16 34 34 83t36 79q12 14 26 14q16 0 26 -10q32 34 78 71t97 68t104 51t103 20q60 0 94 -41t34 -99q0 -52 -24 -101t-62 -94t-82 -82t-82 -63q-60 -40 -125 -75t-139 -35q-16 0 -36 4t-20 26q0 26 28 34 q8 2 16 2t16 2q42 12 86 38q36 20 89 61t104 89t87 100t36 98q0 30 -32 30q-14 0 -26 -4l-24 -8q-62 -22 -123 -61t-107 -83q-38 -38 -81 -93t-63 -103q-10 -22 -15 -43t-13 -43t-17 -43t-15 -43q-10 -28 -11 -61t-1 -63q0 -28 2 -54t6 -52q4 -24 15 -49t27 -46t37 -34 t49 -13q16 0 31 5t29 13q56 32 102 83t84 101q10 16 20 31t20 29q8 12 22 12q12 0 22 -9t10 -21q0 -6 -4 -14q-24 -44 -60 -98t-81 -101t-98 -79t-109 -32q-50 0 -88 24t-63 61t-40 83t-21 88q-38 -58 -84 -112t-100 -95t-118 -65t-138 -24q-6 0 -19 5t-19 7q-46 22 -67 70 t-21 96z" />
<glyph unicode="&#xe7;" horiz-adv-x="652" d="M62 222q0 86 20 164q20 88 59 174t95 160t128 131t160 91q30 12 68 23t72 11q10 0 19 -12t9 -22q0 -20 -16 -26q-34 -16 -67 -30t-65 -36q-134 -82 -230 -208t-136 -278q-18 -78 -18 -158q0 -28 4 -61t15 -65t30 -58t49 -38q2 -2 7 -2h7q50 0 92 27t76 61q54 54 102 124 l20 28t20 26q6 10 18 10t23 -9t11 -21q0 -4 -9 -20t-21 -35t-23 -36t-15 -23q-26 -40 -54 -76t-62 -66t-73 -49t-87 -25q-2 -22 -5 -43t-7 -43q42 -4 85 -22t76 -48t50 -71t5 -89q-10 -36 -32 -66t-53 -53t-66 -39t-69 -26q-2 0 -12 -3l-20 -6t-18 -5l-10 -4q-10 0 -18 14 t-6 22q6 16 18 22q20 8 50 22t59 31t52 38t29 45q6 30 -12 56t-40 42q-28 22 -64 27t-76 3q-10 4 -27 19t-25 25l2 10q6 30 20 72t32 78q-30 12 -54 36t-41 55t-27 64t-16 63q-4 24 -6 48t-2 50z" />
<glyph unicode="&#xe8;" horiz-adv-x="718" d="M72 248q0 152 64 291t172 245q32 32 74 65t89 60t96 44t95 17q58 0 93 -39t35 -97q0 -50 -24 -99t-61 -93t-81 -80t-82 -62q-58 -40 -121 -74t-137 -34q-16 0 -35 4t-19 26q0 28 26 34q6 2 14 2t16 2q22 4 43 14t43 22q34 22 86 62t102 88t85 98t35 94q0 28 -30 28 q-12 0 -24 -4l-24 -8q-96 -32 -176 -97t-138 -151t-91 -184t-33 -196q0 -32 5 -73t20 -77t41 -61t68 -25q16 0 30 5t28 13q54 30 100 81t82 103q10 12 19 26t19 28q6 10 20 10q12 0 23 -8t11 -22q0 -4 -4 -12q-24 -44 -60 -97t-80 -99t-95 -77t-107 -31q-62 0 -103 35 t-65 86t-34 110t-10 107zM536 1290q0 10 11 25t21 15q42 0 78 -26q14 -10 26 -21t26 -21q72 -50 130 -108q0 -2 1 -4t1 -4q0 -12 -11 -26t-23 -14t-42 14t-65 32t-65 36t-42 26q-16 10 -31 33t-15 43z" />
<glyph unicode="&#xe9;" horiz-adv-x="718" d="M72 248q0 152 64 291t172 245q32 32 74 65t89 60t96 44t95 17q58 0 93 -39t35 -97q0 -50 -24 -99t-61 -93t-81 -80t-82 -62q-58 -40 -121 -74t-137 -34q-16 0 -35 4t-19 26q0 28 26 34q6 2 14 2t16 2q22 4 43 14t43 22q34 22 86 62t102 88t85 98t35 94q0 28 -30 28 q-12 0 -24 -4l-24 -8q-96 -32 -176 -97t-138 -151t-91 -184t-33 -196q0 -32 5 -73t20 -77t41 -61t68 -25q16 0 30 5t28 13q54 30 100 81t82 103q10 12 19 26t19 28q6 10 20 10q12 0 23 -8t11 -22q0 -4 -4 -12q-24 -44 -60 -97t-80 -99t-95 -77t-107 -31q-62 0 -103 35 t-65 86t-34 110t-10 107zM536 1156q0 2 1 4t1 4q36 44 80 83t90 73q32 22 70 22q20 0 35 -10t17 -32q-18 -44 -54 -68q-14 -10 -28 -17t-30 -17q-66 -44 -146 -80q-12 0 -24 13t-12 25z" />
<glyph unicode="&#xea;" horiz-adv-x="718" d="M72 248q0 152 64 291t172 245q32 32 74 65t89 60t96 44t95 17q58 0 93 -39t35 -97q0 -50 -24 -99t-61 -93t-81 -80t-82 -62q-58 -40 -121 -74t-137 -34q-16 0 -35 4t-19 26q0 28 26 34q6 2 14 2t16 2q22 4 43 14t43 22q34 22 86 62t102 88t85 98t35 94q0 28 -30 28 q-12 0 -24 -4l-24 -8q-96 -32 -176 -97t-138 -151t-91 -184t-33 -196q0 -32 5 -73t20 -77t41 -61t68 -25q16 0 30 5t28 13q54 30 100 81t82 103q10 12 19 26t19 28q6 10 20 10q12 0 23 -8t11 -22q0 -4 -4 -12q-24 -44 -60 -97t-80 -99t-95 -77t-107 -31q-62 0 -103 35 t-65 86t-34 110t-10 107zM436 1168v2q0 2 1 2t1 2q10 22 43 54t74 61t81 50t64 21q30 0 46 -14q60 -42 115 -88t107 -96v-4q0 -2 2 -4q0 -12 -11 -26t-23 -14l-6 2l-138 84q-6 2 -20 12t-30 21t-29 19t-15 8q-16 -14 -45 -37t-62 -44t-66 -36t-53 -15q-10 0 -23 14t-13 26z " />
<glyph unicode="&#xeb;" horiz-adv-x="718" d="M72 248q0 152 64 291t172 245q32 32 74 65t89 60t96 44t95 17q58 0 93 -39t35 -97q0 -50 -24 -99t-61 -93t-81 -80t-82 -62q-58 -40 -121 -74t-137 -34q-16 0 -35 4t-19 26q0 28 26 34q6 2 14 2t16 2q22 4 43 14t43 22q34 22 86 62t102 88t85 98t35 94q0 28 -30 28 q-12 0 -24 -4l-24 -8q-96 -32 -176 -97t-138 -151t-91 -184t-33 -196q0 -32 5 -73t20 -77t41 -61t68 -25q16 0 30 5t28 13q54 30 100 81t82 103q10 12 19 26t19 28q6 10 20 10q12 0 23 -8t11 -22q0 -4 -4 -12q-24 -44 -60 -97t-80 -99t-95 -77t-107 -31q-62 0 -103 35 t-65 86t-34 110t-10 107zM540 1172q0 34 6 56t48 22q20 0 38 -14t18 -36q0 -12 -10 -28h-2v-2q2 -6 2 -16q-12 -10 -18 -22t-28 -12q-18 0 -36 16t-18 36zM714 1172q0 34 7 56t49 22q18 0 37 -14t19 -36q0 -8 -4 -14t-8 -14l-2 -2q4 -12 4 -16q-14 -10 -19 -22t-27 -12 q-20 0 -38 16t-18 36z" />
<glyph unicode="&#xec;" horiz-adv-x="530" d="M134 78v72q0 52 11 108t23 108q18 78 41 168t54 179t71 172t90 145q10 10 20 10q12 0 24 -9t12 -23v-4q-34 -106 -77 -223t-82 -238t-66 -241t-27 -232q0 -12 1 -34t13 -28q44 8 93 46t92 80t75 76t44 34q10 0 21 -10t11 -20t-6 -16q-38 -46 -73 -91t-74 -83t-87 -65 t-110 -39q-54 24 -74 63t-20 95zM270 1390q0 10 11 25t21 15q42 0 78 -26q14 -10 26 -21t26 -21q72 -50 130 -108q0 -2 1 -4t1 -4q0 -12 -11 -26t-23 -14t-42 14t-65 32t-65 36t-42 26q-16 10 -31 33t-15 43z" />
<glyph unicode="&#xed;" horiz-adv-x="530" d="M134 78v72q0 52 11 108t23 108q18 78 41 168t54 179t71 172t90 145q10 10 20 10q12 0 24 -9t12 -23v-4q-34 -106 -77 -223t-82 -238t-66 -241t-27 -232q0 -12 1 -34t13 -28q44 8 93 46t92 80t75 76t44 34q10 0 21 -10t11 -20t-6 -16q-38 -46 -73 -91t-74 -83t-87 -65 t-110 -39q-54 24 -74 63t-20 95zM516 1236q0 2 1 4t1 4q36 44 80 83t90 73q32 22 70 22q20 0 35 -10t17 -32q-18 -44 -54 -68q-14 -10 -28 -17t-30 -17q-66 -44 -146 -80q-12 0 -24 13t-12 25z" />
<glyph unicode="&#xee;" horiz-adv-x="530" d="M134 78v72q0 52 11 108t23 108q18 78 41 168t54 179t71 172t90 145q10 10 20 10q12 0 24 -9t12 -23v-4q-34 -106 -77 -223t-82 -238t-66 -241t-27 -232q0 -12 1 -34t13 -28q44 8 93 46t92 80t75 76t44 34q10 0 21 -10t11 -20t-6 -16q-38 -46 -73 -91t-74 -83t-87 -65 t-110 -39q-54 24 -74 63t-20 95zM252 1210v2q0 2 1 2t1 2q10 22 43 54t74 61t81 50t64 21q30 0 46 -14q60 -42 115 -88t107 -96v-4q0 -2 2 -4q0 -12 -11 -26t-23 -14l-6 2l-138 84q-6 2 -20 12t-30 21t-29 19t-15 8q-16 -14 -45 -37t-62 -44t-66 -36t-53 -15q-10 0 -23 14 t-13 26z" />
<glyph unicode="&#xef;" horiz-adv-x="530" d="M134 78v72q0 52 11 108t23 108q18 78 41 168t54 179t71 172t90 145q10 10 20 10q12 0 24 -9t12 -23v-4q-34 -106 -77 -223t-82 -238t-66 -241t-27 -232q0 -12 1 -34t13 -28q44 8 93 46t92 80t75 76t44 34q10 0 21 -10t11 -20t-6 -16q-38 -46 -73 -91t-74 -83t-87 -65 t-110 -39q-54 24 -74 63t-20 95zM396 1292q0 34 6 56t48 22q20 0 38 -14t18 -36q0 -12 -10 -28h-2v-2q2 -6 2 -16q-12 -10 -18 -22t-28 -12q-18 0 -36 16t-18 36zM570 1292q0 34 7 56t49 22q18 0 37 -14t19 -36q0 -8 -4 -14t-8 -14l-2 -2q4 -12 4 -16q-14 -10 -19 -22 t-27 -12q-20 0 -38 16t-18 36z" />
<glyph unicode="&#xf0;" horiz-adv-x="890" d="M62 264q0 66 18 130q56 184 180 328t302 216q4 2 10 2q14 0 21 -10t7 -22q0 -14 -16 -24q-28 -16 -56 -31t-56 -37q-110 -80 -188 -198t-118 -248q-14 -42 -14 -94q0 -42 12 -90t36 -89t61 -68t87 -27q32 0 61 12t55 30q76 54 136 140t102 185t64 202t22 195v24 q-4 52 -35 88t-77 58q-14 6 -27 10t-25 10q-20 8 -20 28q0 14 8 24t22 8h2q92 -6 168 -66q-6 64 -21 129t-41 123l-12 24t-12 22q-64 -34 -132 -65t-136 -55q-12 -2 -22 4q-4 4 -9 23t-1 23q2 4 25 19t57 36t77 47t85 52q-64 80 -156 132q-16 10 -33 16t-35 16q-10 4 -12 12 q-4 10 0 25t16 19q8 4 12 2q92 -10 168 -54t134 -112q30 18 53 31t33 19t33 16t48 19t48 13t33 -2q4 -4 10 -24t2 -24q-20 -28 -56 -53t-64 -41q-20 -12 -39 -22t-41 -20q12 -20 20 -40q62 -138 67 -297t-17 -323q-16 -114 -60 -243t-115 -239t-169 -182t-220 -72 q-66 0 -114 35t-81 89t-49 117t-16 119z" />
<glyph unicode="&#xf1;" horiz-adv-x="926" d="M-20 -52q0 2 3 13t6 25t6 26t3 16q34 132 83 260t109 252q28 58 54 117t54 117q12 22 29 54t36 65t39 62t38 45q8 8 18 8q8 0 22 -11t14 -21q0 -6 -7 -28t-17 -47t-19 -48t-11 -31q34 32 79 70t96 70t105 53t102 21q28 0 53 -25t29 -53q4 -20 4 -30q0 -34 -13 -83 t-25 -83q-20 -58 -58 -153t-76 -195t-66 -192t-28 -144q0 -22 4 -37t30 -15q36 0 85 22t95 49t80 49t42 22q12 0 21 -11t9 -23t-10 -18q-22 -18 -52 -40t-64 -43t-67 -39t-59 -28q-46 -20 -86 -20q-60 0 -87 43t-27 95q0 62 20 141t48 161t59 161t53 139q22 58 40 117 t24 123q-36 -4 -98 -40t-129 -83t-127 -93t-94 -70l-72 -144q-48 -94 -91 -187t-83 -189q-18 -46 -34 -92t-36 -92q-6 -16 -22 -16q-8 0 -21 10t-13 18zM438 1254q0 2 4 11t6 11q18 36 51 62t73 32q10 2 30 2q42 0 82 -15t77 -34t70 -34t61 -15q20 0 31 9t19 21l14 21t16 9 q4 0 20 -12t16 -16t-2 -14t-6 -14q-16 -40 -50 -65t-76 -25q-34 0 -67 12t-66 25t-65 25t-66 12q-22 0 -44 -7t-41 -14t-32 -14t-17 -7q-12 0 -25 11t-13 23z" />
<glyph unicode="&#xf2;" horiz-adv-x="890" d="M62 264q0 66 18 130q56 184 180 328t302 216q4 2 10 2q14 0 21 -10t7 -22q0 -14 -16 -24q-28 -16 -56 -31t-56 -37q-110 -80 -188 -198t-118 -248q-14 -42 -14 -94q0 -42 12 -90t36 -89t61 -68t87 -27q32 0 61 12t55 30q76 54 136 140t102 185t64 202t22 195v24 q-4 52 -35 88t-77 58q-14 6 -27 10t-25 10q-20 8 -20 28q0 14 8 24t22 8h2q44 -4 87 -20t77 -44t57 -66t29 -86q4 -20 4 -39v-41q0 -76 -17 -166t-51 -180t-83 -175t-112 -151t-140 -105t-165 -39q-66 0 -114 35t-81 89t-49 117t-16 119zM598 1310q0 10 11 25t21 15 q42 0 78 -26q14 -10 26 -21t26 -21q72 -50 130 -108q0 -2 1 -4t1 -4q0 -12 -11 -26t-23 -14t-42 14t-65 32t-65 36t-42 26q-16 10 -31 33t-15 43z" />
<glyph unicode="&#xf3;" horiz-adv-x="890" d="M62 264q0 66 18 130q56 184 180 328t302 216q4 2 10 2q14 0 21 -10t7 -22q0 -14 -16 -24q-28 -16 -56 -31t-56 -37q-110 -80 -188 -198t-118 -248q-14 -42 -14 -94q0 -42 12 -90t36 -89t61 -68t87 -27q32 0 61 12t55 30q76 54 136 140t102 185t64 202t22 195v24 q-4 52 -35 88t-77 58q-14 6 -27 10t-25 10q-20 8 -20 28q0 14 8 24t22 8h2q44 -4 87 -20t77 -44t57 -66t29 -86q4 -20 4 -39v-41q0 -76 -17 -166t-51 -180t-83 -175t-112 -151t-140 -105t-165 -39q-66 0 -114 35t-81 89t-49 117t-16 119zM576 1176q0 2 1 4t1 4q36 44 80 83 t90 73q32 22 70 22q20 0 35 -10t17 -32q-18 -44 -54 -68q-14 -10 -28 -17t-30 -17q-66 -44 -146 -80q-12 0 -24 13t-12 25z" />
<glyph unicode="&#xf4;" horiz-adv-x="890" d="M62 264q0 66 18 130q56 184 180 328t302 216q4 2 10 2q14 0 21 -10t7 -22q0 -14 -16 -24q-28 -16 -56 -31t-56 -37q-110 -80 -188 -198t-118 -248q-14 -42 -14 -94q0 -42 12 -90t36 -89t61 -68t87 -27q32 0 61 12t55 30q76 54 136 140t102 185t64 202t22 195v24 q-4 52 -35 88t-77 58q-14 6 -27 10t-25 10q-20 8 -20 28q0 14 8 24t22 8h2q44 -4 87 -20t77 -44t57 -66t29 -86q4 -20 4 -39v-41q0 -76 -17 -166t-51 -180t-83 -175t-112 -151t-140 -105t-165 -39q-66 0 -114 35t-81 89t-49 117t-16 119zM478 1168v2q0 2 1 2t1 2 q10 22 43 54t74 61t81 50t64 21q30 0 46 -14q60 -42 115 -88t107 -96v-4q0 -2 2 -4q0 -12 -11 -26t-23 -14l-6 2l-138 84q-6 2 -20 12t-30 21t-29 19t-15 8q-16 -14 -45 -37t-62 -44t-66 -36t-53 -15q-10 0 -23 14t-13 26z" />
<glyph unicode="&#xf5;" horiz-adv-x="890" d="M62 264q0 66 18 130q56 184 180 328t302 216q4 2 10 2q14 0 21 -10t7 -22q0 -14 -16 -24q-28 -16 -56 -31t-56 -37q-110 -80 -188 -198t-118 -248q-14 -42 -14 -94q0 -42 12 -90t36 -89t61 -68t87 -27q32 0 61 12t55 30q76 54 136 140t102 185t64 202t22 195v24 q-4 52 -35 88t-77 58q-14 6 -27 10t-25 10q-20 8 -20 28q0 14 8 24t22 8h2q44 -4 87 -20t77 -44t57 -66t29 -86q4 -20 4 -39v-41q0 -76 -17 -166t-51 -180t-83 -175t-112 -151t-140 -105t-165 -39q-66 0 -114 35t-81 89t-49 117t-16 119zM460 1212q0 2 4 11t6 11 q18 36 51 62t73 32q10 2 30 2q42 0 82 -15t77 -34t70 -34t61 -15q20 0 31 9t19 21l14 21t16 9q4 0 20 -12t16 -16t-2 -14t-6 -14q-16 -40 -50 -65t-76 -25q-34 0 -67 12t-66 25t-65 25t-66 12q-22 0 -44 -7t-41 -14t-32 -14t-17 -7q-12 0 -25 11t-13 23z" />
<glyph unicode="&#xf6;" horiz-adv-x="890" d="M62 264q0 66 18 130q56 184 180 328t302 216q4 2 10 2q14 0 21 -10t7 -22q0 -14 -16 -24q-28 -16 -56 -31t-56 -37q-110 -80 -188 -198t-118 -248q-14 -42 -14 -94q0 -42 12 -90t36 -89t61 -68t87 -27q32 0 61 12t55 30q76 54 136 140t102 185t64 202t22 195v24 q-4 52 -35 88t-77 58q-14 6 -27 10t-25 10q-20 8 -20 28q0 14 8 24t22 8h2q44 -4 87 -20t77 -44t57 -66t29 -86q4 -20 4 -39v-41q0 -76 -17 -166t-51 -180t-83 -175t-112 -151t-140 -105t-165 -39q-66 0 -114 35t-81 89t-49 117t-16 119zM602 1212q0 34 6 56t48 22 q20 0 38 -14t18 -36q0 -12 -10 -28h-2v-2q2 -6 2 -16q-12 -10 -18 -22t-28 -12q-18 0 -36 16t-18 36zM776 1212q0 34 7 56t49 22q18 0 37 -14t19 -36q0 -8 -4 -14t-8 -14l-2 -2q4 -12 4 -16q-14 -10 -19 -22t-27 -12q-20 0 -38 16t-18 36z" />
<glyph unicode="&#xf7;" horiz-adv-x="1026" d="M204 786q0 8 5 17t15 13q16 6 42 10t55 5t57 2t46 1q52 0 102 -2t102 -2q86 0 170 -3t170 -7h33t38 -1t37 -2t30 -3q22 -8 22 -30q0 -10 -5 -19t-15 -11q-24 -6 -68 -8t-72 -4q-84 -6 -169 -9t-171 -5q-46 0 -90 -2t-88 -2q-22 0 -53 1t-64 5t-62 10t-49 16q-8 4 -13 13 t-5 17zM610 530q0 20 14 38t36 18q12 0 28 -12h2q4 0 8 1t8 1q10 -14 22 -19t12 -27q0 -20 -16 -37t-36 -17q-34 0 -56 6t-22 48zM610 1068q0 20 14 39t36 19q8 0 14 -4t14 -8l2 -2q6 2 16 2q10 -12 22 -17t12 -27q0 -20 -16 -38t-36 -18q-34 0 -56 7t-22 47zM706 544 q2 0 2 -1t2 -1l4 2h-8zM706 1084q2 -2 4 -2l4 2h-8z" />
<glyph unicode="&#xf8;" horiz-adv-x="986" d="M-102 6q0 6 6 16q46 50 96 96l100 92q-2 14 -2 27v27q0 34 4 66t14 64q58 184 181 328t303 216q2 2 8 2q14 0 21 -10t7 -22q0 -16 -14 -24q-30 -16 -59 -31t-57 -35q-112 -82 -189 -198t-117 -248q-4 -22 -8 -42t-6 -42q164 146 334 274l152 116t154 112q-2 52 -36 88 t-78 58q-14 6 -27 10t-27 10q-18 8 -18 28q0 32 28 32q38 0 76 -13t71 -36t59 -53t38 -66q8 6 36 24t59 36t57 33t32 15q14 0 24 -12t10 -24q0 -10 -27 -38t-62 -58t-68 -57t-45 -35v-14q0 -76 -17 -165t-51 -180t-83 -175t-113 -150t-141 -105t-165 -39q-46 0 -84 19 t-68 50t-52 70t-36 79q-44 -36 -86 -73t-88 -71q-6 -6 -14 -6q-12 0 -22 11t-10 23zM196 186q8 -32 25 -65t40 -59t53 -43t68 -17q34 0 62 12t56 30q68 48 122 118t94 152t65 169t37 167q-160 -114 -315 -228t-307 -236z" />
<glyph unicode="&#xf9;" horiz-adv-x="976" d="M82 178q0 48 6 94q10 96 34 185t58 177q26 62 54 123t56 121q10 20 20 45t22 41q10 14 24 14q10 0 22 -10t12 -20q0 -14 -5 -39t-12 -52t-14 -52t-13 -39q-22 -72 -51 -143t-54 -144t-42 -147t-17 -150q0 -22 2 -51t10 -56t25 -46t47 -19q40 0 91 27t102 64t97 77t74 66 q18 86 49 193t73 215t92 205t108 163q10 10 20 10q12 0 24 -10t12 -24q-2 -2 -2 -4q-38 -106 -91 -229t-101 -250t-82 -253t-34 -240q0 -8 1 -16t9 -12q46 8 97 46t96 81t79 77t44 34q12 0 23 -10t11 -22q0 -8 -8 -16q-40 -46 -76 -90t-77 -82t-90 -66t-111 -42 q-92 42 -92 142q0 22 4 45t2 47q-28 -30 -69 -67t-88 -71t-95 -57t-90 -23q-56 0 -92 23t-57 60t-29 84t-8 93zM474 1248q0 10 11 25t21 15q42 0 78 -26q14 -10 26 -21t26 -21q72 -50 130 -108q0 -2 1 -4t1 -4q0 -12 -11 -26t-23 -14t-42 14t-65 32t-65 36t-42 26 q-16 10 -31 33t-15 43z" />
<glyph unicode="&#xfa;" horiz-adv-x="976" d="M82 178q0 48 6 94q10 96 34 185t58 177q26 62 54 123t56 121q10 20 20 45t22 41q10 14 24 14q10 0 22 -10t12 -20q0 -14 -5 -39t-12 -52t-14 -52t-13 -39q-22 -72 -51 -143t-54 -144t-42 -147t-17 -150q0 -22 2 -51t10 -56t25 -46t47 -19q40 0 91 27t102 64t97 77t74 66 q18 86 49 193t73 215t92 205t108 163q10 10 20 10q12 0 24 -10t12 -24q-2 -2 -2 -4q-38 -106 -91 -229t-101 -250t-82 -253t-34 -240q0 -8 1 -16t9 -12q46 8 97 46t96 81t79 77t44 34q12 0 23 -10t11 -22q0 -8 -8 -16q-40 -46 -76 -90t-77 -82t-90 -66t-111 -42 q-92 42 -92 142q0 22 4 45t2 47q-28 -30 -69 -67t-88 -71t-95 -57t-90 -23q-56 0 -92 23t-57 60t-29 84t-8 93zM598 1176q0 2 1 4t1 4q36 44 80 83t90 73q32 22 70 22q20 0 35 -10t17 -32q-18 -44 -54 -68q-14 -10 -28 -17t-30 -17q-66 -44 -146 -80q-12 0 -24 13t-12 25z " />
<glyph unicode="&#xfb;" horiz-adv-x="976" d="M82 178q0 48 6 94q10 96 34 185t58 177q26 62 54 123t56 121q10 20 20 45t22 41q10 14 24 14q10 0 22 -10t12 -20q0 -14 -5 -39t-12 -52t-14 -52t-13 -39q-22 -72 -51 -143t-54 -144t-42 -147t-17 -150q0 -22 2 -51t10 -56t25 -46t47 -19q40 0 91 27t102 64t97 77t74 66 q18 86 49 193t73 215t92 205t108 163q10 10 20 10q12 0 24 -10t12 -24q-2 -2 -2 -4q-38 -106 -91 -229t-101 -250t-82 -253t-34 -240q0 -8 1 -16t9 -12q46 8 97 46t96 81t79 77t44 34q12 0 23 -10t11 -22q0 -8 -8 -16q-40 -46 -76 -90t-77 -82t-90 -66t-111 -42 q-92 42 -92 142q0 22 4 45t2 47q-28 -30 -69 -67t-88 -71t-95 -57t-90 -23q-56 0 -92 23t-57 60t-29 84t-8 93zM456 1190v2q0 2 1 2t1 2q10 22 43 54t74 61t81 50t64 21q30 0 46 -14q60 -42 115 -88t107 -96v-4q0 -2 2 -4q0 -12 -11 -26t-23 -14l-6 2l-138 84q-6 2 -20 12 t-30 21t-29 19t-15 8q-16 -14 -45 -37t-62 -44t-66 -36t-53 -15q-10 0 -23 14t-13 26z" />
<glyph unicode="&#xfc;" horiz-adv-x="976" d="M82 178q0 48 6 94q10 96 34 185t58 177q26 62 54 123t56 121q10 20 20 45t22 41q10 14 24 14q10 0 22 -10t12 -20q0 -14 -5 -39t-12 -52t-14 -52t-13 -39q-22 -72 -51 -143t-54 -144t-42 -147t-17 -150q0 -22 2 -51t10 -56t25 -46t47 -19q40 0 91 27t102 64t97 77t74 66 q18 86 49 193t73 215t92 205t108 163q10 10 20 10q12 0 24 -10t12 -24q-2 -2 -2 -4q-38 -106 -91 -229t-101 -250t-82 -253t-34 -240q0 -8 1 -16t9 -12q46 8 97 46t96 81t79 77t44 34q12 0 23 -10t11 -22q0 -8 -8 -16q-40 -46 -76 -90t-77 -82t-90 -66t-111 -42 q-92 42 -92 142q0 22 4 45t2 47q-28 -30 -69 -67t-88 -71t-95 -57t-90 -23q-56 0 -92 23t-57 60t-29 84t-8 93zM540 1172q0 34 6 56t48 22q20 0 38 -14t18 -36q0 -12 -10 -28h-2v-2q2 -6 2 -16q-12 -10 -18 -22t-28 -12q-18 0 -36 16t-18 36zM714 1172q0 34 7 56t49 22 q18 0 37 -14t19 -36q0 -8 -4 -14t-8 -14l-2 -2q4 -12 4 -16q-14 -10 -19 -22t-27 -12q-20 0 -38 16t-18 36z" />
<glyph unicode="&#xfd;" horiz-adv-x="886" d="M-512 -584q-2 16 9 23t23 7q8 0 14 -6t10 -12q14 -22 25 -47t27 -47q30 -42 69 -81t86 -68t99 -46t106 -17q82 0 152 40q100 60 166 166t114 234q46 124 79 253t67 241q-24 -22 -58 -48t-70 -49t-73 -39t-67 -16q-58 0 -105 38t-59 102q-10 40 -12 74q-4 62 5 131t26 138 t39 134t46 119q50 116 108 228q12 22 22 46t24 46q8 12 24 12q10 0 22 -11t14 -23l-6 -30q-18 -84 -47 -164t-61 -156q-22 -54 -45 -113t-40 -119t-27 -121t-6 -121q2 -18 5 -38t11 -37t20 -28t32 -11q34 0 80 23t92 54t87 65t67 58q52 144 112 281t130 269q28 52 56 107 t60 105q8 14 24 14q14 0 23 -11t11 -25q0 -8 -2 -12q-76 -204 -162 -399t-162 -399q-38 -98 -67 -196t-57 -200q-6 -22 -13 -41t-15 -41q-24 -74 -50 -145t-60 -139t-78 -129t-100 -106t-122 -72t-144 -27q-82 0 -153 29t-131 78t-107 116t-83 145q-4 8 -4 14zM638 1136 q0 2 1 4t1 4q36 44 80 83t90 73q32 22 70 22q20 0 35 -10t17 -32q-18 -44 -54 -68q-14 -10 -28 -17t-30 -17q-66 -44 -146 -80q-12 0 -24 13t-12 25z" />
<glyph unicode="&#xfe;" horiz-adv-x="1342" d="M-40 10q0 22 22 28q44 10 76 15t76 23q92 40 161 114t122 164t91 188t68 186q26 80 49 162t47 164t52 162t68 156q-58 -34 -116 -61t-114 -61q-40 -26 -81 -55t-78 -64t-66 -74t-47 -85q-8 -22 -10 -40t-8 -38q-2 -4 -11 -5t-13 -1q-24 0 -30 3t-6 25q0 70 26 131t68 114 t95 97t107 78q92 58 189 109t199 91q2 2 6 2q14 0 26 -12t12 -26v-6q-10 -30 -23 -59t-23 -59q-24 -64 -45 -130t-43 -130q36 40 83 76t100 64t110 45t113 17q80 0 136 -34t91 -88t51 -122t16 -136q0 -108 -39 -205t-105 -179t-154 -149t-187 -113t-203 -71t-202 -25 q-10 0 -28 -1t-36 2t-31 9t-13 22q0 30 24 30h42q88 0 184 23t188 66t176 104t147 136t100 163t37 186q0 44 -9 93t-31 88t-59 65t-93 26q-64 0 -126 -28q-98 -40 -180 -108t-140 -154q-12 -16 -25 -35t-21 -39q-14 -30 -27 -72t-23 -76q-44 -124 -97 -242t-131 -224 q-40 -54 -91 -100t-110 -80t-125 -53t-134 -19q-12 0 -18 10t-6 22z" />
<glyph unicode="&#xff;" horiz-adv-x="886" d="M-512 -584q-2 16 9 23t23 7q8 0 14 -6t10 -12q14 -22 25 -47t27 -47q30 -42 69 -81t86 -68t99 -46t106 -17q82 0 152 40q100 60 166 166t114 234q46 124 79 253t67 241q-24 -22 -58 -48t-70 -49t-73 -39t-67 -16q-58 0 -105 38t-59 102q-10 40 -12 74q-4 62 5 131t26 138 t39 134t46 119q50 116 108 228q12 22 22 46t24 46q8 12 24 12q10 0 22 -11t14 -23l-6 -30q-18 -84 -47 -164t-61 -156q-22 -54 -45 -113t-40 -119t-27 -121t-6 -121q2 -18 5 -38t11 -37t20 -28t32 -11q34 0 80 23t92 54t87 65t67 58q52 144 112 281t130 269q28 52 56 107 t60 105q8 14 24 14q14 0 23 -11t11 -25q0 -8 -2 -12q-76 -204 -162 -399t-162 -399q-38 -98 -67 -196t-57 -200q-6 -22 -13 -41t-15 -41q-24 -74 -50 -145t-60 -139t-78 -129t-100 -106t-122 -72t-144 -27q-82 0 -153 29t-131 78t-107 116t-83 145q-4 8 -4 14zM580 1232 q0 34 6 56t48 22q20 0 38 -14t18 -36q0 -12 -10 -28h-2v-2q2 -6 2 -16q-12 -10 -18 -22t-28 -12q-18 0 -36 16t-18 36zM754 1232q0 34 7 56t49 22q18 0 37 -14t19 -36q0 -8 -4 -14t-8 -14l-2 -2q4 -12 4 -16q-14 -10 -19 -22t-27 -12q-20 0 -38 16t-18 36z" />
<glyph unicode="&#x152;" horiz-adv-x="1948" d="M184 312q0 102 22 198t59 188t86 178t103 170q32 46 72 107t74 105q12 12 24 12t21 -9t9 -21q0 -6 -4 -18q-64 -100 -131 -205t-122 -216t-90 -228t-35 -241v-41t4 -41q6 -50 30 -90t60 -67t82 -42t94 -15q30 0 60 6q44 34 95 57t105 35q72 50 141 119t130 148t112 163 t87 162q-78 0 -138 -24l-130 -52q0 -2 -4 -2q-14 0 -25 13t-11 25q0 6 2 6q18 38 51 65t73 44t82 25t82 8q16 0 31 -1t31 -3q28 72 43 147t15 153q0 74 -24 145t-82 123q-70 -22 -132 -60t-112 -94q-14 -16 -24 -34t-24 -34q-6 -10 -20 -10q-10 0 -22 9t-12 21q0 6 2 10 q40 84 103 144t143 100q-46 12 -92 12q-86 0 -163 -31t-151 -73q-8 -4 -16 -4q-14 0 -23 9t-9 21t12 24q36 32 81 59t95 47t101 31t99 11q52 0 103 -13t97 -41q94 28 190 39t192 15q90 4 175 12t168 24t165 40t164 62q2 0 4 1t4 1q14 0 24 -12t10 -24q0 -6 -8 -18 q-64 -64 -157 -103t-181 -55q-82 -16 -166 -21t-168 -8t-168 -8t-166 -19q52 -64 75 -138t23 -156q0 -158 -56 -316h40q50 0 99 5t95 17q6 2 19 6t27 8t25 8t13 4q10 0 22 -14t12 -22q0 -10 -10 -20q-80 -50 -184 -72t-198 -18q-34 -72 -79 -151t-99 -154t-112 -144 t-118 -123q62 -2 123 -12t123 -21t123 -20t123 -9q32 0 62 2t60 8q98 20 166 69t138 117q4 4 8 6t10 2q10 0 21 -11t11 -23q0 -8 -4 -12q-90 -126 -218 -190t-282 -64q-60 0 -121 7t-121 16t-120 17t-122 8q-34 0 -68 -2t-68 -8q-58 -34 -132 -62t-142 -28q-66 0 -129 21 t-112 60t-82 95t-39 124q-2 18 -3 37t-1 37z" />
<glyph unicode="&#x153;" horiz-adv-x="1378" d="M62 272q0 68 18 132q58 184 181 328t303 216q4 2 10 2q14 0 21 -10t7 -22q0 -16 -16 -26q-28 -16 -57 -30t-57 -36q-112 -80 -189 -197t-117 -249q-14 -42 -14 -94q0 -42 12 -90t36 -89t61 -69t87 -28q32 0 61 12t55 30q74 54 135 139t104 183t66 202t23 196v13t-2 13 q-4 54 -39 91t-81 59l-24 8t-22 8q-20 8 -20 28q0 14 8 24t22 8h2q44 -4 87 -20t78 -43t58 -65t29 -86q2 -12 3 -24t1 -24q34 42 84 89t107 86t119 64t120 25t93 -40t35 -98q0 -52 -24 -101t-62 -94t-82 -83t-82 -64q-60 -40 -125 -75t-141 -35q-16 0 -34 4t-18 26 q0 28 26 34q6 2 14 2t16 2q22 4 44 15t44 23q36 22 90 63t104 90t85 101t35 100q0 14 -6 20q0 4 -4 4q-16 0 -37 -4t-37 -8q-58 -16 -121 -60t-107 -86q-22 -22 -47 -50t-47 -60t-41 -64t-27 -62q-4 -8 -5 -16t-3 -18q-8 -28 -18 -55t-18 -55q-6 -26 -8 -54t-2 -56t2 -54 t8 -54q4 -24 14 -48t26 -45t37 -34t49 -13q16 0 31 5t29 13q58 34 104 85t84 103q10 14 19 28t19 28q8 12 22 12q12 0 22 -9t10 -21q0 -6 -4 -14q-24 -44 -60 -98t-81 -101t-97 -79t-110 -32q-48 0 -84 22t-61 57t-41 78t-22 85q-34 -54 -76 -103t-94 -87t-111 -61t-125 -23 q-64 0 -113 36t-82 90t-49 117t-16 117z" />
<glyph unicode="&#x178;" horiz-adv-x="1484" d="M-154 -748q0 108 33 218t91 211t138 184t174 135q8 4 14 4q12 0 21 -9t9 -21q0 -16 -16 -26q-20 -16 -40 -29t-40 -29q-90 -74 -153 -172t-103 -206q-20 -58 -32 -119t-12 -125q0 -92 30 -164t84 -121t129 -75t165 -26q46 0 91 8t89 28q70 30 127 88t102 134t80 163 t61 175t45 172t33 152q24 108 48 217t54 217q-34 -44 -81 -95t-102 -94t-115 -72t-120 -29t-97 25t-56 64t-26 87t-7 96q0 64 8 125t22 121q52 236 128 462t190 440q-58 -34 -117 -62t-117 -62q-78 -48 -155 -112t-113 -152q-8 -20 -12 -38t-8 -38q-6 -18 -28 -18 q-10 0 -21 8t-11 20q0 70 25 131t67 113t95 95t107 77q90 56 183 105t193 85q2 6 9 10t13 4q12 0 23 -9t11 -23q0 -6 -2 -8q-30 -82 -71 -186t-85 -219t-86 -236t-75 -236t-54 -220t-21 -189q0 -28 1 -57t10 -53t28 -40t55 -16q26 0 50 8t46 18q72 36 132 89t113 115 t100 129t89 131q4 4 4 6q36 76 80 157t94 160t106 152t114 133q10 10 24 10q12 0 21 -8t9 -22q0 -12 -6 -18q-72 -104 -135 -205t-119 -205t-103 -213t-87 -229q-40 -116 -67 -235t-54 -239t-57 -239t-74 -235q-40 -104 -92 -197t-123 -164t-165 -112t-216 -41 q-104 0 -194 33t-157 94t-105 147t-38 192zM1276 1558q0 34 6 56t48 22q20 0 38 -14t18 -36q0 -12 -10 -28h-2v-2q2 -6 2 -16q-12 -10 -18 -22t-28 -12q-18 0 -36 16t-18 36zM1450 1558q0 34 7 56t49 22q18 0 37 -14t19 -36q0 -8 -4 -14t-8 -14l-2 -2q4 -12 4 -16 q-14 -10 -19 -22t-27 -12q-20 0 -38 16t-18 36z" />
<glyph unicode="&#x2c6;" d="M926 1228v2q0 2 1 2t1 2q10 22 43 54t74 61t81 50t64 21q30 0 46 -14q60 -42 115 -88t107 -96v-4q0 -2 2 -4q0 -12 -11 -26t-23 -14l-6 2l-138 84q-6 2 -20 12t-30 21t-29 19t-15 8q-16 -14 -45 -37t-62 -44t-66 -36t-53 -15q-10 0 -23 14t-13 26z" />
<glyph unicode="&#x2dc;" d="M908 1292q0 2 4 11t6 11q18 36 51 62t73 32q10 2 30 2q42 0 82 -15t77 -34t70 -34t61 -15q20 0 31 9t19 21l14 21t16 9q4 0 20 -12t16 -16t-2 -14t-6 -14q-16 -40 -50 -65t-76 -25q-34 0 -67 12t-66 25t-65 25t-66 12q-22 0 -44 -7t-41 -14t-32 -14t-17 -7q-12 0 -25 11 t-13 23z" />
<glyph unicode="&#x2000;" horiz-adv-x="986" />
<glyph unicode="&#x2001;" horiz-adv-x="1972" />
<glyph unicode="&#x2002;" horiz-adv-x="986" />
<glyph unicode="&#x2003;" horiz-adv-x="1972" />
<glyph unicode="&#x2004;" horiz-adv-x="657" />
<glyph unicode="&#x2005;" horiz-adv-x="493" />
<glyph unicode="&#x2006;" horiz-adv-x="328" />
<glyph unicode="&#x2007;" horiz-adv-x="328" />
<glyph unicode="&#x2008;" horiz-adv-x="246" />
<glyph unicode="&#x2009;" horiz-adv-x="394" />
<glyph unicode="&#x200a;" horiz-adv-x="109" />
<glyph unicode="&#x2010;" horiz-adv-x="1006" d="M204 786q0 8 5 17t15 13q16 6 42 10t55 5t57 2t46 1q52 0 102 -2t102 -2q86 0 170 -3t170 -7h33t38 -1t37 -2t30 -3q22 -8 22 -30q0 -10 -5 -19t-15 -11q-24 -6 -68 -8t-72 -4q-84 -6 -169 -9t-171 -5q-46 0 -90 -2t-88 -2q-22 0 -53 1t-64 5t-62 10t-49 16q-8 4 -13 13 t-5 17z" />
<glyph unicode="&#x2011;" horiz-adv-x="1006" d="M204 786q0 8 5 17t15 13q16 6 42 10t55 5t57 2t46 1q52 0 102 -2t102 -2q86 0 170 -3t170 -7h33t38 -1t37 -2t30 -3q22 -8 22 -30q0 -10 -5 -19t-15 -11q-24 -6 -68 -8t-72 -4q-84 -6 -169 -9t-171 -5q-46 0 -90 -2t-88 -2q-22 0 -53 1t-64 5t-62 10t-49 16q-8 4 -13 13 t-5 17z" />
<glyph unicode="&#x2012;" horiz-adv-x="1006" d="M204 786q0 8 5 17t15 13q16 6 42 10t55 5t57 2t46 1q52 0 102 -2t102 -2q86 0 170 -3t170 -7h33t38 -1t37 -2t30 -3q22 -8 22 -30q0 -10 -5 -19t-15 -11q-24 -6 -68 -8t-72 -4q-84 -6 -169 -9t-171 -5q-46 0 -90 -2t-88 -2q-22 0 -53 1t-64 5t-62 10t-49 16q-8 4 -13 13 t-5 17z" />
<glyph unicode="&#x2013;" horiz-adv-x="1026" d="M204 786q0 8 5 17t15 13q16 6 42 10t55 5t57 2t46 1q52 0 102 -2t102 -2q86 0 170 -3t170 -7h33t38 -1t37 -2t30 -3q22 -8 22 -30q0 -10 -5 -19t-15 -11q-24 -6 -68 -8t-72 -4q-84 -6 -169 -9t-171 -5q-46 0 -90 -2t-88 -2q-22 0 -53 1t-64 5t-62 10t-49 16q-8 4 -13 13 t-5 17z" />
<glyph unicode="&#x2014;" horiz-adv-x="1366" d="M204 726q0 10 5 18t15 12q22 6 58 10t76 6t77 3t61 1q68 0 135 -3t133 -3q218 0 434 -6l144 -6q16 -2 32 -1t30 -1q10 -4 16 -12t6 -18t-5 -19t-15 -11q-16 -4 -40 -5t-51 -3t-52 -3t-43 -1q-114 -6 -228 -10t-228 -4q-60 -2 -121 -4t-121 -2q-28 0 -69 1t-83 5t-82 9 t-64 15q-20 10 -20 32z" />
<glyph unicode="&#x2018;" horiz-adv-x="214" d="M308 1276q0 30 13 62t32 63t40 60t37 51h6q2 0 4 2q6 0 21 -14t19 -18q-10 -50 -30 -95t-30 -91l20 -20t10 -26q0 -34 -7 -56t-47 -22q-16 0 -27 7t-21 17q-20 20 -30 35t-10 45z" />
<glyph unicode="&#x2019;" horiz-adv-x="214" d="M308 1206q8 50 29 94t31 92q-10 8 -20 18t-10 26q0 34 6 56t48 22q26 0 46 -24q20 -18 31 -34t11 -44q0 -30 -13 -62t-32 -63t-40 -60t-39 -51q-2 0 -2 -1t-2 -1q-2 -2 -4 -2q-6 0 -21 14t-19 20z" />
<glyph unicode="&#x201a;" horiz-adv-x="152" d="M-144 -166q10 48 31 93t31 93q-12 8 -21 18t-9 26q0 34 6 56t48 22q16 0 26 -7t20 -17q20 -20 31 -35t11 -45t-13 -61t-32 -62t-41 -60t-38 -51q-2 0 -5 -2t-5 -2q-4 0 -20 14t-20 20z" />
<glyph unicode="&#x201c;" horiz-adv-x="358" d="M308 1276q0 30 13 62t32 63t40 60t37 51h6q2 0 4 2q6 0 21 -14t19 -18q-10 -50 -30 -95t-30 -91l20 -20t10 -26q0 -34 -7 -56t-47 -22q-16 0 -27 7t-21 17q-20 20 -30 35t-10 45zM452 1276q0 30 13 62t32 63t40 60t39 51h4q2 0 4 2q6 0 21 -14t19 -18q-8 -50 -29 -95 t-31 -91l20 -20t10 -26q0 -34 -6 -56t-48 -22q-16 0 -26 7t-20 17q-20 20 -31 35t-11 45z" />
<glyph unicode="&#x201d;" horiz-adv-x="358" d="M308 1206q8 50 29 94t31 92q-10 8 -20 18t-10 26q0 34 6 56t48 22q26 0 46 -24q20 -18 31 -34t11 -44q0 -30 -13 -62t-32 -63t-40 -60t-39 -51q-2 0 -2 -1t-2 -1q-2 -2 -4 -2q-6 0 -21 14t-19 20zM452 1206q10 50 30 94t30 92q-10 8 -20 18t-10 26q0 34 7 56t47 22 q16 0 27 -7t21 -17q20 -18 30 -34t10 -44q0 -30 -13 -62t-32 -63t-40 -60t-37 -51q-2 0 -3 -1t-3 -1q-2 -2 -4 -2q-6 0 -21 14t-19 20z" />
<glyph unicode="&#x201e;" horiz-adv-x="298" d="M-144 -166q10 48 31 93t31 93q-12 8 -21 18t-9 26q0 34 6 56t48 22q16 0 26 -7t20 -17q20 -20 31 -35t11 -45t-13 -61t-32 -62t-41 -60t-38 -51q-2 0 -5 -2t-5 -2q-4 0 -20 14t-20 20zM2 -166q8 48 29 93t31 93q-10 8 -20 18t-10 26q0 34 6 56t48 22q26 0 46 -24 q20 -20 31 -35t11 -45t-13 -61t-32 -62t-40 -60t-39 -51l-8 -4q-6 0 -21 14t-19 20z" />
<glyph unicode="&#x2022;" horiz-adv-x="564" d="M204 652q0 40 17 76t45 63t64 42t76 15q34 0 66 -13t57 -35t40 -52t15 -66v-18t-4 -18l-2 -2l2 -12q2 -36 -14 -67t-43 -55t-61 -37t-68 -13q-40 0 -74 16t-60 43t-41 61t-15 72z" />
<glyph unicode="&#x2026;" horiz-adv-x="542" d="M-40 16q0 34 6 56t48 22q18 0 37 -14t19 -36q0 -10 -12 -26l-2 -4q4 -8 4 -16q-14 -10 -19 -21t-27 -11q-20 0 -37 15t-17 35zM226 16q0 34 6 56t48 22q18 0 37 -14t19 -36q0 -10 -12 -26l-2 -4q4 -8 4 -16q-14 -10 -19 -21t-27 -11q-20 0 -37 15t-17 35zM492 16 q0 34 6 56t48 22q18 0 37 -14t19 -36q0 -10 -12 -26l-2 -4q4 -8 4 -16q-14 -10 -19 -21t-27 -11q-20 0 -37 15t-17 35z" />
<glyph unicode="&#x202f;" horiz-adv-x="394" />
<glyph unicode="&#x2039;" horiz-adv-x="370" d="M144 656v18t2 18q52 90 132 162t178 108h4q16 0 25 -15t9 -29q-28 -40 -62 -72t-68 -62t-66 -61t-54 -65q4 -34 33 -77t67 -86t76 -84t62 -67q2 -2 2 -4t2 -2q0 -14 -11 -26t-25 -12q-6 0 -34 21t-60 48t-60 52t-34 33q-16 20 -36 38t-36 40q-46 56 -46 124z" />
<glyph unicode="&#x203a;" horiz-adv-x="392" d="M122 930q0 12 11 26t25 14q2 -2 4 -2q96 -36 176 -108t132 -160q2 -10 3 -19t1 -19q0 -36 -13 -66t-35 -58q-16 -20 -35 -39t-37 -39q-6 -8 -34 -33t-60 -52t-60 -48t-34 -21q-14 0 -24 12t-10 26v4q0 2 1 2t1 2q24 26 63 66t77 83t67 86t33 77q-22 36 -54 66t-67 60 t-69 62t-60 70q0 2 -1 4t-1 4z" />
<glyph unicode="&#x205f;" horiz-adv-x="493" />
<glyph unicode="&#x20ac;" horiz-adv-x="970" d="M62 552q0 18 17 28t43 14q-24 6 -42 19t-18 37q0 20 24 31t55 15t62 4h45h82q26 98 83 190t137 162t177 112t203 42q28 0 73 -6t71 -16q18 -10 18 -28q0 -16 -7 -23t-18 -9t-24 -1t-23 1q-98 0 -189 -32t-168 -89t-136 -135t-89 -170q14 -2 26 -2t24 -2q8 -6 14 -15 t6 -19q0 -12 -11 -20t-25 -12t-30 -6t-24 -4l-4 -18q20 0 38 -1t36 -3q8 -6 14 -15t6 -19q0 -6 -4 -14t-10 -10q-20 -8 -43 -12t-45 -8q-2 -16 -2 -32v-32q0 -44 6 -94t22 -98t42 -90t68 -66q22 -14 57 -20t63 -6q80 0 156 35t128 95q14 16 23 31t21 31q10 14 22 14t23 -8 t11 -22q0 -2 -1 -4t-1 -6q-26 -56 -67 -102t-94 -79t-112 -51t-121 -18q-30 0 -77 8t-75 24q-60 36 -99 90t-61 119t-29 134t-5 133q-32 -4 -65 -8t-67 -4q-14 0 -33 2t-36 9t-29 19t-12 30z" />
<glyph unicode="&#x25fc;" horiz-adv-x="960" d="M0 0v960h960v-960h-960z" />
<glyph unicode="&#xfb01;" horiz-adv-x="1288" d="M-1024 -746q0 12 9 20t21 8q14 0 26 -14q16 -22 32 -43t34 -41q76 -82 175 -137t213 -55q90 0 164 44t135 116t110 164t86 187t65 186t48 159q40 142 80 282t90 278q40 108 75 217t75 217q-66 -6 -132 -10t-132 -4q-8 0 -16 13t-8 21q0 18 18 26q22 6 43 9t43 7 q56 10 111 20t113 20q40 100 99 209t137 206t173 170t207 101q16 4 31 6t31 2q108 0 163 -64t55 -168q0 -34 -6 -73t-20 -73q-6 -24 -30 -24q-12 0 -21 10t-9 22q0 22 6 49t6 55q0 32 -6 63t-20 55t-40 38t-64 14q-30 0 -52 -8q-88 -24 -166 -87t-144 -144t-118 -171 t-88 -168q40 8 81 14t81 6q20 0 55 -3t51 -11q8 -4 13 -16t5 -20q0 -6 -3 -13t-11 -11q-70 -32 -156 -39t-162 -15q-48 -120 -88 -240t-84 -240q-52 -138 -92 -277t-82 -279q-24 -80 -56 -177t-75 -198t-97 -196t-123 -169t-153 -119t-186 -45q-82 0 -157 25t-141 68 t-121 102t-97 127q-4 8 -4 16zM902 78v72q0 52 11 108t23 108q18 78 42 168t55 179t71 172t90 145q6 10 18 10q14 0 25 -9t11 -23v-4q-34 -108 -77 -225t-82 -237t-66 -240t-27 -232q0 -12 1 -34t13 -28q46 8 95 46t92 80t74 76t43 34t23 -10t11 -20q0 -4 -2 -8l-4 -8 q-38 -46 -73 -91t-75 -83t-88 -65t-110 -39q-52 24 -73 63t-21 95z" />
<glyph unicode="&#xfb02;" horiz-adv-x="1350" d="M-1024 -746q0 28 28 28q16 0 30 -18q16 -22 31 -43t33 -41q72 -78 175 -133t213 -55q88 0 161 41t132 108t106 154t84 177t65 176t48 154q82 262 158 523t178 517q-68 -6 -135 -10t-135 -4q-8 0 -15 13t-7 21q0 18 18 26q20 4 41 8t43 8q58 10 116 21t116 21 q38 90 88 196t114 205t143 178t177 117q62 26 120 26q56 0 94 -19t61 -52t33 -76t10 -91q0 -92 -18 -179t-45 -171t-58 -167t-59 -167q-26 -78 -55 -166t-54 -178t-42 -180t-17 -170q0 -18 2 -38t10 -38t22 -29t38 -11q42 0 94 23t105 56t102 69t83 60q16 8 24 8q12 0 21 -8 t9 -20q0 -16 -16 -28q-34 -34 -87 -77t-112 -81t-118 -65t-107 -27q-46 0 -78 19t-52 49t-29 69t-9 79q0 92 15 183t38 181t52 178t57 176q26 78 58 159t59 163t45 165t18 167q0 26 -3 49t-13 41t-29 29t-49 11q-62 0 -119 -31t-108 -81t-96 -114t-82 -131t-67 -130 t-52 -113q40 8 80 14t80 6q20 0 55 -3t53 -11q6 -4 12 -16t6 -20q0 -6 -4 -13t-10 -11q-70 -32 -157 -39t-161 -15q-110 -266 -194 -536t-172 -544q-34 -102 -69 -206t-82 -203t-109 -188t-148 -161q-58 -48 -129 -73t-147 -25q-74 0 -147 26t-139 69t-121 100t-93 119 q-6 8 -6 20z" />
</font>
</defs>
</svg>
